<svg width="18" height="18" viewBox="0 0 18 18" fill="none" xmlns="http://www.w3.org/2000/svg">
<path d="M9.17212 4.62772C9.06211 4.62727 8.9531 4.64861 8.85138 4.6905C8.74966 4.73239 8.65723 4.794 8.57945 4.87179C8.50166 4.94958 8.44004 5.042 8.39815 5.14373C8.35626 5.24545 8.33492 5.35446 8.33537 5.46447L8.34127 8.16915L5.63658 8.16326C5.41467 8.16326 5.20184 8.25141 5.04492 8.40833C4.888 8.56525 4.79984 8.77808 4.79984 9C4.79984 9.22192 4.888 9.43475 5.04492 9.59167C5.20184 9.74859 5.41467 9.83674 5.63658 9.83674L8.34127 9.83085L8.33537 12.5355C8.33492 12.6455 8.35626 12.7546 8.39815 12.8563C8.44004 12.958 8.50166 13.0504 8.57945 13.1282C8.65723 13.206 8.74966 13.2676 8.85138 13.3095C8.9531 13.3514 9.06211 13.3727 9.17212 13.3723C9.28213 13.3727 9.39114 13.3514 9.49286 13.3095C9.59458 13.2676 9.687 13.206 9.76479 13.1282C9.84258 13.0504 9.9042 12.958 9.94609 12.8563C9.98798 12.7546 10.0093 12.6455 10.0089 12.5355L10.003 9.83085L12.7077 9.83674C12.8177 9.83719 12.9267 9.81586 13.0284 9.77397C13.1301 9.73208 13.2225 9.67046 13.3003 9.59267C13.3781 9.51488 13.4397 9.42246 13.4816 9.32074C13.5235 9.21902 13.5448 9.11001 13.5444 9C13.5448 8.88999 13.5235 8.78098 13.4816 8.67926C13.4397 8.57754 13.3781 8.48512 13.3003 8.40733C13.2225 8.32954 13.1301 8.26792 13.0284 8.22603C12.9267 8.18414 12.8177 8.16281 12.7077 8.16326L10.003 8.16915L10.0089 5.46447C10.0093 5.35446 9.98798 5.24545 9.94609 5.14373C9.9042 5.042 9.84258 4.94958 9.76479 4.87179C9.687 4.79401 9.59458 4.73239 9.49286 4.6905C9.39114 4.64861 9.28213 4.62727 9.17212 4.62772ZM9.17212 0.667925C8.06575 0.648695 6.96663 0.85 5.93889 1.26009C4.91115 1.67019 3.97538 2.28085 3.18617 3.05646C2.39696 3.83207 1.77012 4.75709 1.34223 5.77755C0.914342 6.79801 0.693967 7.89346 0.693967 9C0.693967 10.1065 0.914342 11.202 1.34223 12.2224C1.77012 13.2429 2.39696 14.1679 3.18617 14.9435C3.97538 15.7191 4.91115 16.3298 5.93889 16.7399C6.96663 17.15 8.06575 17.3513 9.17212 17.3321C10.2785 17.3513 11.3776 17.15 12.4053 16.7399C13.4331 16.3298 14.3689 15.7191 15.1581 14.9435C15.9473 14.1679 16.5741 13.2429 17.002 12.2225C17.4299 11.202 17.6503 10.1065 17.6503 9C17.6503 7.89346 17.4299 6.79801 17.002 5.77755C16.5741 4.75709 15.9473 3.83207 15.1581 3.05646C14.3689 2.28085 13.4331 1.67018 12.4053 1.26009C11.3776 0.849999 10.2785 0.648695 9.17212 0.667925ZM15.8425 9C15.8433 10.5423 15.3094 12.0372 14.3317 13.23C13.354 14.4228 11.9929 15.2397 10.4804 15.5415C8.96796 15.8433 7.39761 15.6114 6.03696 14.8852C4.6763 14.159 3.60951 12.9836 3.01834 11.5591C2.42717 10.1346 2.3482 8.54914 2.79487 7.07294C3.24154 5.59674 4.18623 4.32107 5.46799 3.46328C6.74974 2.60548 8.28926 2.21864 9.82425 2.36865C11.3592 2.51866 12.7947 3.19624 13.8862 4.28595C14.5077 4.90333 15.0007 5.63786 15.3365 6.44702C15.6723 7.25619 15.8443 8.12392 15.8425 9Z" fill="#F1A132"/>
</svg>
