<svg width="34" height="34" viewBox="0 0 34 34" fill="none" xmlns="http://www.w3.org/2000/svg">
<path d="M25.3335 8.66666C24.5629 6.6596 23.3029 4.87696 21.668 3.48078C20.0331 2.08461 18.0752 1.11919 15.9722 0.672273C13.8693 0.225355 11.688 0.311118 9.62661 0.921764C7.56523 1.53241 5.68917 2.64857 4.16895 4.1688C2.64873 5.68902 1.53256 7.56508 0.921917 9.62645C0.31127 11.6878 0.225508 13.8691 0.672425 15.9721C1.11934 18.075 2.08477 20.0329 3.48094 21.6678C4.87711 23.3027 6.65975 24.5627 8.66681 25.3333C9.43742 27.3404 10.6974 29.123 12.3323 30.5192C13.9672 31.9154 15.9251 32.8808 18.0281 33.3277C20.131 33.7746 22.3123 33.6889 24.3737 33.0782C26.4351 32.4676 28.3111 31.3514 29.8313 29.8312C31.3516 28.311 32.4677 26.4349 33.0784 24.3735C33.689 22.3122 33.7748 20.1309 33.3279 18.0279C32.881 15.925 31.9155 13.9671 30.5194 12.3322C29.1232 10.6973 27.3405 9.43727 25.3335 8.66666ZM22.6668 11.3333C22.7872 11.9595 22.8486 12.5957 22.8501 13.2333C22.8467 13.9855 22.7572 14.7348 22.5835 15.4667L18.5168 11.4333C19.2487 11.2596 19.998 11.1701 20.7501 11.1667C21.3878 11.1682 22.0239 11.2296 22.6501 11.35L22.6668 11.3333ZM21.1001 18.6667C20.4357 19.6123 19.6124 20.4356 18.6668 21.1L12.9001 15.3333C13.5646 14.3877 14.3879 13.5644 15.3335 12.9L21.1001 18.6667ZM7.76681 21.1C6.61214 20.3013 5.64708 19.2586 4.93987 18.0457C4.23267 16.8328 3.80061 15.4793 3.67426 14.081C3.5479 12.6827 3.73033 11.2737 4.20864 9.9537C4.68696 8.63369 5.44948 7.43489 6.44226 6.44211C7.43504 5.44932 8.63384 4.68681 9.95386 4.20849C11.2739 3.73018 12.6829 3.54775 14.0812 3.6741C15.4795 3.80046 16.833 4.23252 18.0458 4.93972C19.2587 5.64692 20.3014 6.61199 21.1001 7.76666H20.6835C17.2591 7.7887 13.9833 9.16791 11.5744 11.6018C9.16549 14.0357 7.82017 17.3256 7.83348 20.75C7.83348 20.8833 7.85015 21.0333 7.85015 21.1667L7.76681 21.1ZM11.2668 22.5833C11.1464 21.9571 11.0851 21.321 11.0835 20.6833C11.087 19.9312 11.1764 19.1818 11.3501 18.45L15.4001 22.5C14.6683 22.6737 13.919 22.7632 13.1668 22.7667C12.559 22.782 11.951 22.743 11.3501 22.65L11.2668 22.5833ZM20.7501 30.3333C19.1902 30.3304 17.6544 29.9481 16.2752 29.2193C14.896 28.4905 13.7148 27.4371 12.8335 26.15H13.2501C16.6716 26.1456 19.952 24.7856 22.3729 22.3678C24.7938 19.95 26.158 16.6715 26.1668 13.25V12.8333C27.8598 13.9883 29.138 15.6556 29.8137 17.5904C30.4894 19.5253 30.527 21.6258 29.921 23.5836C29.3151 25.5415 28.0974 27.2534 26.4468 28.4683C24.7962 29.6831 22.7996 30.3368 20.7501 30.3333Z" fill="#F1A132"/>
</svg>
