<svg width="69" height="69" viewBox="0 0 69 69" fill="none" xmlns="http://www.w3.org/2000/svg">
<rect width="69" height="69" rx="15" fill="#F1A132" fill-opacity="0.3"/>
<path d="M60.8938 21.44C60.6459 21.1901 60.351 20.9917 60.026 20.8563C59.7011 20.7209 59.3525 20.6512 59.0005 20.6512C58.6485 20.6512 58.2999 20.7209 57.975 20.8563C57.65 20.9917 57.3551 21.1901 57.1072 21.44L40.3338 38.24L28.8938 26.7733C28.6459 26.5234 28.351 26.325 28.026 26.1896C27.7011 26.0542 27.3525 25.9845 27.0005 25.9845C26.6485 25.9845 26.2999 26.0542 25.975 26.1896C25.65 26.325 25.3551 26.5234 25.1072 26.7733L9.10715 42.7733C8.85721 43.0212 8.65883 43.3162 8.52344 43.6411C8.38806 43.9661 8.31836 44.3146 8.31836 44.6667C8.31836 45.0187 8.38806 45.3673 8.52344 45.6922C8.65883 46.0172 8.85721 46.3121 9.10715 46.56C9.35506 46.8099 9.64999 47.0083 9.97495 47.1437C10.2999 47.2791 10.6485 47.3488 11.0005 47.3488C11.3525 47.3488 11.7011 47.2791 12.026 47.1437C12.351 47.0083 12.6459 46.8099 12.8938 46.56L27.0005 32.4267L38.4405 43.8933C38.6884 44.1433 38.9833 44.3417 39.3083 44.477C39.6332 44.6124 39.9818 44.6821 40.3338 44.6821C40.6859 44.6821 41.0344 44.6124 41.3594 44.477C41.6843 44.3417 41.9793 44.1433 42.2272 43.8933L60.8938 25.2267C61.1438 24.9788 61.3422 24.6838 61.4775 24.3589C61.6129 24.0339 61.6826 23.6854 61.6826 23.3333C61.6826 22.9813 61.6129 22.6328 61.4775 22.3078C61.3422 21.9828 61.1438 21.6879 60.8938 21.44Z" fill="white"/>
</svg>
