<svg width="28" height="14" viewBox="0 0 28 14" fill="none" xmlns="http://www.w3.org/2000/svg">
<path d="M27.2381 0.817226C27.1129 0.691005 26.964 0.590821 26.7999 0.522453C26.6358 0.454084 26.4598 0.418884 26.282 0.418884C26.1042 0.418884 25.9282 0.454084 25.7641 0.522453C25.6 0.590821 25.451 0.691005 25.3258 0.817226L16.8553 9.30123L11.0781 3.51056C10.9529 3.38434 10.804 3.28415 10.6399 3.21579C10.4758 3.14742 10.2998 3.11222 10.122 3.11222C9.9442 3.11222 9.76818 3.14742 9.60408 3.21579C9.43997 3.28415 9.29103 3.38434 9.16584 3.51056L1.08584 11.5906C0.959621 11.7157 0.859436 11.8647 0.791068 12.0288C0.7227 12.1929 0.6875 12.3689 0.6875 12.5467C0.6875 12.7245 0.7227 12.9005 0.791068 13.0646C0.859436 13.2287 0.959621 13.3776 1.08584 13.5028C1.21103 13.629 1.35997 13.7292 1.52408 13.7976C1.68818 13.866 1.8642 13.9012 2.04198 13.9012C2.21975 13.9012 2.39577 13.866 2.55987 13.7976C2.72398 13.7292 2.87292 13.629 2.99811 13.5028L10.122 6.36549L15.8992 12.1562C16.0244 12.2824 16.1733 12.3826 16.3374 12.4509C16.5015 12.5193 16.6775 12.5545 16.8553 12.5545C17.0331 12.5545 17.2091 12.5193 17.3732 12.4509C17.5373 12.3826 17.6863 12.2824 17.8114 12.1562L27.2381 2.72949C27.3643 2.6043 27.4645 2.45536 27.5329 2.29126C27.6013 2.12715 27.6364 1.95114 27.6364 1.77336C27.6364 1.59558 27.6013 1.41957 27.5329 1.25546C27.4645 1.09136 27.3643 0.942416 27.2381 0.817226Z" fill="#F1A132"/>
</svg>
