<svg width="135" height="42" viewBox="0 0 135 42" fill="none" xmlns="http://www.w3.org/2000/svg">
<path d="M131 0H4C1.79086 0 0 1.79086 0 4V38C0 40.2091 1.79086 42 4 42H131C133.209 42 135 40.2091 135 38V4C135 1.79086 133.209 0 131 0Z" fill="black"/>
<path d="M40.661 16.918C41.2 16.912 41.671 16.795 42.077 16.568C42.482 16.339 42.794 16.012 43.013 15.586C43.231 15.16 43.34 14.664 43.34 14.098V13.715C43.337 13.163 43.227 12.674 43.008 12.248C42.8018 11.8352 42.4783 11.4926 42.078 11.263C41.678 11.032 41.216 10.916 40.694 10.916H39V16.918H40.661ZM40.624 16.27H39.791V11.568H40.715C41.303 11.573 41.757 11.765 42.077 12.143C42.397 12.52 42.557 13.05 42.557 13.731V14.081C42.557 14.782 42.387 15.322 42.048 15.701C41.708 16.081 41.234 16.271 40.624 16.271V16.27ZM46.302 17C46.702 17 47.058 16.904 47.367 16.711C47.677 16.519 47.914 16.251 48.08 15.906C48.246 15.561 48.33 15.171 48.33 14.737V14.684C48.33 13.986 48.142 13.426 47.767 13.006C47.392 12.586 46.901 12.376 46.293 12.376C45.9 12.376 45.551 12.47 45.244 12.66C44.938 12.85 44.699 13.119 44.527 13.468C44.3514 13.8355 44.2634 14.2387 44.27 14.646V14.7C44.27 15.393 44.457 15.949 44.832 16.37C45.207 16.79 45.697 17 46.302 17ZM46.302 16.378C45.917 16.378 45.61 16.228 45.38 15.928C45.15 15.628 45.036 15.232 45.036 14.738C45.036 14.179 45.152 13.751 45.382 13.451C45.613 13.151 45.917 13.001 46.293 13.001C46.678 13.001 46.986 13.154 47.219 13.457C47.451 13.761 47.567 14.157 47.567 14.647C47.567 15.193 47.453 15.619 47.225 15.922C47.1203 16.0678 46.9814 16.1857 46.8204 16.2652C46.6595 16.3448 46.4814 16.3835 46.302 16.378ZM50.854 16.918L51.909 13.538L52.993 16.918H53.611L54.91 12.458H54.147L53.29 15.867L52.23 12.457H51.616L50.578 15.797L49.7 12.457H48.941L50.236 16.917H50.854V16.918ZM56.503 16.918V13.74C56.607 13.525 56.753 13.352 56.94 13.22C57.1305 13.0874 57.358 13.0185 57.59 13.023C57.896 13.023 58.12 13.099 58.265 13.253C58.409 13.407 58.483 13.645 58.485 13.966V16.918H59.248V13.97C59.24 12.906 58.764 12.374 57.822 12.374C57.272 12.374 56.827 12.589 56.486 13.017L56.461 12.457H55.741V16.917H56.503V16.918ZM61.282 16.918V10.587H60.519V16.917H61.282V16.918ZM64.387 17C64.789 17 65.144 16.904 65.453 16.711C65.762 16.519 66 16.251 66.166 15.906C66.332 15.561 66.416 15.171 66.416 14.737V14.684C66.416 13.986 66.228 13.426 65.853 13.006C65.478 12.586 64.986 12.376 64.379 12.376C63.986 12.376 63.637 12.47 63.33 12.66C63.024 12.85 62.785 13.119 62.613 13.468C62.4371 13.8354 62.3487 14.2387 62.355 14.646V14.7C62.355 15.393 62.543 15.949 62.918 16.37C63.293 16.79 63.783 17 64.388 17H64.387ZM64.387 16.378C64.003 16.378 63.696 16.228 63.467 15.928C63.237 15.628 63.122 15.232 63.122 14.738C63.122 14.179 63.237 13.751 63.468 13.451C63.699 13.151 64.003 13.001 64.379 13.001C64.764 13.001 65.072 13.154 65.304 13.457C65.537 13.761 65.653 14.157 65.653 14.647C65.653 15.193 65.539 15.619 65.311 15.922C65.2062 16.068 65.0671 16.186 64.906 16.2655C64.7448 16.345 64.5666 16.3836 64.387 16.378ZM68.804 17C69.296 17 69.719 16.816 70.074 16.448C70.101 16.673 70.136 16.83 70.18 16.918H70.98V16.852C70.876 16.61 70.823 16.284 70.823 15.875V13.822C70.813 13.372 70.661 13.018 70.37 12.761C70.079 12.504 69.676 12.375 69.162 12.375C68.838 12.375 68.541 12.435 68.27 12.557C68 12.677 67.785 12.842 67.627 13.049C67.478 13.2314 67.3946 13.4585 67.39 13.694H68.157C68.157 13.499 68.249 13.333 68.433 13.196C68.617 13.058 68.845 12.99 69.117 12.99C69.427 12.99 69.662 13.069 69.822 13.227C69.982 13.385 70.061 13.597 70.061 13.863V14.213H69.319C68.679 14.213 68.182 14.343 67.829 14.599C67.476 14.856 67.299 15.217 67.299 15.681C67.299 16.063 67.44 16.378 67.722 16.627C68.003 16.876 68.364 17 68.804 17ZM68.915 16.336C68.665 16.336 68.46 16.269 68.301 16.134C68.141 16 68.061 15.813 68.061 15.574C68.061 15.027 68.529 14.754 69.463 14.754H70.061V15.669C69.9584 15.8734 69.7958 16.0416 69.595 16.151C69.3889 16.2722 69.1541 16.3361 68.915 16.336ZM73.64 17C74.185 17 74.61 16.813 74.914 16.44L74.951 16.918H75.651V10.587H74.889V12.911C74.584 12.554 74.171 12.375 73.649 12.375C73.124 12.375 72.699 12.584 72.375 13C72.051 13.416 71.889 13.966 71.889 14.65V14.708C71.889 15.39 72.052 15.942 72.377 16.365C72.703 16.788 73.124 17 73.64 17ZM73.83 16.353C73.462 16.353 73.173 16.21 72.965 15.924C72.755 15.638 72.651 15.243 72.651 14.737C72.651 14.171 72.756 13.744 72.965 13.455C73.173 13.167 73.465 13.023 73.838 13.023C74.311 13.023 74.661 13.233 74.889 13.653V15.702C74.667 16.136 74.314 16.352 73.83 16.352V16.353ZM80.173 16.918V13.048H81.125V12.458H80.173V11.988C80.173 11.718 80.241 11.512 80.375 11.368C80.51 11.223 80.701 11.151 80.948 11.151C81.094 11.151 81.231 11.164 81.36 11.188L81.402 10.57C81.2312 10.5236 81.055 10.5001 80.878 10.5C80.411 10.5 80.05 10.63 79.794 10.892C79.538 11.152 79.411 11.522 79.411 12V12.458H78.706V13.048H79.411V16.918H80.173ZM83.852 17C84.253 17 84.608 16.904 84.917 16.711C85.227 16.519 85.464 16.251 85.63 15.906C85.797 15.561 85.88 15.171 85.88 14.737V14.684C85.88 13.986 85.692 13.426 85.317 13.006C84.942 12.586 84.451 12.376 83.844 12.376C83.451 12.376 83.101 12.47 82.794 12.66C82.488 12.85 82.249 13.119 82.077 13.468C81.9014 13.8355 81.8134 14.2387 81.82 14.646V14.7C81.82 15.393 82.007 15.949 82.382 16.37C82.757 16.79 83.247 17 83.852 17ZM83.852 16.378C83.467 16.378 83.16 16.228 82.931 15.928C82.701 15.628 82.586 15.232 82.586 14.738C82.586 14.179 82.702 13.751 82.933 13.451C83.163 13.151 83.467 13.001 83.843 13.001C84.228 13.001 84.537 13.154 84.769 13.457C85.001 13.761 85.117 14.157 85.117 14.647C85.117 15.193 85.003 15.619 84.775 15.922C84.6703 16.0678 84.5314 16.1857 84.3704 16.2652C84.2095 16.3448 84.0314 16.3835 83.852 16.378ZM87.654 16.918V13.752C87.833 13.326 88.172 13.113 88.672 13.113C88.807 13.113 88.932 13.123 89.047 13.142V12.433C88.94 12.3888 88.8246 12.369 88.709 12.375C88.25 12.375 87.896 12.575 87.646 12.973L87.633 12.458H86.891V16.918H87.654ZM40.702 30.871L41.466 28.693H45.116L45.886 30.871H47.596L44.029 21.514H42.56L39 30.871H40.702ZM44.657 27.381H41.926L43.29 23.5L44.656 27.382L44.657 27.381ZM49.838 30.871V25.923C50.148 25.353 50.621 25.068 51.256 25.068C51.692 25.068 52.006 25.174 52.198 25.386C52.39 25.598 52.486 25.925 52.486 26.366V30.871H54.058V26.276C54.033 24.618 53.29 23.789 51.832 23.789C50.99 23.789 50.311 24.099 49.793 24.721L49.748 23.918H48.265V30.871H49.838ZM58.204 31C58.989 31 59.617 30.717 60.088 30.152L60.165 30.872H61.589V21H60.016V24.56C59.559 24.046 58.959 23.79 58.216 23.79C57.376 23.79 56.704 24.114 56.204 24.763C55.704 25.412 55.454 26.273 55.454 27.343C55.454 28.47 55.707 29.361 56.214 30.017C56.721 30.672 57.384 31 58.204 31ZM58.605 29.728C58.1 29.728 57.711 29.529 57.437 29.133C57.163 28.737 57.026 28.185 57.026 27.478C57.026 26.673 57.164 26.07 57.44 25.669C57.716 25.269 58.109 25.069 58.618 25.069C59.261 25.069 59.728 25.347 60.016 25.904V28.873C59.719 29.443 59.248 29.728 58.606 29.728H58.605ZM64.887 30.871V26.116C65.137 25.567 65.623 25.293 66.343 25.293C66.563 25.293 66.777 25.31 66.983 25.344L66.99 23.879C66.8121 23.8137 66.6234 23.7832 66.434 23.789C65.761 23.789 65.234 24.091 64.854 24.695L64.816 23.918H63.314V30.871H64.887ZM70.799 31C71.447 31 72.017 30.852 72.511 30.557C73.0063 30.2605 73.4029 29.8242 73.651 29.303C73.916 28.763 74.049 28.151 74.049 27.465L74.042 27.099C73.995 26.101 73.676 25.299 73.087 24.695C72.498 24.091 71.731 23.789 70.787 23.789C70.147 23.789 69.583 23.936 69.091 24.229C68.594 24.5279 68.1956 24.966 67.945 25.489C67.673 26.035 67.537 26.649 67.537 27.33V27.407C67.537 28.496 67.834 29.367 68.427 30.02C69.02 30.673 69.811 31 70.799 31ZM70.799 29.753C70.269 29.753 69.854 29.551 69.557 29.146C69.259 28.741 69.11 28.181 69.11 27.466C69.11 26.66 69.261 26.055 69.563 25.65C69.865 25.245 70.273 25.042 70.786 25.042C71.309 25.042 71.722 25.248 72.026 25.659C72.33 26.071 72.482 26.628 72.482 27.33C72.482 28.123 72.334 28.725 72.039 29.136C71.743 29.548 71.33 29.753 70.799 29.753ZM76.356 22.934C76.641 22.934 76.861 22.856 77.016 22.7C77.0928 22.623 77.153 22.5311 77.1931 22.43C77.2331 22.3289 77.2522 22.2207 77.249 22.112C77.2524 22.0018 77.2335 21.892 77.1934 21.7893C77.1534 21.6865 77.0931 21.5929 77.016 21.514C76.861 21.356 76.641 21.276 76.356 21.276C76.071 21.276 75.852 21.356 75.699 21.514C75.6228 21.5933 75.5632 21.6871 75.5237 21.7898C75.4842 21.8925 75.4656 22.002 75.469 22.112C75.469 22.347 75.546 22.543 75.699 22.7C75.852 22.856 76.071 22.934 76.356 22.934ZM77.139 30.871V23.918H75.566V30.871H77.139ZM81.395 31C82.18 31 82.808 30.717 83.278 30.152L83.356 30.872H84.78V21H83.207V24.56C82.75 24.046 82.15 23.79 81.407 23.79C80.567 23.79 79.895 24.114 79.395 24.763C78.895 25.412 78.644 26.273 78.644 27.343C78.644 28.47 78.897 29.361 79.404 30.017C79.911 30.672 80.574 31 81.394 31H81.395ZM81.796 29.728C81.291 29.728 80.902 29.529 80.628 29.133C80.354 28.737 80.217 28.185 80.217 27.478C80.217 26.673 80.355 26.07 80.631 25.669C80.907 25.269 81.3 25.069 81.809 25.069C82.452 25.069 82.918 25.347 83.207 25.904V28.873C82.909 29.443 82.439 29.728 81.797 29.728H81.796ZM90.909 30.871L91.673 28.693H95.323L96.093 30.871H97.803L94.236 21.514H92.766L89.206 30.871H90.909ZM94.864 27.381H92.133L93.498 23.5L94.864 27.382V27.381ZM100.595 30.871V27.395H102.544C103.635 27.395 104.484 27.14 105.091 26.63C105.697 26.12 106 25.407 106 24.49C106 23.594 105.69 22.874 105.071 22.33C104.451 21.786 103.616 21.514 102.563 21.514H98.958V30.871H100.595ZM102.563 26.09H100.595V22.825H102.608C103.152 22.834 103.579 22.989 103.89 23.291C104.2 23.593 104.356 23.997 104.356 24.503C104.356 25.017 104.203 25.41 103.896 25.682C103.59 25.954 103.146 26.09 102.563 26.09ZM109.155 30.871V27.954L110.223 26.829L113.058 30.871H115L111.298 25.659L114.799 21.514H112.819L110.061 24.792L109.155 25.904V21.514H107.518V30.871H109.155Z" fill="white"/>
<path fill-rule="evenodd" clip-rule="evenodd" d="M31.069 16.587C30.277 16.587 29.637 17.211 29.637 17.98V23.942C29.637 24.712 30.277 25.335 31.069 25.335C31.859 25.335 32.5 24.711 32.5 23.942V17.98C32.5 17.211 31.86 16.587 31.069 16.587ZM12.933 16.587C12.141 16.587 11.5 17.211 11.5 17.98V23.942C11.5 24.712 12.14 25.335 12.933 25.335C13.723 25.335 14.363 24.711 14.363 23.942V17.98C14.363 17.211 13.723 16.587 12.933 16.587ZM15.422 16.587H15.319V26.807C15.319 27.618 15.996 28.279 16.831 28.279H17.921C17.8828 28.4041 17.8636 28.5343 17.864 28.6651V31.607C17.864 32.3771 18.506 33 19.296 33C20.086 33 20.729 32.3771 20.729 31.607V28.6651C20.7284 28.5339 20.7089 28.4036 20.671 28.278H23.33C23.2924 28.4036 23.2733 28.534 23.273 28.6651V31.607C23.273 32.3771 23.914 33 24.704 33C25.496 33 26.138 32.376 26.138 31.607V28.6651C26.1375 28.5338 26.1173 28.4033 26.078 28.278H27.17C28.006 28.278 28.681 27.618 28.681 26.807V16.587H15.421H15.422ZM25.287 11.009L25.554 10.617L25.821 10.23L26.415 9.36105C26.4325 9.33575 26.4447 9.30716 26.4508 9.27702C26.4569 9.24687 26.4568 9.2158 26.4505 9.18568C26.4443 9.15557 26.432 9.12704 26.4143 9.10184C26.3967 9.07663 26.3741 9.05527 26.348 9.03905C26.2955 9.00479 26.2317 8.99241 26.1703 9.00455C26.1088 9.0167 26.0545 9.05241 26.019 9.10405L25.111 10.427L24.839 10.8241C23.931 10.4849 22.9692 10.3128 22 10.316C21.0308 10.3129 20.069 10.485 19.161 10.8241L18.89 10.427L18.622 10.0361L17.984 9.10405C17.9478 9.05241 17.893 9.01679 17.8311 9.00467C17.7692 8.99255 17.705 9.00487 17.652 9.03905C17.6262 9.05556 17.6039 9.07706 17.5866 9.10228C17.5692 9.12751 17.557 9.15596 17.5508 9.18595C17.5445 9.21595 17.5443 9.24689 17.5502 9.27696C17.5561 9.30703 17.5679 9.33562 17.585 9.36105L18.179 10.231L18.446 10.617L18.714 11.009C16.689 11.928 15.319 13.668 15.319 15.659H28.68C28.68 13.668 27.31 11.928 25.286 11.009H25.287ZM19.137 13.8C19.0442 13.8014 18.952 13.7844 18.8657 13.7501C18.7794 13.7158 18.7007 13.6648 18.6341 13.6001C18.5675 13.5353 18.5144 13.4581 18.4776 13.3729C18.4409 13.2876 18.4213 13.1959 18.42 13.103C18.42 12.718 18.74 12.408 19.137 12.408C19.532 12.408 19.853 12.718 19.853 13.103C19.853 13.489 19.533 13.8 19.137 13.8ZM24.864 13.8C24.7712 13.8014 24.679 13.7844 24.5927 13.7501C24.5064 13.7158 24.4277 13.6648 24.3611 13.6001C24.2945 13.5353 24.2414 13.4581 24.2046 13.3729C24.1679 13.2876 24.1483 13.1959 24.147 13.103C24.147 12.718 24.467 12.408 24.864 12.408C25.259 12.408 25.58 12.718 25.58 13.103C25.58 13.489 25.26 13.8 24.864 13.8Z" fill="#95CF00"/>
</svg>
