<svg width="135" height="42" viewBox="0 0 135 42" fill="none" xmlns="http://www.w3.org/2000/svg">
<path d="M131 0H4C1.79086 0 0 1.79086 0 4V38C0 40.2091 1.79086 42 4 42H131C133.209 42 135 40.2091 135 38V4C135 1.79086 133.209 0 131 0Z" fill="black"/>
<path d="M56.808 22.66C59.226 22.66 60.821 24.57 60.821 27.524C60.821 30.484 59.236 32.387 56.844 32.387C56.2382 32.4187 55.6356 32.2792 55.1054 31.9844C54.5752 31.6896 54.1387 31.2514 53.846 30.72H53.8V35.44H51.844V22.759H53.737V24.344H53.773C54.0791 23.8151 54.523 23.3791 55.0572 23.0824C55.5915 22.7857 56.1962 22.6393 56.807 22.659L56.808 22.66ZM67.296 22.66C69.714 22.66 71.308 24.57 71.308 27.524C71.308 30.484 69.723 32.387 67.332 32.387C66.7262 32.4187 66.1236 32.2792 65.5934 31.9844C65.0632 31.6896 64.6267 31.2514 64.334 30.72H64.288V35.44H62.332V22.759H64.226V24.344H64.262C64.5681 23.8151 65.012 23.3791 65.5462 23.0824C66.0805 22.7857 66.6852 22.6393 67.296 22.659V22.66ZM81.338 19C84.1 19 85.993 20.549 86.057 22.804H84.082C83.964 21.5 82.886 20.712 81.31 20.712C79.734 20.712 78.656 21.509 78.656 22.668C78.656 23.592 79.345 24.136 81.029 24.552L82.469 24.906C85.151 25.54 86.265 26.617 86.265 28.529C86.265 30.974 84.317 32.505 81.22 32.505C78.321 32.505 76.364 31.01 76.238 28.646H78.24C78.385 29.942 79.644 30.793 81.365 30.793C83.013 30.793 84.199 29.943 84.199 28.773C84.199 27.759 83.484 27.152 81.79 26.735L80.096 26.327C77.696 25.747 76.582 24.625 76.582 22.804C76.582 20.549 78.547 19 81.338 19ZM97.868 22.642C100.63 22.642 102.388 24.526 102.388 27.524C102.388 30.53 100.639 32.406 97.868 32.406C95.096 32.406 93.348 30.53 93.348 27.524C93.348 24.526 95.114 22.642 97.868 22.642ZM113.706 22.642C116.342 22.642 118 24.452 118 27.342V28.012H111.27V28.13C111.239 28.4807 111.283 28.8341 111.399 29.1666C111.514 29.499 111.7 29.8031 111.942 30.0584C112.185 30.3138 112.479 30.5147 112.805 30.6477C113.131 30.7807 113.481 30.8429 113.833 30.83C114.295 30.8731 114.759 30.7659 115.155 30.5243C115.552 30.2827 115.86 29.9196 116.033 29.489H117.891C117.628 31.219 115.943 32.406 113.788 32.406C111.016 32.406 109.295 30.549 109.295 27.569C109.295 24.58 111.025 22.642 113.705 22.642H113.706ZM90.486 20.504V22.759H92.298V24.308H90.486V29.561C90.486 30.377 90.849 30.757 91.646 30.757C91.861 30.753 92.076 30.738 92.289 30.712V32.252C91.931 32.3187 91.5671 32.3489 91.203 32.342C89.273 32.342 88.521 31.617 88.521 29.769V24.308H87.136V22.758H88.521V20.504H90.486ZM45.911 19.218L50.63 32.288H48.484L47.288 28.755H42.306L41.11 32.288H39L43.719 19.218H45.911ZM108.203 22.659C108.428 22.659 108.653 22.683 108.873 22.732V24.562C108.588 24.4748 108.292 24.4346 107.994 24.443C107.71 24.4313 107.426 24.4813 107.163 24.5896C106.9 24.6979 106.664 24.8619 106.47 25.0703C106.276 25.2787 106.13 25.5265 106.041 25.7968C105.953 26.0671 105.924 26.3534 105.956 26.636V32.288H104V22.758H105.866V24.381H105.911C106.037 23.8744 106.334 23.4267 106.751 23.1131C107.169 22.7995 107.681 22.6392 108.203 22.659ZM97.867 24.253C96.282 24.253 95.341 25.476 95.341 27.523C95.341 29.589 96.282 30.793 97.867 30.793C99.452 30.793 100.395 29.589 100.395 27.523C100.395 25.467 99.452 24.253 97.867 24.253ZM56.292 24.326C54.798 24.326 53.792 25.621 53.792 27.524C53.792 29.444 54.798 30.729 56.292 30.729C57.813 30.729 58.81 29.47 58.81 27.524C58.81 25.594 57.813 24.326 56.292 24.326ZM66.78 24.326C65.285 24.326 64.28 25.621 64.28 27.524C64.28 29.444 65.285 30.729 66.78 30.729C68.301 30.729 69.298 29.47 69.298 27.524C69.298 25.594 68.301 24.326 66.78 24.326ZM44.825 21.392H44.77L42.822 27.125H46.772L44.825 21.392ZM113.705 24.226C113.386 24.2241 113.071 24.2854 112.776 24.4062C112.481 24.5271 112.213 24.7051 111.988 24.93C111.762 25.1549 111.584 25.4222 111.462 25.7166C111.34 26.0109 111.278 26.3265 111.279 26.645H116.043C116.061 26.3297 116.013 26.0141 115.903 25.7181C115.792 25.4221 115.622 25.1521 115.403 24.925C115.184 24.6978 114.919 24.5185 114.627 24.3982C114.335 24.2779 114.022 24.2193 113.706 24.226H113.705ZM106.966 11.692C108.235 11.692 109 12.558 109 13.99V14.304H105.78V14.354C105.766 14.5214 105.787 14.6898 105.842 14.8486C105.897 15.0073 105.984 15.1529 106.099 15.2759C106.213 15.3988 106.352 15.4965 106.506 15.5627C106.661 15.6288 106.827 15.662 106.995 15.66C107.435 15.713 107.864 15.495 108.08 15.107H108.946C108.824 15.524 108.559 15.8849 108.198 16.1262C107.837 16.3676 107.402 16.474 106.97 16.427C106.67 16.4351 106.371 16.3776 106.095 16.2586C105.819 16.1396 105.572 15.962 105.372 15.7379C105.171 15.5139 105.022 15.2489 104.934 14.9614C104.847 14.6739 104.823 14.3707 104.864 14.073C104.824 13.7745 104.849 13.471 104.937 13.1829C105.024 12.8948 105.173 12.6289 105.372 12.4031C105.571 12.1774 105.817 11.9971 106.092 11.8744C106.367 11.7517 106.665 11.6895 106.966 11.692ZM48.373 12.016C48.7146 12.2283 48.9901 12.5317 49.1685 12.8922C49.347 13.2526 49.4213 13.6557 49.383 14.056C49.4127 14.3561 49.3792 14.6591 49.2847 14.9456C49.1902 15.232 49.0368 15.4954 48.8343 15.7189C48.6318 15.9424 48.3848 16.1211 48.1091 16.2433C47.8333 16.3656 47.5351 16.4287 47.2335 16.4287C46.9319 16.4287 46.6337 16.3656 46.3579 16.2433C46.0822 16.1211 45.8352 15.9424 45.6327 15.7189C45.4302 15.4954 45.2768 15.232 45.1823 14.9456C45.0878 14.6591 45.0543 14.3561 45.084 14.056C45.0459 13.6555 45.1204 13.2522 45.2992 12.8918C45.478 12.5313 45.7539 12.228 46.0958 12.0159C46.4377 11.8038 46.8321 11.6914 47.2344 11.6915C47.6368 11.6915 48.0311 11.8039 48.373 12.016ZM68.152 12.016C68.4938 12.2282 68.7695 12.5316 68.9481 12.892C69.1267 13.2524 69.2012 13.6556 69.163 14.056C69.1919 14.3558 69.1579 14.6583 69.063 14.9441C68.9681 15.2299 68.8145 15.4928 68.6121 15.7157C68.4096 15.9387 68.1628 16.1168 67.8874 16.2387C67.612 16.3606 67.3142 16.4236 67.013 16.4236C66.7118 16.4236 66.414 16.3606 66.1386 16.2387C65.8632 16.1168 65.6164 15.9387 65.4139 15.7157C65.2115 15.4928 65.0579 15.2299 64.963 14.9441C64.8681 14.6583 64.8341 14.3558 64.863 14.056C64.8249 13.6555 64.8994 13.2522 65.0782 12.8918C65.257 12.5313 65.5329 12.228 65.8748 12.0159C66.2167 11.8038 66.6111 11.6914 67.0134 11.6915C67.4158 11.6915 67.8101 11.8039 68.152 12.016ZM86.387 12.016C86.7288 12.2282 87.0045 12.5316 87.1831 12.892C87.3617 13.2524 87.4362 13.6556 87.398 14.056C87.4269 14.3558 87.3929 14.6583 87.298 14.9441C87.2031 15.2299 87.0495 15.4928 86.8471 15.7157C86.6446 15.9387 86.3978 16.1168 86.1224 16.2387C85.847 16.3606 85.5492 16.4236 85.248 16.4236C84.9468 16.4236 84.649 16.3606 84.3736 16.2387C84.0982 16.1168 83.8514 15.9387 83.6489 15.7157C83.4465 15.4928 83.2929 15.2299 83.198 14.9441C83.1031 14.6583 83.0691 14.3558 83.098 14.056C83.0599 13.6555 83.1344 13.2522 83.3132 12.8918C83.492 12.5313 83.7679 12.228 84.1098 12.0159C84.4517 11.8038 84.8461 11.6914 85.2484 11.6915C85.6508 11.6915 86.0451 11.8039 86.387 12.016ZM72.149 11.692C73.292 11.692 73.936 12.261 73.936 13.224V16.338H73.07V15.698H73C72.8553 15.9278 72.6523 16.115 72.4116 16.2406C72.1709 16.3662 71.9012 16.4257 71.63 16.413C71.4386 16.433 71.2452 16.4126 71.0621 16.3533C70.8791 16.2939 70.7105 16.1968 70.5673 16.0683C70.4241 15.9398 70.3094 15.7827 70.2306 15.6071C70.1519 15.4315 70.1108 15.2414 70.11 15.049C70.11 14.229 70.721 13.755 71.806 13.689L73.041 13.617V13.224C73.041 12.742 72.722 12.47 72.107 12.47C71.605 12.47 71.257 12.655 71.157 12.977H70.287C70.378 12.194 71.115 11.692 72.149 11.692ZM79.376 10V16.338H78.514V15.618H78.443C78.151 16.128 77.599 16.435 77.011 16.413C75.851 16.413 75.119 15.501 75.119 14.057C75.119 12.617 75.859 11.704 77.011 11.704C77.2959 11.6908 77.5787 11.7591 77.8263 11.9008C78.0739 12.0424 78.276 12.2517 78.409 12.504H78.476V10H79.376ZM97.56 10.645V11.8H98.548V12.558H97.56V14.902C97.56 15.38 97.757 15.589 98.205 15.589C98.32 15.589 98.435 15.582 98.548 15.569V16.317C98.3862 16.3459 98.2223 16.3613 98.058 16.363C97.058 16.363 96.66 16.011 96.66 15.133V12.558H95.936V11.8H96.66V10.645H97.56ZM43.314 11.125C43.864 11.707 44.125 12.505 44.024 13.299C44.024 15.229 42.981 16.339 41.182 16.339H39V10.298H41.182C41.5765 10.2696 41.9724 10.3292 42.3411 10.4724C42.7098 10.6155 43.0421 10.8388 43.314 11.126V11.125ZM50.946 11.78L51.763 15.258H51.83L52.767 11.78H53.63L54.567 15.258H54.638L55.451 11.78H56.351L55.099 16.338H54.166L53.224 12.981H53.153L52.214 16.338H51.29L50.033 11.78H50.946ZM60.898 12.16C61.205 12.49 61.345 12.941 61.279 13.387V16.338H60.379V13.613C60.379 12.88 60.061 12.516 59.396 12.516C59.2454 12.509 59.0951 12.5346 58.9553 12.5911C58.8155 12.6476 58.6896 12.7336 58.5861 12.8433C58.4827 12.953 58.4042 13.0837 58.356 13.2266C58.3078 13.3695 58.2911 13.5211 58.307 13.671V16.338H57.407V11.78H58.274V12.504H58.341C58.575 11.971 59.121 11.644 59.701 11.692C60.151 11.658 60.591 11.83 60.898 12.16ZM63.612 10V16.338H62.712V10H63.612ZM92.095 12.16C92.402 12.49 92.543 12.941 92.477 13.387V16.338H91.577V13.613C91.577 12.88 91.259 12.516 90.593 12.516C90.4425 12.5091 90.2922 12.5348 90.1526 12.5914C90.0129 12.6479 89.8871 12.734 89.7838 12.8437C89.6805 12.9534 89.6021 13.0841 89.554 13.2269C89.5058 13.3697 89.4891 13.5212 89.505 13.671V16.338H88.605V11.78H89.471V12.504H89.538C89.772 11.971 90.318 11.644 90.898 11.692C91.348 11.658 91.788 11.83 92.095 12.16ZM100.67 10V12.512H100.74C100.986 11.974 101.542 11.648 102.13 11.696C102.351 11.684 102.571 11.7209 102.776 11.8039C102.981 11.887 103.164 12.0142 103.314 12.1764C103.464 12.3387 103.577 12.532 103.643 12.7427C103.71 12.9533 103.729 13.176 103.7 13.395V16.338H102.8V13.617C102.8 12.889 102.461 12.52 101.825 12.52C101.67 12.5074 101.515 12.5288 101.369 12.5826C101.224 12.6364 101.092 12.7213 100.983 12.8314C100.874 12.9415 100.79 13.0741 100.737 13.22C100.684 13.3659 100.664 13.5215 100.678 13.676V16.338H99.778V10H100.67ZM73.04 14.278L71.927 14.35C71.299 14.392 71.014 14.605 71.014 15.007C71.014 15.417 71.37 15.657 71.859 15.657C72.0024 15.6714 72.1472 15.6568 72.2849 15.6141C72.4225 15.5715 72.5502 15.5015 72.6602 15.4085C72.7703 15.3155 72.8606 15.2013 72.9257 15.0727C72.9907 14.9441 73.0293 14.8038 73.039 14.66V14.278H73.04ZM85.249 12.491C84.467 12.491 84.027 13.069 84.027 14.057C84.027 15.053 84.467 15.627 85.249 15.627C86.028 15.627 86.472 15.049 86.472 14.057C86.472 13.069 86.028 12.491 85.249 12.491ZM67.013 12.491C66.231 12.491 65.791 13.069 65.791 14.057C65.791 15.053 66.231 15.627 67.013 15.627C67.793 15.627 68.236 15.049 68.236 14.057C68.236 13.069 67.792 12.491 67.013 12.491ZM47.234 12.491C46.452 12.491 46.013 13.069 46.013 14.057C46.013 15.053 46.453 15.627 47.234 15.627C48.014 15.627 48.457 15.049 48.457 14.057C48.457 13.069 48.014 12.491 47.234 12.491ZM77.265 12.512C76.508 12.512 76.047 13.098 76.047 14.057C76.047 15.024 76.503 15.606 77.265 15.606C78.024 15.606 78.492 15.016 78.492 14.061C78.492 13.111 78.019 12.512 77.265 12.512ZM41.076 11.152H39.937V15.484H41.077C41.3588 15.5005 41.6407 15.4541 41.9022 15.348C42.1638 15.2419 42.3984 15.0789 42.5891 14.8708C42.7797 14.6627 42.9217 14.4147 43.0045 14.1449C43.0873 13.8751 43.109 13.5902 43.068 13.311C43.1062 13.0328 43.0824 12.7496 42.9982 12.4816C42.9141 12.2137 42.7717 11.9677 42.5814 11.7613C42.391 11.5548 42.1573 11.3931 41.897 11.2875C41.6368 11.182 41.3564 11.1354 41.076 11.151V11.152ZM106.96 12.457C106.804 12.4551 106.65 12.4844 106.506 12.5431C106.362 12.6018 106.231 12.6887 106.121 12.7988C106.011 12.9088 105.924 13.0398 105.866 13.1839C105.807 13.328 105.778 13.4824 105.78 13.638H108.082C108.093 13.4851 108.072 13.3315 108.021 13.1872C107.969 13.0428 107.888 12.9108 107.782 12.7997C107.676 12.6886 107.549 12.6008 107.407 12.542C107.266 12.4831 107.113 12.4545 106.96 12.458V12.457Z" fill="white"/>
<path fill-rule="evenodd" clip-rule="evenodd" d="M26.215 14.79L26.507 14.809C28.267 14.864 29.897 15.745 30.906 17.187C30.1223 17.6688 29.4733 18.341 29.0192 19.1411C28.5651 19.9412 28.3208 20.8431 28.309 21.763C28.3099 22.7978 28.6155 23.8095 29.1876 24.6718C29.7596 25.5341 30.5729 26.2089 31.526 26.612C31.1511 27.8291 30.5861 28.9793 29.852 30.02C28.867 31.495 27.833 32.935 26.192 32.962C24.599 32.999 24.063 32.024 22.235 32.024C20.39 32.024 19.819 32.935 18.29 32.999C16.728 33.056 15.534 31.425 14.512 29.964C12.471 26.981 10.881 21.557 13.012 17.867C13.504 16.9826 14.2167 16.2408 15.0807 15.7138C15.9447 15.1868 16.9305 14.8927 17.942 14.86C19.506 14.828 20.958 15.916 21.919 15.916C22.862 15.916 24.656 14.615 26.507 14.809L26.215 14.79ZM26.526 9C26.6328 10.3933 26.1923 11.7733 25.298 12.847C24.8698 13.3797 24.3263 13.8083 23.7084 14.1005C23.0905 14.3927 22.4144 14.5409 21.731 14.534C21.6873 13.8639 21.7761 13.1918 21.9923 12.5561C22.2085 11.9204 22.5478 11.3335 22.991 10.829C23.8975 9.79659 25.1596 9.14356 26.526 9Z" fill="white"/>
</svg>
