<svg width="10" height="12" viewBox="0 0 10 12" fill="none" xmlns="http://www.w3.org/2000/svg">
<path d="M9.16642 5.16666H2.84142L5.59142 2.42499C5.74834 2.26807 5.83649 2.05524 5.83649 1.83333C5.83649 1.61141 5.74834 1.39858 5.59142 1.24166C5.4345 1.08474 5.22167 0.996582 4.99975 0.996582C4.77783 0.996582 4.565 1.08474 4.40808 1.24166L0.241418 5.40833C0.16555 5.48758 0.106079 5.58103 0.0664175 5.68333C-0.0169308 5.88621 -0.0169308 6.11377 0.0664175 6.31666C0.106079 6.41895 0.16555 6.51241 0.241418 6.59166L4.40808 10.7583C4.48555 10.8364 4.57772 10.8984 4.67927 10.9407C4.78082 10.983 4.88974 11.0048 4.99975 11.0048C5.10976 11.0048 5.21868 10.983 5.32023 10.9407C5.42178 10.8984 5.51395 10.8364 5.59142 10.7583C5.66952 10.6809 5.73152 10.5887 5.77383 10.4871C5.81613 10.3856 5.83792 10.2767 5.83792 10.1667C5.83792 10.0566 5.81613 9.94773 5.77383 9.84618C5.73152 9.74463 5.66952 9.65246 5.59142 9.57499L2.84142 6.83333H9.16642C9.38743 6.83333 9.59939 6.74553 9.75567 6.58925C9.91195 6.43297 9.99975 6.22101 9.99975 5.99999C9.99975 5.77898 9.91195 5.56702 9.75567 5.41074C9.59939 5.25446 9.38743 5.16666 9.16642 5.16666Z" fill="white"/>
</svg>
