<svg width="14" height="17" viewBox="0 0 14 17" fill="none" xmlns="http://www.w3.org/2000/svg">
<path d="M7.25833 3.575C7.17908 3.49913 7.08563 3.43966 6.98333 3.4C6.78045 3.31665 6.55288 3.31665 6.35 3.4C6.24771 3.43966 6.15425 3.49913 6.075 3.575L2.74167 6.90833C2.66397 6.98603 2.60233 7.07827 2.56028 7.17979C2.51823 7.28131 2.49659 7.39012 2.49659 7.5C2.49659 7.60988 2.51823 7.71869 2.56028 7.82021C2.60233 7.92173 2.66397 8.01397 2.74167 8.09167C2.81937 8.16937 2.91161 8.231 3.01313 8.27305C3.11464 8.3151 3.22345 8.33674 3.33333 8.33674C3.44322 8.33674 3.55202 8.3151 3.65354 8.27305C3.75506 8.231 3.8473 8.16937 3.925 8.09167L5.83333 6.175L5.83333 15.8333C5.83333 16.0543 5.92113 16.2663 6.07741 16.4226C6.23369 16.5789 6.44565 16.6667 6.66667 16.6667C6.88768 16.6667 7.09964 16.5789 7.25592 16.4226C7.4122 16.2663 7.5 16.0543 7.5 15.8333L7.5 6.175L9.40833 8.09167C9.4858 8.16977 9.57797 8.23177 9.67952 8.27408C9.78107 8.31638 9.88999 8.33817 10 8.33817C10.11 8.33817 10.2189 8.31638 10.3205 8.27408C10.422 8.23177 10.5142 8.16977 10.5917 8.09167C10.6698 8.0142 10.7318 7.92203 10.7741 7.82048C10.8164 7.71893 10.8382 7.61001 10.8382 7.5C10.8382 7.38999 10.8164 7.28107 10.7741 7.17952C10.7318 7.07797 10.6698 6.9858 10.5917 6.90833L7.25833 3.575ZM12.5 0L0.833333 0C0.61232 0 0.400358 0.0877973 0.244078 0.244078C0.0877975 0.400358 0 0.61232 0 0.833333C0 1.05435 0.0877975 1.26631 0.244078 1.42259C0.400358 1.57887 0.61232 1.66667 0.833333 1.66667L12.5 1.66667C12.721 1.66667 12.933 1.57887 13.0893 1.42259C13.2455 1.26631 13.3333 1.05435 13.3333 0.833333C13.3333 0.61232 13.2455 0.400358 13.0893 0.244078C12.933 0.0877973 12.721 0 12.5 0Z" fill="white"/>
</svg>
