<svg width="28" height="34" viewBox="0 0 28 34" fill="none" xmlns="http://www.w3.org/2000/svg">
<path d="M25.668 30.3333H2.33464C1.89261 30.3333 1.46868 30.5089 1.15612 30.8215C0.843564 31.134 0.667969 31.558 0.667969 32C0.667969 32.442 0.843564 32.866 1.15612 33.1785C1.46868 33.4911 1.89261 33.6667 2.33464 33.6667H25.668C26.11 33.6667 26.5339 33.4911 26.8465 33.1785C27.159 32.866 27.3346 32.442 27.3346 32C27.3346 31.558 27.159 31.134 26.8465 30.8215C26.5339 30.5089 26.11 30.3333 25.668 30.3333ZM8.51797 9.85L12.3346 6.01667V25.3333C12.3346 25.7754 12.5102 26.1993 12.8228 26.5118C13.1353 26.8244 13.5593 27 14.0013 27C14.4433 27 14.8673 26.8244 15.1798 26.5118C15.4924 26.1993 15.668 25.7754 15.668 25.3333V6.01667L19.4846 9.85C19.6396 10.0062 19.8239 10.1302 20.027 10.2148C20.2301 10.2994 20.4479 10.343 20.668 10.343C20.888 10.343 21.1058 10.2994 21.3089 10.2148C21.512 10.1302 21.6964 10.0062 21.8513 9.85C22.0075 9.69506 22.1315 9.51073 22.2161 9.30763C22.3007 9.10453 22.3443 8.88669 22.3443 8.66667C22.3443 8.44665 22.3007 8.2288 22.2161 8.02571C22.1315 7.82261 22.0075 7.63827 21.8513 7.48333L15.1846 0.816667C15.0261 0.664932 14.8392 0.545991 14.6346 0.466667C14.2289 0.29997 13.7737 0.29997 13.368 0.466667C13.1634 0.545991 12.9765 0.664932 12.818 0.816667L6.1513 7.48333C5.9959 7.63873 5.87264 7.82322 5.78854 8.02625C5.70443 8.22929 5.66115 8.4469 5.66115 8.66667C5.66115 8.88643 5.70443 9.10405 5.78854 9.30708C5.87264 9.51012 5.9959 9.6946 6.1513 9.85C6.3067 10.0054 6.49118 10.1287 6.69422 10.2128C6.89726 10.2969 7.11487 10.3402 7.33463 10.3402C7.5544 10.3402 7.77201 10.2969 7.97505 10.2128C8.17809 10.1287 8.36257 10.0054 8.51797 9.85Z" fill="#F1A132"/>
</svg>
