<svg width="20" height="20" viewBox="0 0 20 20" fill="none" xmlns="http://www.w3.org/2000/svg">
<path d="M15.8335 16.6667H4.16683C3.94582 16.6667 3.73385 16.7545 3.57757 16.9107C3.42129 17.067 3.3335 17.279 3.3335 17.5C3.3335 17.721 3.42129 17.933 3.57757 18.0893C3.73385 18.2455 3.94582 18.3333 4.16683 18.3333H15.8335C16.0545 18.3333 16.2665 18.2455 16.4228 18.0893C16.579 17.933 16.6668 17.721 16.6668 17.5C16.6668 17.279 16.579 17.067 16.4228 16.9107C16.2665 16.7545 16.0545 16.6667 15.8335 16.6667ZM7.2585 6.425L9.16683 4.50833V14.1667C9.16683 14.3877 9.25463 14.5996 9.41091 14.7559C9.56719 14.9122 9.77915 15 10.0002 15C10.2212 15 10.4331 14.9122 10.5894 14.7559C10.7457 14.5996 10.8335 14.3877 10.8335 14.1667V4.50833L12.7418 6.425C12.8193 6.50311 12.9115 6.5651 13.013 6.60741C13.1146 6.64972 13.2235 6.6715 13.3335 6.6715C13.4435 6.6715 13.5524 6.64972 13.654 6.60741C13.7555 6.5651 13.8477 6.50311 13.9252 6.425C14.0033 6.34753 14.0653 6.25536 14.1076 6.15381C14.1499 6.05226 14.1717 5.94334 14.1717 5.83333C14.1717 5.72332 14.1499 5.6144 14.1076 5.51285C14.0653 5.4113 14.0033 5.31914 13.9252 5.24167L10.5918 1.90833C10.5126 1.83247 10.4191 1.773 10.3168 1.73333C10.1139 1.64999 9.88638 1.64999 9.6835 1.73333C9.5812 1.773 9.48775 1.83247 9.4085 1.90833L6.07516 5.24167C5.99746 5.31937 5.93583 5.41161 5.89378 5.51313C5.85173 5.61464 5.83009 5.72345 5.83009 5.83333C5.83009 5.94322 5.85173 6.05202 5.89378 6.15354C5.93583 6.25506 5.99746 6.3473 6.07516 6.425C6.15286 6.5027 6.2451 6.56433 6.34662 6.60638C6.44814 6.64843 6.55695 6.67008 6.66683 6.67008C6.77671 6.67008 6.88552 6.64843 6.98704 6.60638C7.08856 6.56433 7.1808 6.5027 7.2585 6.425Z" fill="white"/>
</svg>
