<svg width="60" height="60" viewBox="0 0 60 60" fill="none" xmlns="http://www.w3.org/2000/svg">
<path d="M22.7071 25.625H29.9987C30.7723 25.625 31.5141 25.3177 32.0611 24.7707C32.6081 24.2238 32.9154 23.4819 32.9154 22.7083C32.9154 21.9348 32.6081 21.1929 32.0611 20.6459C31.5141 20.099 30.7723 19.7917 29.9987 19.7917H27.0821V18.3333C27.0821 17.5598 26.7748 16.8179 26.2278 16.2709C25.6808 15.724 24.9389 15.4167 24.1654 15.4167C23.3918 15.4167 22.65 15.724 22.103 16.2709C21.556 16.8179 21.2487 17.5598 21.2487 18.3333V19.9375C19.4766 20.2973 17.9014 21.3028 16.829 22.7587C15.7565 24.2146 15.2632 26.017 15.445 27.8161C15.6267 29.6153 16.4704 31.2827 17.8124 32.4947C19.1544 33.7067 20.8988 34.3768 22.7071 34.375H25.6237C26.0105 34.375 26.3814 34.5286 26.6549 34.8021C26.9284 35.0756 27.0821 35.4466 27.0821 35.8333C27.0821 36.2201 26.9284 36.591 26.6549 36.8645C26.3814 37.138 26.0105 37.2917 25.6237 37.2917H18.3321C17.5585 37.2917 16.8166 37.599 16.2697 38.1459C15.7227 38.6929 15.4154 39.4348 15.4154 40.2083C15.4154 40.9819 15.7227 41.7238 16.2697 42.2707C16.8166 42.8177 17.5585 43.125 18.3321 43.125H21.2487V44.5833C21.2487 45.3569 21.556 46.0988 22.103 46.6457C22.65 47.1927 23.3918 47.5 24.1654 47.5C24.9389 47.5 25.6808 47.1927 26.2278 46.6457C26.7748 46.0988 27.0821 45.3569 27.0821 44.5833V42.9792C28.8542 42.6193 30.4293 41.6139 31.5018 40.158C32.5743 38.7021 33.0675 36.8996 32.8858 35.1005C32.7041 33.3014 31.8603 31.634 30.5184 30.422C29.1764 29.21 27.432 28.5399 25.6237 28.5417H22.7071C22.3203 28.5417 21.9493 28.388 21.6759 28.1145C21.4024 27.841 21.2487 27.4701 21.2487 27.0833C21.2487 26.6966 21.4024 26.3256 21.6759 26.0521C21.9493 25.7787 22.3203 25.625 22.7071 25.625ZM56.2487 30H47.4987V3.75001C47.5008 3.23606 47.367 2.7307 47.1109 2.2851C46.8548 1.8395 46.4855 1.46948 46.0404 1.21251C45.597 0.956515 45.094 0.821747 44.5821 0.821747C44.0701 0.821747 43.5671 0.956515 43.1237 1.21251L34.3737 6.22917L25.6237 1.21251C25.1803 0.956515 24.6774 0.821747 24.1654 0.821747C23.6534 0.821747 23.1504 0.956515 22.7071 1.21251L13.9571 6.22917L5.20705 1.21251C4.76366 0.956515 4.2607 0.821747 3.74872 0.821747C3.23674 0.821747 2.73378 0.956515 2.29039 1.21251C1.84529 1.46948 1.476 1.8395 1.21991 2.2851C0.963814 2.7307 0.830014 3.23606 0.832054 3.75001V50.4167C0.832054 52.7373 1.75393 54.9629 3.39487 56.6039C5.03581 58.2448 7.26141 59.1667 9.58205 59.1667H50.4154C52.736 59.1667 54.9616 58.2448 56.6026 56.6039C58.2435 54.9629 59.1654 52.7373 59.1654 50.4167V32.9167C59.1654 32.1431 58.8581 31.4013 58.3111 30.8543C57.7641 30.3073 57.0223 30 56.2487 30ZM9.58205 53.3333C8.80851 53.3333 8.06664 53.0261 7.51966 52.4791C6.97268 51.9321 6.66539 51.1902 6.66539 50.4167V8.79584L12.4987 12.1208C12.9489 12.356 13.4492 12.4787 13.9571 12.4787C14.4649 12.4787 14.9652 12.356 15.4154 12.1208L24.1654 7.10417L32.9154 12.1208C33.3655 12.356 33.8659 12.4787 34.3737 12.4787C34.8816 12.4787 35.3819 12.356 35.8321 12.1208L41.6654 8.79584V50.4167C41.6733 51.4117 41.8508 52.398 42.1904 53.3333H9.58205ZM53.3321 50.4167C53.3321 51.1902 53.0248 51.9321 52.4778 52.4791C51.9308 53.0261 51.1889 53.3333 50.4154 53.3333C49.6418 53.3333 48.9 53.0261 48.353 52.4791C47.806 51.9321 47.4987 51.1902 47.4987 50.4167V35.8333H53.3321V50.4167Z" fill="#F1A132"/>
</svg>
