<svg width="39" height="39" viewBox="0 0 39 39" fill="none" xmlns="http://www.w3.org/2000/svg">
<g clip-path="url(#clip0_797_65)">
<path d="M38.4166 24.2158C35.8113 34.6678 25.2217 41.0214 14.7846 38.4159C4.33233 35.8105 -2.02132 25.2214 0.584217 14.7845C3.1896 4.33248 13.7638 -2.02116 24.2161 0.584371C34.6531 3.17452 41.0222 13.7636 38.4166 24.2158Z" fill="url(#paint0_linear_797_65)"/>
<path d="M28.7844 17.0701C29.1652 14.4803 27.2 13.0787 24.4883 12.1494L25.3719 8.63029L23.2391 8.09709L22.3859 11.5248C21.8223 11.3877 21.2434 11.2506 20.6645 11.1287L21.5176 7.68576L19.3848 7.15256L18.5164 10.6565C18.0441 10.5498 17.5871 10.4432 17.1453 10.3365V10.3213L14.1898 9.59006L13.6262 11.8752C13.6262 11.8752 15.2105 12.2408 15.1801 12.2561C16.0484 12.4694 16.2008 13.0483 16.1703 13.5053L15.1648 17.5119C15.2258 17.5272 15.302 17.5424 15.3934 17.5881C15.3172 17.5729 15.241 17.5576 15.1648 17.5272L13.7633 23.1334C13.6566 23.3924 13.3824 23.7885 12.7883 23.6361C12.8035 23.6666 11.2344 23.2553 11.2344 23.2553L10.168 25.708L12.9559 26.4088C13.4738 26.5459 13.9766 26.6678 14.4793 26.8049L13.5957 30.3545L15.7285 30.8877L16.6121 27.3686C17.191 27.5209 17.7699 27.6733 18.3184 27.8104L17.45 31.3143L19.5828 31.8475L20.4664 28.2979C24.1227 28.9834 26.8648 28.7092 28.0074 25.4033C28.9367 22.7526 27.9617 21.2139 26.0422 20.2084C27.459 19.8885 28.5102 18.9592 28.7844 17.0701ZM23.8941 23.9256C23.2391 26.5764 18.7602 25.1444 17.3129 24.7787L18.4859 20.0713C19.9332 20.4369 24.5949 21.1529 23.8941 23.9256ZM24.5645 17.0244C23.9551 19.4467 20.2379 18.2127 19.0344 17.908L20.1008 13.6424C21.3043 13.9471 25.1891 14.5108 24.5645 17.0244Z" fill="white"/>
</g>
<defs>
<linearGradient id="paint0_linear_797_65" x1="19.4895" y1="-0.0092074" x2="19.4895" y2="38.9962" gradientUnits="userSpaceOnUse">
<stop stop-color="#F9AA4B"/>
<stop offset="1" stop-color="#F7931A"/>
</linearGradient>
<clipPath id="clip0_797_65">
<rect width="39" height="39" fill="white"/>
</clipPath>
</defs>
</svg>
