<svg width="382" height="382" viewBox="0 0 382 382" fill="none" xmlns="http://www.w3.org/2000/svg">
<circle cx="191.5" cy="192.5" r="168" stroke="white" stroke-opacity="0.15"/>
<circle cx="191" cy="191" r="190.5" stroke="white" stroke-opacity="0.05" stroke-dasharray="5 5"/>
<circle cx="191" cy="191" r="118.5" stroke="white" stroke-opacity="0.05"/>
<circle cx="191" cy="191" r="143.5" stroke="white" stroke-opacity="0.1"/>
<path d="M238.759 178.594C240.698 165.904 230.695 159.037 216.892 154.484L221.389 137.241L210.533 134.628L206.191 151.423C203.322 150.751 200.375 150.08 197.428 149.482L201.771 132.613L190.914 130L186.494 147.168C184.091 146.646 181.764 146.123 179.515 145.601V145.526L164.472 141.943L161.603 153.14C161.603 153.14 169.667 154.932 169.512 155.006C173.932 156.051 174.708 158.888 174.553 161.127L169.435 180.759C169.745 180.833 170.133 180.908 170.598 181.132C170.21 181.057 169.822 180.983 169.435 180.833L162.301 208.303C161.758 209.572 160.362 211.513 157.338 210.766C157.415 210.915 149.428 208.9 149.428 208.9L144 220.918L158.191 224.352C160.827 225.023 163.386 225.621 165.945 226.292L161.448 243.685L172.304 246.297L176.801 229.054C179.748 229.801 182.695 230.547 185.486 231.219L181.066 248.387L191.923 251L196.42 233.608C215.031 236.967 228.989 235.623 234.805 219.425C239.535 206.437 234.572 198.898 224.801 193.971C232.013 192.403 237.364 187.85 238.759 178.594ZM213.868 212.184C210.533 225.173 187.735 218.156 180.368 216.365L186.339 193.299C193.706 195.091 217.435 198.599 213.868 212.184ZM217.28 178.37C214.178 190.239 195.257 184.192 189.131 182.7L194.559 161.799C200.685 163.292 220.459 166.054 217.28 178.37Z" fill="#F1A132"/>
</svg>
