<svg width="20" height="20" viewBox="0 0 20 20" fill="none" xmlns="http://www.w3.org/2000/svg">
<path d="M9.136 10.117L8.54 12.532C9.276 12.717 11.544 13.453 11.88 12.091C12.23 10.67 9.871 10.302 9.136 10.117V10.117ZM9.94901 6.82L9.40901 9.011C10.021 9.165 11.909 9.795 12.215 8.556C12.533 7.263 10.561 6.975 9.94901 6.82V6.82ZM10 0C8.02219 0 6.08879 0.58649 4.4443 1.6853C2.79981 2.78412 1.51809 4.3459 0.761209 6.17317C0.00433284 8.00043 -0.193701 10.0111 0.192152 11.9509C0.578004 13.8907 1.53041 15.6725 2.92894 17.0711C4.32746 18.4696 6.10929 19.422 8.0491 19.8079C9.98891 20.1937 11.9996 19.9957 13.8268 19.2388C15.6541 18.4819 17.2159 17.2002 18.3147 15.5557C19.4135 13.9112 20 11.9778 20 10C20 8.68678 19.7413 7.38642 19.2388 6.17317C18.7363 4.95991 17.9997 3.85752 17.0711 2.92893C16.1425 2.00035 15.0401 1.26375 13.8268 0.761205C12.6136 0.258658 11.3132 0 10 0V0ZM14.358 8.575C14.337 8.95863 14.1898 9.32456 13.9393 9.6159C13.6889 9.90724 13.3491 10.1077 12.973 10.186C13.2203 10.2867 13.444 10.4374 13.6301 10.6289C13.8162 10.8203 13.9606 11.0481 14.0543 11.2981C14.148 11.5481 14.1888 11.8148 14.1743 12.0814C14.1598 12.348 14.0903 12.6086 13.97 12.847C13.384 14.539 11.993 14.682 10.143 14.328L9.69401 16.148L8.609 15.874L9.052 14.079C8.772 14.009 8.484 13.934 8.188 13.852L7.743 15.656L6.659 15.383L7.109 13.559C6.855 13.494 6.598 13.424 6.335 13.358L4.923 13.002L5.462 11.746C5.462 11.746 6.262 11.961 6.25 11.945C6.29976 11.9611 6.35222 11.9671 6.40432 11.9627C6.45643 11.9583 6.50713 11.9435 6.55348 11.9193C6.59983 11.8951 6.64091 11.862 6.6743 11.8217C6.7077 11.7815 6.73275 11.735 6.748 11.685L7.965 6.746C7.9806 6.59481 7.93654 6.44351 7.84221 6.32433C7.74788 6.20516 7.61074 6.12753 7.46 6.108C7.476 6.097 6.671 5.91 6.671 5.91L6.961 4.738L8.45601 5.116L8.455 5.122C8.68 5.178 8.912 5.232 9.148 5.286L9.592 3.484L10.677 3.758L10.241 5.524C10.532 5.592 10.825 5.659 11.111 5.731L11.543 3.976L12.628 4.25L12.183 6.052C13.553 6.529 14.555 7.245 14.358 8.575V8.575Z" fill="#F1A132"/>
</svg>
