<svg width="29" height="37" viewBox="0 0 29 37" fill="none" xmlns="http://www.w3.org/2000/svg">
<path d="M28.9266 14.8593C29.5183 10.979 26.4647 8.87909 22.2512 7.48674L23.6241 2.21407L20.3101 1.41518L18.9845 6.55089C18.1087 6.34547 17.2092 6.14004 16.3097 5.95743L17.6353 0.79889L14.3213 0L12.972 5.24984C12.2382 5.09007 11.528 4.93029 10.8415 4.77051V4.74769L6.24927 3.65207L5.37343 7.07588C5.37343 7.07588 7.83526 7.62369 7.78792 7.64651C9.13719 7.96607 9.37391 8.83344 9.32657 9.5182L7.76425 15.5213C7.85893 15.5441 7.97729 15.5669 8.11932 15.6354C8.00096 15.6126 7.8826 15.5898 7.76425 15.5441L5.58647 23.9439C5.42077 24.3319 4.99468 24.9254 4.0715 24.6971C4.09517 24.7428 1.657 24.1265 1.657 24.1265L0 27.8014L4.33188 28.8513C5.13671 29.0568 5.91787 29.2394 6.69903 29.4448L5.32609 34.7631L8.64009 35.562L10.013 30.2893C10.9126 30.5176 11.8121 30.7458 12.6642 30.9513L11.315 36.2011L14.629 37L16.0019 31.6817C21.6831 32.7088 25.944 32.298 27.7193 27.3448C29.1633 23.3732 27.6483 21.0679 24.6657 19.5614C26.8671 19.082 28.5005 17.6897 28.9266 14.8593V14.8593ZM21.328 25.1308C20.3101 29.1024 13.3507 26.9568 11.1019 26.409L12.9246 19.356C15.1734 19.9038 22.4169 20.9766 21.328 25.1308ZM22.3696 14.7909C21.4227 18.4201 15.6469 16.5713 13.7768 16.1147L15.4338 9.72363C17.3039 10.1801 23.3401 11.0247 22.3696 14.7909Z" fill="#F1A132"/>
</svg>
