<svg width="33" height="33" viewBox="0 0 33 33" fill="none" xmlns="http://www.w3.org/2000/svg">
<g clip-path="url(#clip0_808_271)">
<path d="M32.5064 20.4903C30.3018 29.3343 21.3414 34.7104 12.5101 32.5057C3.66582 30.3012 -1.71035 21.3412 0.494338 12.5099C2.69889 3.66595 11.6463 -1.71021 20.4905 0.494468C29.3219 2.68613 34.7111 11.6461 32.5064 20.4903Z" fill="white"/>
<path d="M24.3559 14.4439C24.6781 12.2525 23.0152 11.0666 20.7207 10.2803L21.4684 7.30254L19.6637 6.85137L18.9418 9.75176C18.4648 9.63574 17.975 9.51972 17.4852 9.4166L18.207 6.50332L16.4023 6.05215L15.6676 9.01699C15.268 8.92676 14.8812 8.83652 14.5074 8.74629V8.7334L12.0066 8.11465L11.5297 10.0482C11.5297 10.0482 12.8703 10.3576 12.8445 10.3705C13.5793 10.551 13.7082 11.0408 13.6824 11.4275L12.8316 14.8178C12.8832 14.8307 12.9477 14.8436 13.025 14.8822C12.9605 14.8693 12.8961 14.8564 12.8316 14.8307L11.6457 19.5744C11.5555 19.7936 11.3234 20.1287 10.8207 19.9998C10.8336 20.0256 9.50586 19.6775 9.50586 19.6775L8.60352 21.7529L10.9625 22.3459C11.4008 22.4619 11.8262 22.565 12.2516 22.6811L11.5039 25.6846L13.3086 26.1357L14.0562 23.158C14.5461 23.2869 15.0359 23.4158 15.5 23.5318L14.7652 26.4967L16.5699 26.9478L17.3176 23.9443C20.4113 24.5244 22.7316 24.2924 23.6984 21.4951C24.4848 19.2521 23.6598 17.9502 22.0355 17.0994C23.2344 16.8287 24.1238 16.0424 24.3559 14.4439ZM20.218 20.2447C19.6637 22.4877 15.8738 21.276 14.6492 20.9666L15.6418 16.9834C16.8664 17.2928 20.8109 17.8986 20.218 20.2447ZM20.7852 14.4053C20.2695 16.4549 17.1242 15.4107 16.1059 15.1529L17.0082 11.5436C18.0266 11.8014 21.3137 12.2783 20.7852 14.4053Z" fill="#F1A132"/>
</g>
<defs>
<clipPath id="clip0_808_271">
<rect width="33" height="33" fill="white"/>
</clipPath>
</defs>
</svg>
