<svg width="18" height="12" viewBox="0 0 18 12" fill="none" xmlns="http://www.w3.org/2000/svg">
<path d="M17.0915 3.74167L13.7581 0.408334C13.6804 0.330635 13.5882 0.269001 13.4867 0.226951C13.3851 0.184901 13.2763 0.163258 13.1665 0.163258C12.9445 0.163258 12.7317 0.251414 12.5748 0.408334C12.4179 0.565254 12.3297 0.778083 12.3297 1C12.3297 1.22192 12.4179 1.43475 12.5748 1.59167L14.4915 3.5H4.83312C4.61211 3.5 4.40015 3.5878 4.24387 3.74408C4.08759 3.90036 3.99979 4.11232 3.99979 4.33333C3.99979 4.55435 4.08759 4.76631 4.24387 4.92259C4.40015 5.07887 4.61211 5.16667 4.83312 5.16667H16.4998C16.6643 5.16585 16.8249 5.11634 16.9613 5.0244C17.0978 4.93246 17.2039 4.80218 17.2665 4.65C17.3303 4.49824 17.3477 4.33098 17.3166 4.16932C17.2854 4.00766 17.2071 3.85885 17.0915 3.74167ZM13.1665 6.83333H1.49979C1.33527 6.83415 1.17467 6.88366 1.03824 6.9756C0.901806 7.06755 0.795641 7.19782 0.733124 7.35C0.669308 7.50176 0.651872 7.66902 0.683017 7.83068C0.714162 7.99234 0.792493 8.14115 0.908124 8.25833L4.24146 11.5917C4.31893 11.6698 4.41109 11.7318 4.51264 11.7741C4.61419 11.8164 4.72311 11.8382 4.83312 11.8382C4.94313 11.8382 5.05206 11.8164 5.1536 11.7741C5.25515 11.7318 5.34732 11.6698 5.42479 11.5917C5.5029 11.5142 5.56489 11.422 5.6072 11.3205C5.64951 11.2189 5.67129 11.11 5.67129 11C5.67129 10.89 5.64951 10.7811 5.6072 10.6795C5.56489 10.578 5.5029 10.4858 5.42479 10.4083L3.50812 8.5H13.1665C13.3875 8.5 13.5994 8.4122 13.7557 8.25592C13.912 8.09964 13.9998 7.88768 13.9998 7.66667C13.9998 7.44565 13.912 7.23369 13.7557 7.07741C13.5994 6.92113 13.3875 6.83333 13.1665 6.83333Z" fill="white"/>
</svg>
