<svg width="20" height="16" viewBox="0 0 20 16" fill="none" xmlns="http://www.w3.org/2000/svg">
<path d="M19.71 5.29L15.71 1.29C15.6168 1.19676 15.5061 1.1228 15.3843 1.07234C15.2624 1.02188 15.1319 0.995911 15 0.995911C14.7337 0.995911 14.4783 1.1017 14.29 1.29C14.1017 1.47831 13.9959 1.7337 13.9959 2C13.9959 2.2663 14.1017 2.5217 14.29 2.71L16.59 5H5.00002C4.7348 5 4.48045 5.10536 4.29291 5.2929C4.10537 5.48043 4.00002 5.73479 4.00002 6C4.00002 6.26522 4.10537 6.51957 4.29291 6.70711C4.48045 6.89465 4.7348 7 5.00002 7H19C19.1974 6.99902 19.3902 6.93961 19.5539 6.82928C19.7176 6.71895 19.845 6.56262 19.92 6.38C19.9966 6.19789 20.0175 5.99718 19.9801 5.80319C19.9428 5.6092 19.8488 5.43063 19.71 5.29ZM15 9H1.00002C0.802592 9.00099 0.609876 9.06039 0.446156 9.17072C0.282435 9.28106 0.155037 9.43738 0.0800174 9.62C0.00343795 9.80211 -0.0174847 10.0028 0.0198894 10.1968C0.0572635 10.3908 0.15126 10.5694 0.290017 10.71L4.29002 14.71C4.38298 14.8037 4.49358 14.8781 4.61544 14.9289C4.7373 14.9797 4.86801 15.0058 5.00002 15.0058C5.13203 15.0058 5.26274 14.9797 5.38459 14.9289C5.50645 14.8781 5.61705 14.8037 5.71002 14.71C5.80375 14.617 5.87814 14.5064 5.92891 14.3846C5.97968 14.2627 6.00582 14.132 6.00582 14C6.00582 13.868 5.97968 13.7373 5.92891 13.6154C5.87814 13.4936 5.80375 13.383 5.71002 13.29L3.41002 11H15C15.2652 11 15.5196 10.8946 15.7071 10.7071C15.8947 10.5196 16 10.2652 16 10C16 9.73479 15.8947 9.48043 15.7071 9.2929C15.5196 9.10536 15.2652 9 15 9Z" fill="black"/>
</svg>
