<svg width="471" height="243" viewBox="0 0 471 243" fill="none" xmlns="http://www.w3.org/2000/svg">
<path d="M7.71484 168.119C9.64098 168.119 10.7489 166.487 10.7489 163.636C10.7489 160.807 9.62393 159.153 7.71484 159.153C5.80575 159.153 4.68075 160.807 4.68075 163.636C4.68075 166.487 5.78871 168.119 7.71484 168.119ZM7.71484 167.182C6.44496 167.182 5.70348 165.908 5.70348 163.636C5.70348 161.369 6.45348 160.074 7.71484 160.074C8.97621 160.074 9.72621 161.369 9.72621 163.636C9.72621 165.908 8.98473 167.182 7.71484 167.182ZM12.8136 168.068C13.2354 168.068 13.5806 167.723 13.5806 167.301C13.5806 166.879 13.2354 166.534 12.8136 166.534C12.3917 166.534 12.0465 166.879 12.0465 167.301C12.0465 167.723 12.3917 168.068 12.8136 168.068ZM17.3935 159.273H16.3366L14.1548 160.722V161.795L16.2855 160.381H16.3366V168H17.3935V159.273Z" fill="#969696"/>
<path d="M15.25 220.119C17.1761 220.119 18.2841 218.487 18.2841 215.636C18.2841 212.807 17.1591 211.153 15.25 211.153C13.3409 211.153 12.2159 212.807 12.2159 215.636C12.2159 218.487 13.3239 220.119 15.25 220.119ZM15.25 219.182C13.9801 219.182 13.2386 217.908 13.2386 215.636C13.2386 213.369 13.9886 212.074 15.25 212.074C16.5114 212.074 17.2614 213.369 17.2614 215.636C17.2614 217.908 16.5199 219.182 15.25 219.182Z" fill="#969696"/>
<path d="M4.98438 116.119C6.91051 116.119 8.01847 114.487 8.01847 111.636C8.01847 108.807 6.89347 107.153 4.98438 107.153C3.07528 107.153 1.95028 108.807 1.95028 111.636C1.95028 114.487 3.05824 116.119 4.98438 116.119ZM4.98438 115.182C3.71449 115.182 2.97301 113.908 2.97301 111.636C2.97301 109.369 3.72301 108.074 4.98438 108.074C6.24574 108.074 6.99574 109.369 6.99574 111.636C6.99574 113.908 6.25426 115.182 4.98438 115.182ZM10.0831 116.068C10.505 116.068 10.8501 115.723 10.8501 115.301C10.8501 114.879 10.505 114.534 10.0831 114.534C9.66122 114.534 9.31605 114.879 9.31605 115.301C9.31605 115.723 9.66122 116.068 10.0831 116.068ZM12.6378 116H18.1435V115.062H14.0866V114.994L16.0469 112.898C17.5469 111.291 17.9901 110.541 17.9901 109.574C17.9901 108.227 16.8991 107.153 15.3651 107.153C13.8352 107.153 12.6719 108.193 12.6719 109.727H13.6776C13.6776 108.734 14.321 108.074 15.331 108.074C16.277 108.074 17.0014 108.653 17.0014 109.574C17.0014 110.379 16.5284 110.976 15.5185 112.08L12.6378 115.233V116Z" fill="#969696"/>
<path d="M4.9375 64.1193C6.86364 64.1193 7.97159 62.4872 7.97159 59.6364C7.97159 56.8068 6.84659 55.1534 4.9375 55.1534C3.02841 55.1534 1.90341 56.8068 1.90341 59.6364C1.90341 62.4872 3.01136 64.1193 4.9375 64.1193ZM4.9375 63.1818C3.66761 63.1818 2.92614 61.9077 2.92614 59.6364C2.92614 57.3693 3.67614 56.0739 4.9375 56.0739C6.19886 56.0739 6.94886 57.3693 6.94886 59.6364C6.94886 61.9077 6.20739 63.1818 4.9375 63.1818ZM10.0362 64.0682C10.4581 64.0682 10.8033 63.723 10.8033 63.3011C10.8033 62.8793 10.4581 62.5341 10.0362 62.5341C9.61435 62.5341 9.26918 62.8793 9.26918 63.3011C9.26918 63.723 9.61435 64.0682 10.0362 64.0682ZM15.2116 64.1193C16.9034 64.1193 18.1605 63.0582 18.1605 61.6307C18.1605 60.5227 17.5043 59.7173 16.4048 59.5341V59.4659C17.2869 59.1974 17.8366 58.473 17.8366 57.4886C17.8366 56.2528 16.8608 55.1534 15.2457 55.1534C13.7372 55.1534 12.4844 56.0824 12.4332 57.4545H13.456C13.4943 56.5852 14.321 56.0739 15.2287 56.0739C16.1918 56.0739 16.8139 56.6577 16.8139 57.5398C16.8139 58.4602 16.0938 59.0568 15.0582 59.0568H14.3594V59.9943H15.0582C16.3835 59.9943 17.1207 60.6676 17.1207 61.6307C17.1207 62.5554 16.3153 63.1818 15.1946 63.1818C14.1847 63.1818 13.3835 62.6619 13.3196 61.8182H12.2457C12.3097 63.1903 13.5199 64.1193 15.2116 64.1193Z" fill="#969696"/>
<path d="M4.55078 12.1193C6.47692 12.1193 7.58487 10.4872 7.58487 7.63636C7.58487 4.80682 6.45987 3.15341 4.55078 3.15341C2.64169 3.15341 1.51669 4.80682 1.51669 7.63636C1.51669 10.4872 2.62464 12.1193 4.55078 12.1193ZM4.55078 11.1818C3.28089 11.1818 2.53942 9.90767 2.53942 7.63636C2.53942 5.36932 3.28942 4.07386 4.55078 4.07386C5.81215 4.07386 6.56215 5.36932 6.56215 7.63636C6.56215 9.90767 5.82067 11.1818 4.55078 11.1818ZM9.6495 12.0682C10.0714 12.0682 10.4165 11.723 10.4165 11.3011C10.4165 10.8793 10.0714 10.5341 9.6495 10.5341C9.22763 10.5341 8.88246 10.8793 8.88246 11.3011C8.88246 11.723 9.22763 12.0682 9.6495 12.0682ZM11.9996 10.2102H16.1076V12H17.1133V10.2102H18.3065V9.27273H17.1133V3.27273H15.8349L11.9996 9.34091V10.2102ZM16.1076 9.27273H13.1417V9.20455L16.0394 4.61932H16.1076V9.27273Z" fill="#969696"/>
<line x1="41" y1="214.5" x2="470" y2="214.5" stroke="#E0E0E0" stroke-opacity="0.3" stroke-dasharray="8 8"/>
<line x1="41" y1="162.5" x2="470" y2="162.5" stroke="#E0E0E0" stroke-opacity="0.3" stroke-dasharray="8 8"/>
<line x1="41" y1="110.5" x2="470" y2="110.5" stroke="#E0E0E0" stroke-opacity="0.3" stroke-dasharray="8 8"/>
<line x1="41" y1="58.5" x2="470" y2="58.5" stroke="#E0E0E0" stroke-opacity="0.3" stroke-dasharray="8 8"/>
<line x1="41" y1="6.5" x2="470" y2="6.5" stroke="#E0E0E0" stroke-opacity="0.3" stroke-dasharray="8 8"/>
<path d="M106 169.181C95.6 169.181 60.3372 169.877 41 106.859V214H470V122.036C453.528 142.694 444.483 129.687 434.19 122.036L425.15 106.859C415.929 98.6776 399.8 70.8673 371.792 117.932C348.181 166.047 323.247 146.449 315.734 126.735C306.744 69.3784 286.05 52.0721 263.734 94.7983C254.749 123.249 237.385 167.817 217.8 130.581C198.109 82.7323 175.55 86.8465 160.187 112.396C133.95 173.879 116.4 169.181 106 169.181Z" fill="url(#paint0_linear_859_378)"/>
<path d="M41.707 106.844C60.9805 169.835 96.1271 169.14 106.493 169.14C116.859 169.14 134.351 173.836 160.501 112.379C175.814 86.8398 198.298 82.7274 217.924 130.557C236.733 166.419 253.486 126.368 262.694 97.9594C263.378 95.8488 264.222 93.7661 265.3 91.8269C286.414 53.8576 305.842 69.9327 314.892 122.774C315.337 125.375 315.954 127.981 317.119 130.349C326.091 148.58 349.331 163.034 371.409 117.913C395.533 77.2574 410.815 92.4952 420.453 102.663C423.139 105.496 425.606 108.553 427.6 111.91L429.726 115.49C432.285 119.797 435.621 123.619 439.5 126.789C447.641 133.443 456.063 138.655 469.294 122.014" stroke="#F1A132" stroke-width="2" stroke-linecap="round"/>
<path d="M41.7528 240H46.3409V239.219H42.9602V239.162L44.5938 237.415C45.8438 236.076 46.2131 235.451 46.2131 234.645C46.2131 233.523 45.304 232.628 44.0256 232.628C42.7507 232.628 41.7812 233.494 41.7812 234.773H42.6193C42.6193 233.945 43.1555 233.395 43.9972 233.395C44.7855 233.395 45.3892 233.878 45.3892 234.645C45.3892 235.316 44.995 235.813 44.1534 236.733L41.7528 239.361V240ZM50.3643 232.727H49.4837L47.6655 233.935V234.83L49.4411 233.651H49.4837V240H50.3643V232.727ZM58.1804 232.727V237.926C58.1804 238.832 57.7472 239.318 56.9872 239.318C56.2947 239.318 55.794 238.913 55.794 238.295H54.9276C54.9276 239.414 55.794 240.099 56.9872 240.099C58.2514 240.099 59.0611 239.322 59.0611 237.926V232.727H58.1804ZM64.1499 237.77C64.1499 238.793 63.3686 239.261 62.7436 239.261C62.0476 239.261 61.5504 238.75 61.5504 237.955V234.545H60.7124V238.011C60.7124 239.403 61.451 240.071 62.4737 240.071C63.2976 240.071 63.8374 239.631 64.093 239.077H64.1499V240H64.9879V234.545H64.1499V237.77ZM67.361 236.719C67.361 235.767 67.9505 235.227 68.753 235.227C69.5307 235.227 70.003 235.735 70.003 236.591V240H70.8411V236.534C70.8411 235.142 70.0989 234.474 68.9945 234.474C68.1706 234.474 67.6593 234.844 67.4036 235.398H67.3326V234.545H66.5229V240H67.361V236.719Z" fill="#969696"/>
<path d="M109.31 232.727H108.429L106.611 233.935V234.83L108.386 233.651H108.429V240H109.31V232.727ZM111.401 240H115.989V239.219H112.609V239.162L114.242 237.415C115.492 236.076 115.862 235.451 115.862 234.645C115.862 233.523 114.952 232.628 113.674 232.628C112.399 232.628 111.43 233.494 111.43 234.773H112.268C112.268 233.945 112.804 233.395 113.646 233.395C114.434 233.395 115.038 233.878 115.038 234.645C115.038 235.316 114.643 235.813 113.802 236.733L111.401 239.361V240ZM120.695 240L121.426 237.94H124.366L125.098 240H126.021L123.351 232.727H122.442L119.771 240H120.695ZM121.703 237.159L122.868 233.878H122.925L124.089 237.159H121.703ZM130.478 237.77C130.478 238.793 129.697 239.261 129.072 239.261C128.376 239.261 127.879 238.75 127.879 237.955V234.545H127.04V238.011C127.04 239.403 127.779 240.071 128.802 240.071C129.626 240.071 130.165 239.631 130.421 239.077H130.478V240H131.316V234.545H130.478V237.77ZM135.053 242.159C136.36 242.159 137.411 241.562 137.411 240.156V234.545H136.601V235.412H136.516C136.331 235.128 135.99 234.474 134.925 234.474C133.547 234.474 132.595 235.568 132.595 237.244C132.595 238.949 133.59 239.915 134.911 239.915C135.976 239.915 136.317 239.29 136.502 238.991H136.573V240.099C136.573 241.009 135.933 241.42 135.053 241.42C134.062 241.42 133.714 240.898 133.49 240.597L132.823 241.065C133.164 241.637 133.835 242.159 135.053 242.159ZM135.024 239.162C133.973 239.162 133.433 238.366 133.433 237.23C133.433 236.122 133.959 235.227 135.024 235.227C136.047 235.227 136.587 236.051 136.587 237.23C136.587 238.438 136.033 239.162 135.024 239.162Z" fill="#969696"/>
<path d="M176.125 240.099C177.73 240.099 178.653 238.739 178.653 236.364C178.653 234.006 177.716 232.628 176.125 232.628C174.534 232.628 173.597 234.006 173.597 236.364C173.597 238.739 174.52 240.099 176.125 240.099ZM176.125 239.318C175.067 239.318 174.449 238.256 174.449 236.364C174.449 234.474 175.074 233.395 176.125 233.395C177.176 233.395 177.801 234.474 177.801 236.364C177.801 238.256 177.183 239.318 176.125 239.318ZM182.46 240.099C183.87 240.099 184.918 239.215 184.918 238.026C184.918 237.102 184.371 236.431 183.455 236.278V236.222C184.19 235.998 184.648 235.394 184.648 234.574C184.648 233.544 183.835 232.628 182.489 232.628C181.232 232.628 180.188 233.402 180.145 234.545H180.997C181.029 233.821 181.718 233.395 182.474 233.395C183.277 233.395 183.795 233.881 183.795 234.616C183.795 235.384 183.195 235.881 182.332 235.881H181.75V236.662H182.332C183.437 236.662 184.051 237.223 184.051 238.026C184.051 238.796 183.38 239.318 182.446 239.318C181.604 239.318 180.937 238.885 180.884 238.182H179.989C180.042 239.325 181.05 240.099 182.46 240.099ZM195.447 236.364C195.447 234.062 194.097 232.628 192.237 232.628C190.376 232.628 189.026 234.062 189.026 236.364C189.026 238.665 190.376 240.099 192.237 240.099C194.097 240.099 195.447 238.665 195.447 236.364ZM194.594 236.364C194.594 238.253 193.558 239.276 192.237 239.276C190.915 239.276 189.879 238.253 189.879 236.364C189.879 234.474 190.915 233.452 192.237 233.452C193.558 233.452 194.594 234.474 194.594 236.364ZM199.03 240.114C200.237 240.114 201.033 239.375 201.175 238.409H200.337C200.18 239.006 199.683 239.361 199.03 239.361C198.036 239.361 197.396 238.537 197.396 237.273C197.396 236.037 198.05 235.227 199.03 235.227C199.768 235.227 200.209 235.682 200.337 236.179H201.175C201.033 235.156 200.166 234.474 199.016 234.474C197.538 234.474 196.558 235.639 196.558 237.301C196.558 238.935 197.496 240.114 199.03 240.114ZM204.772 234.545H203.607V233.239H202.769V234.545H201.945V235.256H202.769V238.665C202.769 239.616 203.536 240.071 204.246 240.071C204.559 240.071 204.758 240.014 204.871 239.972L204.701 239.219C204.63 239.233 204.516 239.261 204.332 239.261C203.962 239.261 203.607 239.148 203.607 238.438V235.256H204.772V234.545Z" fill="#969696"/>
<path d="M240.753 240H245.341V239.219H241.96V239.162L243.594 237.415C244.844 236.076 245.213 235.451 245.213 234.645C245.213 233.523 244.304 232.628 243.026 232.628C241.751 232.628 240.781 233.494 240.781 234.773H241.619C241.619 233.945 242.156 233.395 242.997 233.395C243.786 233.395 244.389 233.878 244.389 234.645C244.389 235.316 243.995 235.813 243.153 236.733L240.753 239.361V240ZM246.481 238.509H249.904V240H250.742V238.509H251.737V237.727H250.742V232.727H249.677L246.481 237.784V238.509ZM249.904 237.727H247.433V237.67L249.847 233.849H249.904V237.727ZM261.775 232.727H260.908V238.452H260.837L256.86 232.727H256.008V240H256.888V234.29H256.959L260.922 240H261.775V232.727ZM265.639 240.114C267.116 240.114 268.111 238.991 268.111 237.301C268.111 235.597 267.116 234.474 265.639 234.474C264.162 234.474 263.168 235.597 263.168 237.301C263.168 238.991 264.162 240.114 265.639 240.114ZM265.639 239.361C264.517 239.361 264.006 238.395 264.006 237.301C264.006 236.207 264.517 235.227 265.639 235.227C266.761 235.227 267.273 236.207 267.273 237.301C267.273 238.395 266.761 239.361 265.639 239.361ZM273.655 234.545H272.746L271.24 238.892H271.183L269.678 234.545H268.769L270.786 240H271.638L273.655 234.545Z" fill="#969696"/>
<path d="M311.31 232.727H310.429L308.611 233.935V234.83L310.386 233.651H310.429V240H311.31V232.727ZM315.674 240.099C317.059 240.099 318.075 239.077 318.075 237.685C318.075 236.275 317.094 235.241 315.759 235.241C315.269 235.241 314.793 235.415 314.495 235.653H314.452L314.708 233.509H317.748V232.727H313.969L313.529 236.307L314.353 236.406C314.655 236.19 315.17 236.033 315.617 236.037C316.544 236.044 317.222 236.747 317.222 237.699C317.222 238.633 316.569 239.318 315.674 239.318C314.928 239.318 314.335 238.839 314.268 238.182H313.415C313.469 239.29 314.424 240.099 315.674 240.099ZM325.21 232.727V237.926C325.21 238.832 324.776 239.318 324.017 239.318C323.324 239.318 322.823 238.913 322.823 238.295H321.957C321.957 239.414 322.823 240.099 324.017 240.099C325.281 240.099 326.09 239.322 326.09 237.926V232.727H325.21ZM329.347 240.128C330.298 240.128 330.796 239.616 330.966 239.261H331.009V240H331.847V236.406C331.847 234.673 330.526 234.474 329.83 234.474C329.006 234.474 328.068 234.759 327.642 235.753L328.438 236.037C328.622 235.639 329.059 235.213 329.858 235.213C330.629 235.213 331.009 235.621 331.009 236.321V236.349C331.009 236.754 330.597 236.719 329.602 236.847C328.59 236.978 327.486 237.202 327.486 238.452C327.486 239.517 328.31 240.128 329.347 240.128ZM329.475 239.375C328.807 239.375 328.324 239.077 328.324 238.494C328.324 237.855 328.906 237.656 329.56 237.571C329.915 237.528 330.867 237.429 331.009 237.259V238.026C331.009 238.707 330.469 239.375 329.475 239.375ZM334.214 236.719C334.214 235.767 334.804 235.227 335.607 235.227C336.384 235.227 336.857 235.735 336.857 236.591V240H337.695V236.534C337.695 235.142 336.952 234.474 335.848 234.474C335.024 234.474 334.513 234.844 334.257 235.398H334.186V234.545H333.376V240H334.214V236.719Z" fill="#969696"/>
<path d="M376.31 232.727H375.429L373.611 233.935V234.83L375.386 233.651H375.429V240H376.31V232.727ZM380.731 240.099C382.183 240.099 383.195 239.251 383.202 238.068C383.195 237.148 382.581 236.367 381.796 236.222V236.179C382.478 236.001 382.925 235.334 382.933 234.56C382.925 233.452 381.995 232.628 380.731 232.628C379.452 232.628 378.522 233.452 378.529 234.56C378.522 235.334 378.969 236.001 379.665 236.179V236.222C378.866 236.367 378.252 237.148 378.259 238.068C378.252 239.251 379.264 240.099 380.731 240.099ZM380.731 239.318C379.733 239.318 379.119 238.807 379.126 238.026C379.119 237.205 379.797 236.619 380.731 236.619C381.651 236.619 382.329 237.205 382.336 238.026C382.329 238.807 381.714 239.318 380.731 239.318ZM380.731 235.866C379.935 235.866 379.374 235.369 379.381 234.616C379.374 233.878 379.914 233.395 380.731 233.395C381.533 233.395 382.073 233.878 382.08 234.616C382.073 235.369 381.512 235.866 380.731 235.866ZM387.504 232.727V240H388.328V234.474H388.399L390.671 240H391.467L393.74 234.474H393.811V240H394.634V232.727H393.583L391.112 238.764H391.026L388.555 232.727H387.504ZM397.892 240.128C398.843 240.128 399.341 239.616 399.511 239.261H399.554V240H400.392V236.406C400.392 234.673 399.071 234.474 398.375 234.474C397.551 234.474 396.613 234.759 396.187 235.753L396.983 236.037C397.167 235.639 397.604 235.213 398.403 235.213C399.174 235.213 399.554 235.621 399.554 236.321V236.349C399.554 236.754 399.142 236.719 398.147 236.847C397.135 236.978 396.031 237.202 396.031 238.452C396.031 239.517 396.855 240.128 397.892 240.128ZM398.02 239.375C397.352 239.375 396.869 239.077 396.869 238.494C396.869 237.855 397.451 237.656 398.105 237.571C398.46 237.528 399.412 237.429 399.554 237.259V238.026C399.554 238.707 399.014 239.375 398.02 239.375ZM401.921 240H402.759V236.548C402.759 235.81 403.342 235.27 404.137 235.27C404.361 235.27 404.592 235.312 404.649 235.327V234.474C404.553 234.467 404.333 234.46 404.208 234.46C403.555 234.46 402.987 234.83 402.788 235.369H402.731V234.545H401.921V240Z" fill="#969696"/>
<path d="M439.753 240H444.341V239.219H440.96V239.162L442.594 237.415C443.844 236.076 444.213 235.451 444.213 234.645C444.213 233.523 443.304 232.628 442.026 232.628C440.751 232.628 439.781 233.494 439.781 234.773H440.619C440.619 233.945 441.156 233.395 441.997 233.395C442.786 233.395 443.389 233.878 443.389 234.645C443.389 235.316 442.995 235.813 442.153 236.733L439.753 239.361V240ZM448.222 240.099C449.692 240.117 450.651 239.009 450.651 237.656C450.651 236.25 449.611 235.241 448.364 235.241C447.615 235.241 446.972 235.607 446.575 236.207H446.518C446.521 234.435 447.21 233.409 448.336 233.409C449.103 233.409 449.565 233.892 449.728 234.545H450.594C450.417 233.416 449.558 232.628 448.336 232.628C446.699 232.628 445.694 234.077 445.694 236.648C445.694 239.336 447.029 240.085 448.222 240.099ZM448.222 239.318C447.31 239.318 446.642 238.54 446.646 237.67C446.649 236.8 447.349 236.023 448.251 236.023C449.142 236.023 449.799 236.754 449.799 237.656C449.799 238.58 449.114 239.318 448.222 239.318ZM455.286 240L456.018 237.94H458.958L459.69 240H460.613L457.943 232.727H457.034L454.363 240H455.286ZM456.295 237.159L457.46 233.878H457.517L458.681 237.159H456.295ZM461.632 242.045H462.47V239.162H462.541C462.726 239.46 463.081 240.114 464.132 240.114C465.496 240.114 466.448 239.02 466.448 237.287C466.448 235.568 465.496 234.474 464.118 234.474C463.053 234.474 462.726 235.128 462.541 235.412H462.442V234.545H461.632V242.045ZM462.456 237.273C462.456 236.051 462.996 235.227 464.019 235.227C465.084 235.227 465.61 236.122 465.61 237.273C465.61 238.438 465.07 239.361 464.019 239.361C463.01 239.361 462.456 238.509 462.456 237.273ZM467.726 240H468.564V236.548C468.564 235.81 469.146 235.27 469.942 235.27C470.166 235.27 470.396 235.312 470.453 235.327V234.474C470.357 234.467 470.137 234.46 470.013 234.46C469.36 234.46 468.791 234.83 468.593 235.369H468.536V234.545H467.726V240Z" fill="#969696"/>
<line opacity="0.5" x1="289.5" y1="6" x2="289.5" y2="214" stroke="#F1A132"/>
<path d="M288.817 53.2237C291.378 53.2237 292.924 51.2749 292.929 47.919C292.934 44.5881 291.368 42.679 288.817 42.679C286.262 42.679 284.711 44.5831 284.706 47.919C284.696 51.2649 286.252 53.2188 288.817 53.2237ZM288.817 51.4389C287.649 51.4389 286.893 50.2656 286.898 47.919C286.903 45.6072 287.654 44.4439 288.817 44.4439C289.976 44.4439 290.732 45.6072 290.732 47.919C290.737 50.2656 289.981 51.4389 288.817 51.4389ZM295.298 53.1293C295.934 53.1293 296.486 52.5973 296.491 51.9361C296.486 51.2848 295.934 50.7528 295.298 50.7528C294.642 50.7528 294.1 51.2848 294.105 51.9361C294.1 52.5973 294.642 53.1293 295.298 53.1293ZM301.778 53.2237C304.339 53.2237 305.885 51.2749 305.89 47.919C305.895 44.5881 304.329 42.679 301.778 42.679C299.223 42.679 297.672 44.5831 297.667 47.919C297.657 51.2649 299.213 53.2188 301.778 53.2237ZM301.778 51.4389C300.61 51.4389 299.854 50.2656 299.859 47.919C299.864 45.6072 300.615 44.4439 301.778 44.4439C302.937 44.4439 303.692 45.6072 303.692 47.919C303.697 50.2656 302.942 51.4389 301.778 51.4389ZM311.333 53.1392C313.6 53.1491 315.146 51.6626 315.141 49.5895C315.146 47.6804 313.813 46.3033 312.009 46.3033C310.89 46.3033 309.901 46.8402 309.443 47.7401H309.374C309.384 45.7564 310.08 44.5234 311.407 44.5234C312.188 44.5234 312.749 44.951 312.914 45.6619H315.036C314.833 43.9865 313.441 42.679 311.407 42.679C308.892 42.679 307.276 44.7173 307.266 48.1378C307.261 51.8665 309.24 53.1293 311.333 53.1392ZM311.323 51.4489C310.328 51.4489 309.593 50.6484 309.593 49.6541C309.597 48.6648 310.348 47.8594 311.338 47.8594C312.332 47.8594 313.058 48.6399 313.053 49.6491C313.058 50.6683 312.317 51.4489 311.323 51.4489ZM321.097 42.8182H319.073L316.553 44.4141V46.3232L318.884 44.8615H318.944V53H321.097V42.8182ZM327.201 42.679C324.924 42.669 323.387 44.1605 323.397 46.2088C323.402 48.108 324.72 49.4851 326.525 49.4851C327.643 49.4851 328.637 48.9432 329.09 48.0483H329.159C329.154 50.0668 328.453 51.2947 327.126 51.2947C326.346 51.2947 325.784 50.8672 325.62 50.1264H323.497C323.696 51.8416 325.088 53.1392 327.126 53.1392C329.647 53.1392 331.272 51.1009 331.267 47.6456C331.262 43.9567 329.294 42.6889 327.201 42.679ZM327.216 44.3693C328.205 44.3693 328.936 45.1747 328.946 46.1442C328.951 47.1186 328.18 47.924 327.196 47.924C326.201 47.924 325.49 47.1484 325.485 46.1491C325.475 45.1548 326.216 44.3693 327.216 44.3693ZM336.667 53.1392C338.934 53.1491 340.48 51.6626 340.475 49.5895C340.48 47.6804 339.147 46.3033 337.343 46.3033C336.224 46.3033 335.235 46.8402 334.777 47.7401H334.708C334.718 45.7564 335.414 44.5234 336.741 44.5234C337.522 44.5234 338.083 44.951 338.248 45.6619H340.37C340.167 43.9865 338.775 42.679 336.741 42.679C334.225 42.679 332.61 44.7173 332.6 48.1378C332.595 51.8665 334.574 53.1293 336.667 53.1392ZM336.657 51.4489C335.662 51.4489 334.926 50.6484 334.926 49.6541C334.931 48.6648 335.682 47.8594 336.672 47.8594C337.666 47.8594 338.392 48.6399 338.387 49.6491C338.392 50.6683 337.651 51.4489 336.657 51.4489ZM351.59 42.8182V49.2464C351.59 50.4098 350.775 51.25 349.522 51.25C348.274 51.25 347.454 50.4098 347.454 49.2464V42.8182H345.301V49.4304C345.301 51.6577 346.981 53.1442 349.522 53.1442C352.052 53.1442 353.743 51.6577 353.743 49.4304V42.8182H351.59ZM361.037 45.7464H363.1C363.071 43.9318 361.579 42.679 359.312 42.679C357.08 42.679 355.444 43.9119 355.454 45.7614C355.449 47.2628 356.508 48.1229 358.228 48.5355L359.337 48.8139C360.446 49.0824 361.062 49.4006 361.067 50.0866C361.062 50.8324 360.356 51.3395 359.262 51.3395C358.144 51.3395 357.338 50.8224 357.269 49.8033H355.186C355.24 52.0057 356.816 53.1442 359.287 53.1442C361.773 53.1442 363.235 51.956 363.24 50.0916C363.235 48.3963 361.957 47.4964 360.187 47.0987L359.272 46.88C358.387 46.6761 357.647 46.348 357.662 45.6172C357.662 44.9609 358.243 44.4787 359.297 44.4787C360.326 44.4787 360.958 44.946 361.037 45.7464ZM368.297 53C371.399 53 373.279 51.081 373.279 47.8991C373.279 44.7273 371.399 42.8182 368.327 42.8182H364.688V53H368.297ZM366.84 51.1555V44.6626H368.213C370.122 44.6626 371.131 45.6371 371.131 47.8991C371.131 50.1712 370.122 51.1555 368.208 51.1555H366.84ZM383.39 42.8182H381.247V49.2216H381.157L376.762 42.8182H374.873V53H377.026V46.5916H377.1L381.53 53H383.39V42.8182Z" fill="white"/>
<path d="M284.959 27.2727V36H286.212V29.6804H286.293L288.866 35.9872H289.906L292.48 29.6847H292.561V36H293.814V27.2727H292.216L289.438 34.0568H289.335L286.557 27.2727H284.959ZM297.531 36.1449C298.613 36.1449 299.223 35.5952 299.466 35.1051H299.517V36H300.761V31.6534C300.761 29.7486 299.261 29.3693 298.221 29.3693C297.037 29.3693 295.946 29.8466 295.52 31.0398L296.717 31.3125C296.904 30.848 297.382 30.4006 298.238 30.4006C299.061 30.4006 299.483 30.831 299.483 31.5724V31.6023C299.483 32.0668 299.005 32.0582 297.829 32.1946C296.589 32.3395 295.319 32.6634 295.319 34.1506C295.319 35.4375 296.287 36.1449 297.531 36.1449ZM297.808 35.1222C297.088 35.1222 296.568 34.7983 296.568 34.1676C296.568 33.4858 297.173 33.2429 297.91 33.1449C298.324 33.0895 299.304 32.9787 299.487 32.7955V33.6392C299.487 34.4148 298.869 35.1222 297.808 35.1222ZM302.458 36H303.732V32.0028C303.732 31.1463 304.393 30.5284 305.296 30.5284C305.56 30.5284 305.859 30.5753 305.961 30.6051V29.3864C305.833 29.3693 305.582 29.3565 305.42 29.3565C304.653 29.3565 303.996 29.7912 303.758 30.4943H303.69V29.4545H302.458V36ZM313.533 27.2727H312.251L310.073 28.696V29.9574L312.161 28.5938H312.212V36H313.533V27.2727ZM315.711 34.2955H319.849V36H321.106V34.2955H322.261V33.179H321.106V27.2727H319.482L315.711 33.2301V34.2955ZM319.857 33.179H317.092V33.1108L319.789 28.8409H319.857V33.179ZM330.795 31.0866H326.926V32.1903H330.795V31.0866ZM335.771 27.2727V36H337.024V29.6804H337.105L339.679 35.9872H340.719L343.293 29.6847H343.374V36H344.626V27.2727H343.028L340.25 34.0568H340.148L337.369 27.2727H335.771ZM348.343 36.1449C349.426 36.1449 350.035 35.5952 350.278 35.1051H350.329V36H351.574V31.6534C351.574 29.7486 350.074 29.3693 349.034 29.3693C347.849 29.3693 346.758 29.8466 346.332 31.0398L347.529 31.3125C347.717 30.848 348.194 30.4006 349.051 30.4006C349.873 30.4006 350.295 30.831 350.295 31.5724V31.6023C350.295 32.0668 349.818 32.0582 348.642 32.1946C347.402 32.3395 346.132 32.6634 346.132 34.1506C346.132 35.4375 347.099 36.1449 348.343 36.1449ZM348.62 35.1222C347.9 35.1222 347.38 34.7983 347.38 34.1676C347.38 33.4858 347.985 33.2429 348.723 33.1449C349.136 33.0895 350.116 32.9787 350.299 32.7955V33.6392C350.299 34.4148 349.681 35.1222 348.62 35.1222ZM353.271 36H354.545V32.0028C354.545 31.1463 355.205 30.5284 356.109 30.5284C356.373 30.5284 356.671 30.5753 356.773 30.6051V29.3864C356.646 29.3693 356.394 29.3565 356.232 29.3565C355.465 29.3565 354.809 29.7912 354.57 30.4943H354.502V29.4545H353.271V36ZM361.035 36H366.779V34.8707H362.85V34.8068L364.585 32.9915C366.183 31.3764 366.638 30.6051 366.638 29.6293C366.638 28.2273 365.496 27.1534 363.852 27.1534C362.219 27.1534 361.026 28.2102 361.026 29.804H362.283C362.279 28.8665 362.884 28.2528 363.826 28.2528C364.712 28.2528 365.386 28.7983 365.386 29.6676C365.386 30.4389 364.925 30.9929 363.988 31.9858L361.035 35.0455V36ZM371.705 27.2727H370.423L368.245 28.696V29.9574L370.333 28.5938H370.384V36H371.705V27.2727ZM375.249 34.8068H374.021L373.979 35.2841C373.881 36.4389 373.608 37.6023 373.493 38.1307H374.396C374.601 37.5724 375.053 36.294 375.185 35.2713L375.249 34.8068ZM380.066 36H385.81V34.8707H381.881V34.8068L383.616 32.9915C385.214 31.3764 385.67 30.6051 385.67 29.6293C385.67 28.2273 384.528 27.1534 382.883 27.1534C381.251 27.1534 380.058 28.2102 380.058 29.804H381.315C381.31 28.8665 381.915 28.2528 382.857 28.2528C383.744 28.2528 384.417 28.7983 384.417 29.6676C384.417 30.4389 383.957 30.9929 383.019 31.9858L380.066 35.0455V36ZM390.464 36.1449C392.479 36.1449 393.66 34.5 393.66 31.6406C393.66 28.8026 392.462 27.1534 390.464 27.1534C388.461 27.1534 387.268 28.7983 387.263 31.6406C387.263 34.4957 388.444 36.1406 390.464 36.1449ZM390.464 35.0071C389.283 35.0071 388.572 33.8224 388.572 31.6406C388.576 29.4673 389.288 28.2699 390.464 28.2699C391.636 28.2699 392.352 29.4673 392.352 31.6406C392.352 33.8224 391.64 35.0071 390.464 35.0071ZM395.172 36H400.916V34.8707H396.987V34.8068L398.721 32.9915C400.319 31.3764 400.775 30.6051 400.775 29.6293C400.775 28.2273 399.633 27.1534 397.988 27.1534C396.356 27.1534 395.163 28.2102 395.163 29.804H396.42C396.416 28.8665 397.021 28.2528 397.963 28.2528C398.849 28.2528 399.522 28.7983 399.522 29.6676C399.522 30.4389 399.062 30.9929 398.125 31.9858L395.172 35.0455V36ZM405.842 27.2727H404.559L402.382 28.696V29.9574L404.47 28.5938H404.521V36H405.842V27.2727Z" fill="white" fill-opacity="0.7"/>
<circle cx="289" cy="71" r="6" fill="white" stroke="#F1A132" stroke-width="4"/>
<defs>
<linearGradient id="paint0_linear_859_378" x1="255.5" y1="71" x2="255.5" y2="214" gradientUnits="userSpaceOnUse">
<stop stop-color="#F1A132" stop-opacity="0.6"/>
<stop offset="1" stop-color="white" stop-opacity="0"/>
</linearGradient>
</defs>
</svg>
