<svg width="1033" height="267" viewBox="0 0 1033 267" fill="none" xmlns="http://www.w3.org/2000/svg">
<path fill-rule="evenodd" clip-rule="evenodd" d="M21.0816 139.074L0 146.513V155V159.773V267H1033V159.773V155V27.1679L1011.92 97.0283L990.837 14.5543L969.755 117.081L948.673 92.1769L927.592 41.0753L906.51 101.556L885.429 46.5736L864.347 93.1472L843.265 77.2992L822.184 58.8639L801.102 84.0912L780.02 57.5701L758.939 26.1977L737.857 150.394L716.776 29.1085L695.694 94.7643L674.612 34.9302L653.531 107.701L632.449 65.9793L611.367 49.4845L590.286 103.173L569.204 0L548.122 118.051L527.041 51.1016L505.959 33.9599L484.878 89.5895L463.796 51.1016L442.714 138.751L421.633 5.17484L400.551 78.2695L379.469 81.5038L358.388 63.7153L337.306 62.4216L316.224 114.817L295.143 88.6192L274.061 66.6261L252.98 38.1645L231.898 44.9565L210.816 61.1279L189.735 130.018L168.653 121.932L147.571 36.5473L126.49 154.598L105.408 117.728L84.3265 12.2903L63.2449 128.401L42.1633 51.425L21.0816 139.074Z" fill="url(#paint0_linear_26_223)"/>
<defs>
<linearGradient id="paint0_linear_26_223" x1="516.5" y1="0" x2="516.5" y2="267" gradientUnits="userSpaceOnUse">
<stop stop-color="#F1A132"/>
<stop offset="1" stop-color="#F1A132" stop-opacity="0"/>
</linearGradient>
</defs>
</svg>
