<svg width="540" height="128" viewBox="0 0 540 128" fill="none" xmlns="http://www.w3.org/2000/svg">
<path fill-rule="evenodd" clip-rule="evenodd" d="M11 66.6722L0 70.2383V74.3071V76.5955V128H539V76.5955V74.3071V13.0243L528 46.5155L517 6.97732L506 56.1287L495 44.1897L484 19.6915L473 48.6862L462 22.3274L451 44.6548L440 37.0573L429 28.2194L418 40.3134L407 27.5992L396 12.5592L385 72.099L374 13.9546L363 45.4301L352 16.7456L341 51.6322L330 31.6305L319 23.7229L308 49.4614L297 0L286 56.5938L275 24.4981L264 16.2804L253 42.9493L242 24.4981L231 66.5171L220 2.48082L209 37.5225L198 39.073L187 30.5452L176 29.9249L165 55.0433L154 42.4841L143 31.9406L132 18.2961L121 21.5522L110 29.3047L99 62.3307L88 58.4544L77 17.5208L66 74.1146L55 56.4388L44 5.89196L33 61.5555L22 24.6532L11 66.6722Z" fill="#323843"/>
<line x1="4.37114e-08" y1="127.5" x2="540" y2="127.5" stroke="black" stroke-opacity="0.3"/>
</svg>
