<svg width="385" height="92" viewBox="0 0 385 92" fill="none" xmlns="http://www.w3.org/2000/svg">
<path d="M58.3333 63.792C49 63.792 17.3539 64.23 0 24.5688V92H385V34.1204C370.217 47.1223 362.1 38.9357 352.863 34.1204L344.75 24.5688C336.475 19.4195 322 1.91647 296.865 31.5379C275.675 61.8195 253.298 49.4851 246.556 37.0777C238.488 0.979385 219.917 -9.91267 199.89 16.9779C191.826 34.8838 176.243 62.9338 158.667 39.4988C140.995 9.38397 120.75 11.9733 106.963 28.0534C83.4167 66.7493 67.6667 63.792 58.3333 63.792Z" fill="url(#paint0_linear_1561_2)"/>
<path d="M1 24.2608C18.2638 63.3808 49.7455 62.9487 59.0303 62.9487C68.0953 62.9487 83.2449 65.7291 105.756 30.3406C106.862 28.6022 108.061 26.886 109.511 25.4217C123.13 11.6625 142.141 10.7678 158.842 38.9871C175.126 60.5141 189.69 37.9969 198.094 20.5357C199.292 18.0464 200.666 15.6137 202.455 13.508C220.37 -7.58687 236.775 1.44812 244.98 31.3948C245.918 34.8166 247.012 38.2929 249.357 40.9558C258.342 51.1625 277.789 57.396 296.323 31.1348C317.28 6.64708 330.787 14.8105 339.458 21.0853C342.417 23.2271 345.169 25.6731 347.546 28.4474V28.4474C350.507 31.9046 354.06 34.8463 358.04 37.0554C365.111 40.9793 372.543 43.6734 384 33.682" stroke="#F1A132" stroke-width="2" stroke-linecap="round"/>
<defs>
<linearGradient id="paint0_linear_1561_2" x1="192.5" y1="2" x2="192.5" y2="92" gradientUnits="userSpaceOnUse">
<stop stop-color="#FAAF6A" stop-opacity="0.14"/>
<stop offset="1" stop-color="white" stop-opacity="0"/>
</linearGradient>
</defs>
</svg>
