<svg width="120" height="120" viewBox="0 0 120 120" fill="none" xmlns="http://www.w3.org/2000/svg">
<g filter="url(#filter0_d_806_172)">
<path d="M42 46V74C42 76.2 43.8 78 46 78H74C76.2 78 78 76.2 78 74V46C78 43.8 76.2 42 74 42H46C43.8 42 42 43.8 42 46Z" fill="#505767"/>
<path d="M42.5996 44L48.5996 50C48.1996 50.6 47.9996 51.3 47.9996 52C47.9996 54.2 49.7996 56 51.9996 56C54.1996 56 55.9996 54.2 55.9996 52C55.9996 49.8 54.1996 48 51.9996 48C51.2996 48 50.5996 48.2 49.9996 48.6L43.9996 42.6C43.3996 42.9 42.8996 43.4 42.5996 44ZM51.9996 50.5C52.7996 50.5 53.4996 51.2 53.4996 52C53.4996 52.8 52.7996 53.5 51.9996 53.5C51.1996 53.5 50.4996 52.8 50.4996 52C50.4996 51.2 51.1996 50.5 51.9996 50.5Z" fill="#F1A132"/>
<path d="M77.4 76L71.4 70C71.8 69.4 72 68.7 72 68C72 65.8 70.2 64 68 64C65.8 64 64 65.8 64 68C64 70.2 65.8 72 68 72C68.7 72 69.4 71.8 70 71.4L76 77.4C76.6 77.1 77.1 76.6 77.4 76ZM68 69.5C67.2 69.5 66.5 68.8 66.5 68C66.5 67.2 67.2 66.5 68 66.5C68.8 66.5 69.5 67.2 69.5 68C69.5 68.8 68.8 69.5 68 69.5Z" fill="#F1A132"/>
<path d="M52 72C54.2 72 56 70.2 56 68C56 67.3 55.8 66.6 55.4 66L66 55.4C66.6 55.8 67.3 56 68 56C70.2 56 72 54.2 72 52C72 49.8 70.2 48 68 48C65.8 48 64 49.8 64 52C64 52.7 64.2 53.4 64.6 54L54 64.6C53.4 64.2 52.7 64 52 64C49.8 64 48 65.8 48 68C48 70.2 49.8 72 52 72ZM68 50.5C68.8 50.5 69.5 51.2 69.5 52C69.5 52.8 68.8 53.5 68 53.5C67.2 53.5 66.5 52.8 66.5 52C66.5 51.2 67.2 50.5 68 50.5ZM52 66.5C52.8 66.5 53.5 67.2 53.5 68C53.5 68.8 52.8 69.5 52 69.5C51.2 69.5 50.5 68.8 50.5 68C50.5 67.2 51.2 66.5 52 66.5Z" fill="#F1A132"/>
</g>
<defs>
<filter id="filter0_d_806_172" x="-6" y="-6" width="132" height="132" filterUnits="userSpaceOnUse" color-interpolation-filters="sRGB">
<feFlood flood-opacity="0" result="BackgroundImageFix"/>
<feColorMatrix in="SourceAlpha" type="matrix" values="0 0 0 0 0 0 0 0 0 0 0 0 0 0 0 0 0 0 127 0" result="hardAlpha"/>
<feOffset/>
<feGaussianBlur stdDeviation="21"/>
<feColorMatrix type="matrix" values="0 0 0 0 0.945098 0 0 0 0 0.631373 0 0 0 0 0.196078 0 0 0 0.39 0"/>
<feBlend mode="normal" in2="BackgroundImageFix" result="effect1_dropShadow_806_172"/>
<feBlend mode="normal" in="SourceGraphic" in2="effect1_dropShadow_806_172" result="shape"/>
</filter>
</defs>
</svg>
