<svg width="22" height="22" viewBox="0 0 22 22" fill="none" xmlns="http://www.w3.org/2000/svg">
<path d="M14.7101 7.29C14.6171 7.19627 14.5065 7.12188 14.3847 7.07111C14.2628 7.02034 14.1321 6.9942 14.0001 6.9942C13.8681 6.9942 13.7374 7.02034 13.6155 7.07111C13.4936 7.12188 13.383 7.19627 13.2901 7.29L11.0001 9.59L8.71008 7.29C8.52178 7.1017 8.26638 6.99591 8.00008 6.99591C7.73378 6.99591 7.47838 7.1017 7.29008 7.29C7.10178 7.47831 6.99599 7.7337 6.99599 8C6.99599 8.2663 7.10178 8.5217 7.29008 8.71L9.59008 11L7.29008 13.29C7.19635 13.383 7.12196 13.4936 7.07119 13.6154C7.02042 13.7373 6.99428 13.868 6.99428 14C6.99428 14.132 7.02042 14.2627 7.07119 14.3846C7.12196 14.5064 7.19635 14.617 7.29008 14.71C7.38304 14.8037 7.49364 14.8781 7.6155 14.9289C7.73736 14.9797 7.86807 15.0058 8.00008 15.0058C8.13209 15.0058 8.2628 14.9797 8.38466 14.9289C8.50652 14.8781 8.61712 14.8037 8.71008 14.71L11.0001 12.41L13.2901 14.71C13.383 14.8037 13.4936 14.8781 13.6155 14.9289C13.7374 14.9797 13.8681 15.0058 14.0001 15.0058C14.1321 15.0058 14.2628 14.9797 14.3847 14.9289C14.5065 14.8781 14.6171 14.8037 14.7101 14.71C14.8038 14.617 14.8782 14.5064 14.929 14.3846C14.9797 14.2627 15.0059 14.132 15.0059 14C15.0059 13.868 14.9797 13.7373 14.929 13.6154C14.8782 13.4936 14.8038 13.383 14.7101 13.29L12.4101 11L14.7101 8.71C14.8038 8.61704 14.8782 8.50644 14.929 8.38458C14.9797 8.26272 15.0059 8.13201 15.0059 8C15.0059 7.86799 14.9797 7.73729 14.929 7.61543C14.8782 7.49357 14.8038 7.38297 14.7101 7.29ZM18.0701 3.93C17.1476 2.9749 16.0442 2.21308 14.8241 1.68899C13.6041 1.1649 12.2919 0.889037 10.9641 0.877499C9.6363 0.86596 8.3195 1.11898 7.09054 1.62179C5.86158 2.1246 4.74506 2.86713 3.80613 3.80605C2.8672 4.74498 2.12467 5.8615 1.62186 7.09046C1.11905 8.31943 0.866037 9.63622 0.877575 10.964C0.889113 12.2918 1.16498 13.604 1.68907 14.824C2.21316 16.0441 2.97498 17.1475 3.93008 18.07C4.85255 19.0251 5.95599 19.7869 7.17603 20.311C8.39607 20.8351 9.70827 21.111 11.0361 21.1225C12.3639 21.134 13.6807 20.881 14.9096 20.3782C16.1386 19.8754 17.2551 19.1329 18.194 18.194C19.133 17.255 19.8755 16.1385 20.3783 14.9095C20.8811 13.6806 21.1341 12.3638 21.1226 11.036C21.111 9.7082 20.8352 8.396 20.3111 7.17596C19.787 5.95592 19.0252 4.85247 18.0701 3.93ZM16.6601 16.66C15.3521 17.9694 13.6306 18.7848 11.7889 18.9673C9.94713 19.1498 8.09908 18.6881 6.5596 17.6608C5.02012 16.6335 3.88444 15.1042 3.34605 13.3335C2.80767 11.5628 2.89988 9.66014 3.60699 7.94979C4.3141 6.23943 5.59235 4.82715 7.22397 3.95356C8.85559 3.07998 10.7396 2.79913 12.5551 3.15888C14.3706 3.51862 16.0051 4.49669 17.1803 5.92646C18.3555 7.35623 18.9986 9.14924 19.0001 11C19.0036 12.0513 18.7987 13.0928 18.397 14.0644C17.9953 15.0359 17.405 15.9182 16.6601 16.66Z" fill="white"/>
</svg>
