<svg width="34" height="30" viewBox="0 0 34 30" fill="none" xmlns="http://www.w3.org/2000/svg">
<path d="M32.3673 15C33.197 14.0873 33.66 12.9001 33.6673 11.6667C33.6673 10.3406 33.1405 9.06881 32.2029 8.13113C31.2652 7.19345 29.9934 6.66667 28.6673 6.66667H20.034C20.3002 5.91363 20.3822 5.10777 20.273 4.31654C20.1638 3.52532 19.8667 2.77177 19.4065 2.11897C18.9463 1.46617 18.3363 0.933128 17.6278 0.564463C16.9193 0.195799 16.1327 0.00224252 15.334 0H5.33398C4.0079 0 2.73613 0.526784 1.79845 1.46447C0.860769 2.40215 0.333984 3.67392 0.333984 5C0.341335 6.23342 0.804336 7.4206 1.63398 8.33333C0.81406 9.25004 0.360764 10.4368 0.360764 11.6667C0.360764 12.8966 0.81406 14.0833 1.63398 15C0.81406 15.9167 0.360764 17.1034 0.360764 18.3333C0.360764 19.5632 0.81406 20.75 1.63398 21.6667C0.804336 22.5794 0.341335 23.7666 0.333984 25C0.333984 26.3261 0.860769 27.5979 1.79845 28.5355C2.73613 29.4732 4.0079 30 5.33398 30H28.6673C29.6303 29.9949 30.5712 29.7118 31.3771 29.1847C32.1831 28.6577 32.8197 27.9092 33.2104 27.0291C33.6012 26.149 33.7295 25.1748 33.5799 24.2235C33.4304 23.2722 33.0093 22.3844 32.3673 21.6667C33.1872 20.75 33.6405 19.5632 33.6405 18.3333C33.6405 17.1034 33.1872 15.9167 32.3673 15ZM15.334 26.6667H5.33398C4.89196 26.6667 4.46803 26.4911 4.15547 26.1785C3.84291 25.866 3.66732 25.442 3.66732 25C3.66732 24.558 3.84291 24.134 4.15547 23.8215C4.46803 23.5089 4.89196 23.3333 5.33398 23.3333H15.334C15.776 23.3333 16.1999 23.5089 16.5125 23.8215C16.8251 24.134 17.0007 24.558 17.0007 25C17.0007 25.442 16.8251 25.866 16.5125 26.1785C16.1999 26.4911 15.776 26.6667 15.334 26.6667ZM15.334 20H5.33398C4.89196 20 4.46803 19.8244 4.15547 19.5118C3.84291 19.1993 3.66732 18.7754 3.66732 18.3333C3.66732 17.8913 3.84291 17.4674 4.15547 17.1548C4.46803 16.8423 4.89196 16.6667 5.33398 16.6667H15.334C15.776 16.6667 16.1999 16.8423 16.5125 17.1548C16.8251 17.4674 17.0007 17.8913 17.0007 18.3333C17.0007 18.7754 16.8251 19.1993 16.5125 19.5118C16.1999 19.8244 15.776 20 15.334 20ZM15.334 13.3333H5.33398C4.89196 13.3333 4.46803 13.1577 4.15547 12.8452C3.84291 12.5326 3.66732 12.1087 3.66732 11.6667C3.66732 11.2246 3.84291 10.8007 4.15547 10.4882C4.46803 10.1756 4.89196 10 5.33398 10H15.334C15.776 10 16.1999 10.1756 16.5125 10.4882C16.8251 10.8007 17.0007 11.2246 17.0007 11.6667C17.0007 12.1087 16.8251 12.5326 16.5125 12.8452C16.1999 13.1577 15.776 13.3333 15.334 13.3333ZM15.334 6.66667H5.33398C4.89196 6.66667 4.46803 6.49107 4.15547 6.17851C3.84291 5.86595 3.66732 5.44203 3.66732 5C3.66732 4.55797 3.84291 4.13405 4.15547 3.82149C4.46803 3.50893 4.89196 3.33333 5.33398 3.33333H15.334C15.776 3.33333 16.1999 3.50893 16.5125 3.82149C16.8251 4.13405 17.0007 4.55797 17.0007 5C17.0007 5.44203 16.8251 5.86595 16.5125 6.17851C16.1999 6.49107 15.776 6.66667 15.334 6.66667ZM29.8173 26.1833C29.6696 26.3392 29.4911 26.4626 29.2931 26.5458C29.0951 26.629 28.882 26.6702 28.6673 26.6667H20.034C20.4337 25.5915 20.4337 24.4085 20.034 23.3333H28.6673C29.1093 23.3333 29.5333 23.5089 29.8458 23.8215C30.1584 24.134 30.334 24.558 30.334 25C30.3309 25.2217 30.2836 25.4405 30.1949 25.6437C30.1062 25.8469 29.9778 26.0304 29.8173 26.1833V26.1833ZM29.8173 19.5167C29.6696 19.6725 29.4911 19.7959 29.2931 19.8791C29.0951 19.9623 28.882 20.0035 28.6673 20H20.034C20.4337 18.9248 20.4337 17.7418 20.034 16.6667H28.6673C29.1093 16.6667 29.5333 16.8423 29.8458 17.1548C30.1584 17.4674 30.334 17.8913 30.334 18.3333C30.3309 18.555 30.2836 18.7739 30.1949 18.9771C30.1062 19.1803 29.9778 19.3637 29.8173 19.5167V19.5167ZM29.8173 12.85C29.6696 13.0058 29.4911 13.1293 29.2931 13.2125C29.0951 13.2957 28.882 13.3368 28.6673 13.3333H20.034C20.4337 12.2582 20.4337 11.0752 20.034 10H28.6673C29.1093 10 29.5333 10.1756 29.8458 10.4882C30.1584 10.8007 30.334 11.2246 30.334 11.6667C30.3309 11.8884 30.2836 12.1072 30.1949 12.3104C30.1062 12.5136 29.9778 12.697 29.8173 12.85V12.85Z" fill="#F1A132"/>
</svg>
