<svg width="346" height="346" viewBox="0 0 346 346" fill="none" xmlns="http://www.w3.org/2000/svg">
<circle cx="173.452" cy="174.359" r="152.168" stroke="white" stroke-opacity="0.15" stroke-width="0.905759"/>
<circle cx="173" cy="173" r="172.547" stroke="#F1A132" stroke-opacity="0.15" stroke-width="0.905759" stroke-dasharray="4.53 4.53"/>
<circle cx="172.996" cy="173" r="107.332" stroke="white" stroke-opacity="0.05" stroke-width="0.905759"/>
<circle cx="173" cy="173" r="129.976" stroke="#F1A132" stroke-opacity="0.1" stroke-width="0.905759"/>
<g clip-path="url(#clip0_834_10)">
<path d="M172.999 217.382C148.487 217.382 128.617 197.513 128.617 173C128.617 148.487 148.487 128.618 172.999 128.618C197.512 128.618 217.382 148.487 217.382 173C217.382 197.513 197.512 217.382 172.999 217.382ZM174.569 142.487C175.071 146.57 175.291 150.714 175.637 154.798C175.837 156.032 175.942 157.283 175.951 158.534L186.566 169.116C181.917 175.774 177.144 182.401 172.497 189.088C172.969 194.428 173.377 199.768 173.912 205.105L206.006 159.633H191.748C186.034 153.918 180.347 148.171 174.6 142.487H174.569ZM139.743 188.145H139.713V188.273C144.484 188.179 149.26 188.273 154.032 188.209L171.083 205.293H171.146C170.614 199.923 170.203 194.52 169.732 189.183C166.184 185.696 162.7 182.148 159.213 178.664C163.893 172.007 168.603 165.411 173.282 158.72L171.931 142.645C161.191 157.813 150.517 173.011 139.743 188.145Z" fill="#F1A132"/>
</g>
<defs>
<clipPath id="clip0_834_10">
<rect width="88.7644" height="88.7644" fill="white" transform="translate(128.617 128.618)"/>
</clipPath>
</defs>
</svg>
