<svg width="13" height="13" viewBox="0 0 13 13" fill="none" xmlns="http://www.w3.org/2000/svg">
<path d="M12.125 4.5875C12.1185 4.53008 12.1059 4.47352 12.0875 4.41875V4.3625C12.0574 4.29824 12.0174 4.23917 11.9688 4.1875L8.21875 0.4375C8.16708 0.388885 8.10801 0.348801 8.04375 0.31875C8.02509 0.3161 8.00616 0.3161 7.9875 0.31875C7.92401 0.282338 7.85389 0.258965 7.78125 0.25H5.25C4.75272 0.25 4.27581 0.447544 3.92417 0.799175C3.57254 1.15081 3.375 1.62772 3.375 2.125V2.75H2.75C2.25272 2.75 1.77581 2.94754 1.42417 3.29917C1.07254 3.65081 0.875 4.12772 0.875 4.625V10.875C0.875 11.3723 1.07254 11.8492 1.42417 12.2008C1.77581 12.5525 2.25272 12.75 2.75 12.75H7.75C8.24728 12.75 8.72419 12.5525 9.07583 12.2008C9.42746 11.8492 9.625 11.3723 9.625 10.875V10.25H10.25C10.7473 10.25 11.2242 10.0525 11.5758 9.70083C11.9275 9.34919 12.125 8.87228 12.125 8.375V4.625V4.5875ZM8.375 2.38125L9.99375 4H9C8.83424 4 8.67527 3.93415 8.55806 3.81694C8.44085 3.69973 8.375 3.54076 8.375 3.375V2.38125ZM8.375 10.875C8.375 11.0408 8.30915 11.1997 8.19194 11.3169C8.07473 11.4342 7.91576 11.5 7.75 11.5H2.75C2.58424 11.5 2.42527 11.4342 2.30806 11.3169C2.19085 11.1997 2.125 11.0408 2.125 10.875V4.625C2.125 4.45924 2.19085 4.30027 2.30806 4.18306C2.42527 4.06585 2.58424 4 2.75 4H3.375V8.375C3.375 8.87228 3.57254 9.34919 3.92417 9.70083C4.27581 10.0525 4.75272 10.25 5.25 10.25H8.375V10.875ZM10.875 8.375C10.875 8.54076 10.8092 8.69973 10.6919 8.81694C10.5747 8.93415 10.4158 9 10.25 9H5.25C5.08424 9 4.92527 8.93415 4.80806 8.81694C4.69085 8.69973 4.625 8.54076 4.625 8.375V2.125C4.625 1.95924 4.69085 1.80027 4.80806 1.68306C4.92527 1.56585 5.08424 1.5 5.25 1.5H7.125V3.375C7.125 3.87228 7.32254 4.34919 7.67417 4.70083C8.02581 5.05246 8.50272 5.25 9 5.25H10.875V8.375Z" fill="white"/>
</svg>
