<svg width="126" height="126" viewBox="0 0 126 126" fill="none" xmlns="http://www.w3.org/2000/svg">
<g filter="url(#filter0_d_840_73)">
<path d="M63 84C74.598 84 84 74.598 84 63C84 51.402 74.598 42 63 42C51.402 42 42 51.402 42 63C42 74.598 51.402 84 63 84Z" fill="#505767"/>
<path d="M72.5016 67.1C71.9016 73.5 66.9016 75.2 63.2016 75.2C60.1016 75.2 53.6016 73.6 53.6016 64V62.5C53.6016 53.8 59.1016 51.3 63.3016 51.3C71.8016 51.3 72.5016 58.3 72.6016 59.5H67.8016C67.5016 55.9 65.6016 55.2 63.3016 55.2C61.7016 55.2 58.5016 55.7 58.5016 62.4V64C58.4016 71.5 62.3016 71.2 63.2016 71.2C67.5016 71.2 67.5016 68.3 67.8016 67.1H72.5016Z" fill="#F1A132"/>
</g>
<defs>
<filter id="filter0_d_840_73" x="-3" y="-3" width="132" height="132" filterUnits="userSpaceOnUse" color-interpolation-filters="sRGB">
<feFlood flood-opacity="0" result="BackgroundImageFix"/>
<feColorMatrix in="SourceAlpha" type="matrix" values="0 0 0 0 0 0 0 0 0 0 0 0 0 0 0 0 0 0 127 0" result="hardAlpha"/>
<feOffset/>
<feGaussianBlur stdDeviation="21"/>
<feColorMatrix type="matrix" values="0 0 0 0 0.945098 0 0 0 0 0.631373 0 0 0 0 0.196078 0 0 0 0.39 0"/>
<feBlend mode="normal" in2="BackgroundImageFix" result="effect1_dropShadow_840_73"/>
<feBlend mode="normal" in="SourceGraphic" in2="effect1_dropShadow_840_73" result="shape"/>
</filter>
</defs>
</svg>
