<svg width="16" height="13" viewBox="0 0 16 13" fill="none" xmlns="http://www.w3.org/2000/svg">
<path d="M4.56667 8.20153H6.79728C6.99447 8.20153 7.18359 8.11782 7.32303 7.96881C7.46247 7.8198 7.54081 7.61769 7.54081 7.40696C7.54081 7.19623 7.46247 6.99412 7.32303 6.84511C7.18359 6.6961 6.99447 6.61239 6.79728 6.61239H4.56667C4.36947 6.61239 4.18035 6.6961 4.04091 6.84511C3.90147 6.99412 3.82314 7.19623 3.82314 7.40696C3.82314 7.61769 3.90147 7.8198 4.04091 7.96881C4.18035 8.11782 4.36947 8.20153 4.56667 8.20153ZM13.4891 0.255798H3.0796C2.48801 0.255798 1.92065 0.50694 1.50233 0.953974C1.08401 1.40101 0.848999 2.00732 0.848999 2.63952V9.79068C0.848999 10.4229 1.08401 11.0292 1.50233 11.4762C1.92065 11.9233 2.48801 12.1744 3.0796 12.1744H13.4891C14.0807 12.1744 14.648 11.9233 15.0664 11.4762C15.4847 11.0292 15.7197 10.4229 15.7197 9.79068V2.63952C15.7197 2.00732 15.4847 1.40101 15.0664 0.953974C14.648 0.50694 14.0807 0.255798 13.4891 0.255798ZM14.2326 9.79068C14.2326 10.0014 14.1543 10.2035 14.0148 10.3525C13.8754 10.5015 13.6863 10.5853 13.4891 10.5853H3.0796C2.88241 10.5853 2.69328 10.5015 2.55384 10.3525C2.4144 10.2035 2.33607 10.0014 2.33607 9.79068V5.02324H14.2326V9.79068ZM14.2326 3.43409H2.33607V2.63952C2.33607 2.42879 2.4144 2.22668 2.55384 2.07767C2.69328 1.92866 2.88241 1.84495 3.0796 1.84495H13.4891C13.6863 1.84495 13.8754 1.92866 14.0148 2.07767C14.1543 2.22668 14.2326 2.42879 14.2326 2.63952V3.43409Z" fill="#F1A132"/>
</svg>
