<svg width="18" height="13" viewBox="0 0 18 13" fill="none" xmlns="http://www.w3.org/2000/svg">
<path d="M4.83464 8.5H7.33464C7.55565 8.5 7.76761 8.4122 7.92389 8.25592C8.08017 8.09964 8.16797 7.88768 8.16797 7.66667C8.16797 7.44565 8.08017 7.23369 7.92389 7.07741C7.76761 6.92113 7.55565 6.83333 7.33464 6.83333H4.83464C4.61362 6.83333 4.40166 6.92113 4.24538 7.07741C4.0891 7.23369 4.0013 7.44565 4.0013 7.66667C4.0013 7.88768 4.0891 8.09964 4.24538 8.25592C4.40166 8.4122 4.61362 8.5 4.83464 8.5ZM14.8346 0.166667H3.16797C2.50493 0.166667 1.86904 0.430059 1.4002 0.8989C0.931361 1.36774 0.667969 2.00363 0.667969 2.66667V10.1667C0.667969 10.8297 0.931361 11.4656 1.4002 11.9344C1.86904 12.4033 2.50493 12.6667 3.16797 12.6667H14.8346C15.4977 12.6667 16.1336 12.4033 16.6024 11.9344C17.0712 11.4656 17.3346 10.8297 17.3346 10.1667V2.66667C17.3346 2.00363 17.0712 1.36774 16.6024 0.8989C16.1336 0.430059 15.4977 0.166667 14.8346 0.166667ZM15.668 10.1667C15.668 10.3877 15.5802 10.5996 15.4239 10.7559C15.2676 10.9122 15.0556 11 14.8346 11H3.16797C2.94696 11 2.73499 10.9122 2.57871 10.7559C2.42243 10.5996 2.33464 10.3877 2.33464 10.1667V5.16667H15.668V10.1667ZM15.668 3.5H2.33464V2.66667C2.33464 2.44565 2.42243 2.23369 2.57871 2.07741C2.73499 1.92113 2.94696 1.83333 3.16797 1.83333H14.8346C15.0556 1.83333 15.2676 1.92113 15.4239 2.07741C15.5802 2.23369 15.668 2.44565 15.668 2.66667V3.5Z" fill="white"/>
</svg>
