<svg width="18" height="18" viewBox="0 0 18 18" fill="none" xmlns="http://www.w3.org/2000/svg">
<path d="M7.33268 9.83333H1.49935C1.27834 9.83333 1.06637 9.92113 0.910093 10.0774C0.753813 10.2337 0.666016 10.4457 0.666016 10.6667V16.5C0.666016 16.721 0.753813 16.933 0.910093 17.0893C1.06637 17.2455 1.27834 17.3333 1.49935 17.3333H7.33268C7.5537 17.3333 7.76566 17.2455 7.92194 17.0893C8.07822 16.933 8.16602 16.721 8.16602 16.5V10.6667C8.16602 10.4457 8.07822 10.2337 7.92194 10.0774C7.76566 9.92113 7.5537 9.83333 7.33268 9.83333ZM6.49935 15.6667H2.33268V11.5H6.49935V15.6667ZM16.4993 0.666664H10.666C10.445 0.666664 10.233 0.754461 10.0768 0.910742C9.92048 1.06702 9.83268 1.27898 9.83268 1.5V7.33333C9.83268 7.55434 9.92048 7.76631 10.0768 7.92259C10.233 8.07887 10.445 8.16666 10.666 8.16666H16.4993C16.7204 8.16666 16.9323 8.07887 17.0886 7.92259C17.2449 7.76631 17.3327 7.55434 17.3327 7.33333V1.5C17.3327 1.27898 17.2449 1.06702 17.0886 0.910742C16.9323 0.754461 16.7204 0.666664 16.4993 0.666664ZM15.666 6.5H11.4993V2.33333H15.666V6.5ZM16.4993 9.83333H10.666C10.445 9.83333 10.233 9.92113 10.0768 10.0774C9.92048 10.2337 9.83268 10.4457 9.83268 10.6667V16.5C9.83268 16.721 9.92048 16.933 10.0768 17.0893C10.233 17.2455 10.445 17.3333 10.666 17.3333H16.4993C16.7204 17.3333 16.9323 17.2455 17.0886 17.0893C17.2449 16.933 17.3327 16.721 17.3327 16.5V10.6667C17.3327 10.4457 17.2449 10.2337 17.0886 10.0774C16.9323 9.92113 16.7204 9.83333 16.4993 9.83333ZM15.666 15.6667H11.4993V11.5H15.666V15.6667ZM7.33268 0.666664H1.49935C1.27834 0.666664 1.06637 0.754461 0.910093 0.910742C0.753813 1.06702 0.666016 1.27898 0.666016 1.5V7.33333C0.666016 7.55434 0.753813 7.76631 0.910093 7.92259C1.06637 8.07887 1.27834 8.16666 1.49935 8.16666H7.33268C7.5537 8.16666 7.76566 8.07887 7.92194 7.92259C8.07822 7.76631 8.16602 7.55434 8.16602 7.33333V1.5C8.16602 1.27898 8.07822 1.06702 7.92194 0.910742C7.76566 0.754461 7.5537 0.666664 7.33268 0.666664ZM6.49935 6.5H2.33268V2.33333H6.49935V6.5Z" fill="white"/>
</svg>
