<svg width="762" height="460" viewBox="0 0 762 460" fill="none" xmlns="http://www.w3.org/2000/svg">
<path d="M0 54.4803H23.9848V38.1437C23.9848 26.3784 27.8824 17.1609 33.5038 8.31818L19.4127 0C8.99431 8.46805 0 24.5798 0 38.2936V54.4803Z" fill="#F1A132"/>
<path d="M79 6.51965H55.0152V22.8563C55.0152 35.5209 50.518 44.7383 45.4962 52.6818L59.5873 61C70.1556 52.1572 79 36.4202 79 22.7064V6.51965Z" fill="#F1A132"/>
<path d="M683 453.48H706.985V437.144C706.985 425.378 710.882 416.161 716.504 407.318L702.413 399C691.994 407.468 683 423.58 683 437.294V453.48Z" fill="#323742"/>
<path d="M762 405.52H738.015V421.856C738.015 434.521 733.518 443.738 728.496 451.682L742.587 460C753.156 451.157 762 435.42 762 421.706V405.52Z" fill="#323742"/>
</svg>
