<svg width="35" height="35" viewBox="0 0 35 35" fill="none" xmlns="http://www.w3.org/2000/svg">
<rect width="35" height="35" rx="5" fill="#F1A132"/>
<path d="M13.9083 18.075C13.8302 18.1525 13.7682 18.2446 13.7259 18.3462C13.6836 18.4477 13.6618 18.5566 13.6618 18.6667C13.6618 18.7767 13.6836 18.8856 13.7259 18.9871C13.7682 19.0887 13.8302 19.1809 13.9083 19.2583L16.4083 21.7583C16.4858 21.8364 16.578 21.8984 16.6795 21.9407C16.7811 21.983 16.89 22.0048 17 22.0048C17.11 22.0048 17.2189 21.983 17.3205 21.9407C17.422 21.8984 17.5142 21.8364 17.5917 21.7583L20.0917 19.2583C20.2486 19.1014 20.3367 18.8886 20.3367 18.6667C20.3367 18.4447 20.2486 18.2319 20.0917 18.075C19.9347 17.9181 19.7219 17.8299 19.5 17.8299C19.2781 17.8299 19.0653 17.9181 18.9083 18.075L17.8333 19.1583V9.49999C17.8333 9.27898 17.7455 9.06701 17.5893 8.91073C17.433 8.75445 17.221 8.66666 17 8.66666C16.779 8.66666 16.567 8.75445 16.4107 8.91073C16.2545 9.06701 16.1667 9.27898 16.1667 9.49999V19.1583L15.0917 18.075C15.0142 17.9969 14.922 17.9349 14.8205 17.8926C14.7189 17.8503 14.61 17.8285 14.5 17.8285C14.39 17.8285 14.2811 17.8503 14.1795 17.8926C14.078 17.9349 13.9858 17.9969 13.9083 18.075ZM22 14.5H20.3333C20.1123 14.5 19.9004 14.5878 19.7441 14.7441C19.5878 14.9003 19.5 15.1123 19.5 15.3333C19.5 15.5543 19.5878 15.7663 19.7441 15.9226C19.9004 16.0789 20.1123 16.1667 20.3333 16.1667H22C22.221 16.1667 22.433 16.2545 22.5893 16.4107C22.7455 16.567 22.8333 16.779 22.8333 17V22.8333C22.8333 23.0543 22.7455 23.2663 22.5893 23.4226C22.433 23.5789 22.221 23.6667 22 23.6667H12C11.779 23.6667 11.567 23.5789 11.4107 23.4226C11.2545 23.2663 11.1667 23.0543 11.1667 22.8333V17C11.1667 16.779 11.2545 16.567 11.4107 16.4107C11.567 16.2545 11.779 16.1667 12 16.1667H13.6667C13.8877 16.1667 14.0996 16.0789 14.2559 15.9226C14.4122 15.7663 14.5 15.5543 14.5 15.3333C14.5 15.1123 14.4122 14.9003 14.2559 14.7441C14.0996 14.5878 13.8877 14.5 13.6667 14.5H12C11.337 14.5 10.7011 14.7634 10.2322 15.2322C9.76339 15.7011 9.5 16.3369 9.5 17V22.8333C9.5 23.4964 9.76339 24.1322 10.2322 24.6011C10.7011 25.0699 11.337 25.3333 12 25.3333H22C22.663 25.3333 23.2989 25.0699 23.7678 24.6011C24.2366 24.1322 24.5 23.4964 24.5 22.8333V17C24.5 16.3369 24.2366 15.7011 23.7678 15.2322C23.2989 14.7634 22.663 14.5 22 14.5Z" fill="white"/>
</svg>
