<svg width="48" height="48" viewBox="0 0 48 48" fill="none" xmlns="http://www.w3.org/2000/svg">
<path d="M37.3992 24.6L25.7992 22.4L21.8992 11.2L18.0992 12.5L21.9992 23.6L14.1992 32.5999L17.1992 35.2L24.9992 26.2L36.5992 28.4L37.3992 24.6Z" fill="#F1A132"/>
<path d="M24 19C21.2 19 19 21.2 19 24C19 26.8 21.2 29 24 29C26.8 29 29 26.8 29 24C29 21.2 26.8 19 24 19ZM24 26C22.9 26 22 25.1 22 24C22 22.9 22.9 22 24 22C25.1 22 26 22.9 26 24C26 25.1 25.1 26 24 26Z" fill="#505767"/>
<path d="M40.6991 27C40.8991 26 40.9991 25 40.9991 24C40.9991 23 40.8991 22 40.6991 21L43.9991 18.6C44.3991 18.3 44.5991 17.7 44.2991 17.2L39.9991 9.8C39.6991 9.3 39.1991 9.1 38.6991 9.4L34.9991 11C33.4991 9.7 31.6991 8.7 29.7991 8L29.3991 3.9C29.2991 3.4 28.8991 3 28.3991 3H19.7991C19.2991 3 18.7991 3.4 18.7991 3.9L18.1991 8C16.2991 8.7 14.4991 9.7 12.9991 11L9.29913 9.3C8.79913 9.1 8.19913 9.3 7.99913 9.8L3.69913 17.2C3.39913 17.7 3.59913 18.3 3.99913 18.6L7.29913 21C7.09913 22 6.99913 23 6.99913 24C6.99913 25 7.09913 26 7.29913 27L3.99913 29.4C3.59913 29.7 3.39913 30.3 3.69913 30.8L7.99913 38.2C8.29913 38.7 8.79913 38.9 9.29913 38.6L12.9991 37C14.4991 38.3 16.2991 39.3 18.1991 40L18.5991 44.1C18.6991 44.6 19.0991 45 19.5991 45H28.1991C28.6991 45 29.1991 44.6 29.1991 44.1L29.5991 40C31.4991 39.3 33.2991 38.3 34.7991 37L38.4991 38.7C38.9991 38.9 39.5991 38.7 39.7991 38.3L44.0991 30.9C44.3991 30.4 44.1991 29.8 43.7991 29.5L40.6991 27ZM23.9991 35C17.8991 35 12.9991 30.1 12.9991 24C12.9991 17.9 17.8991 13 23.9991 13C30.0991 13 34.9991 17.9 34.9991 24C34.9991 30.1 30.0991 35 23.9991 35Z" fill="#505767"/>
</svg>
