<svg width="14" height="18" viewBox="0 0 14 18" fill="none" xmlns="http://www.w3.org/2000/svg">
<path d="M0.333984 9C0.333984 9.22101 0.421782 9.43298 0.578062 9.58926C0.734342 9.74554 0.946304 9.83333 1.16732 9.83333H7.49232L5.57565 11.7417C5.49754 11.8191 5.43555 11.9113 5.39324 12.0129C5.35093 12.1144 5.32915 12.2233 5.32915 12.3333C5.32915 12.4433 5.35093 12.5523 5.39324 12.6538C5.43555 12.7554 5.49754 12.8475 5.57565 12.925C5.65312 13.0031 5.74529 13.0651 5.84684 13.1074C5.94839 13.1497 6.05731 13.1715 6.16732 13.1715C6.27733 13.1715 6.38625 13.1497 6.4878 13.1074C6.58935 13.0651 6.68151 13.0031 6.75898 12.925L10.0923 9.59167C10.1682 9.51241 10.2277 9.41896 10.2673 9.31667C10.3507 9.11378 10.3507 8.88622 10.2673 8.68334C10.2277 8.58104 10.1682 8.48759 10.0923 8.40833L6.75898 5.075C6.68128 4.9973 6.58904 4.93567 6.48752 4.89362C6.38601 4.85157 6.2772 4.82993 6.16732 4.82993C6.05743 4.82993 5.94863 4.85157 5.84711 4.89362C5.74559 4.93567 5.65335 4.9973 5.57565 5.075C5.49795 5.1527 5.43632 5.24494 5.39427 5.34646C5.35222 5.44798 5.33057 5.55679 5.33057 5.66667C5.33057 5.77655 5.35222 5.88536 5.39427 5.98688C5.43632 6.08839 5.49795 6.18064 5.57565 6.25834L7.49232 8.16667H1.16732C0.946304 8.16667 0.734342 8.25447 0.578062 8.41075C0.421782 8.56703 0.333984 8.77899 0.333984 9ZM11.1673 0.666668H2.83398C2.17094 0.666668 1.53506 0.93006 1.06622 1.3989C0.597377 1.86774 0.333984 2.50363 0.333984 3.16667V5.66667C0.333984 5.88768 0.421782 6.09964 0.578062 6.25592C0.734342 6.4122 0.946304 6.5 1.16732 6.5C1.38833 6.5 1.60029 6.4122 1.75657 6.25592C1.91285 6.09964 2.00065 5.88768 2.00065 5.66667V3.16667C2.00065 2.94565 2.08845 2.73369 2.24473 2.57741C2.40101 2.42113 2.61297 2.33333 2.83398 2.33333H11.1673C11.3883 2.33333 11.6003 2.42113 11.7566 2.57741C11.9129 2.73369 12.0007 2.94565 12.0007 3.16667V14.8333C12.0007 15.0543 11.9129 15.2663 11.7566 15.4226C11.6003 15.5789 11.3883 15.6667 11.1673 15.6667H2.83398C2.61297 15.6667 2.40101 15.5789 2.24473 15.4226C2.08845 15.2663 2.00065 15.0543 2.00065 14.8333V12.3333C2.00065 12.1123 1.91285 11.9004 1.75657 11.7441C1.60029 11.5878 1.38833 11.5 1.16732 11.5C0.946304 11.5 0.734342 11.5878 0.578062 11.7441C0.421782 11.9004 0.333984 12.1123 0.333984 12.3333V14.8333C0.333984 15.4964 0.597377 16.1323 1.06622 16.6011C1.53506 17.0699 2.17094 17.3333 2.83398 17.3333H11.1673C11.8304 17.3333 12.4662 17.0699 12.9351 16.6011C13.4039 16.1323 13.6673 15.4964 13.6673 14.8333V3.16667C13.6673 2.50363 13.4039 1.86774 12.9351 1.3989C12.4662 0.93006 11.8304 0.666668 11.1673 0.666668Z" fill="white"/>
</svg>
