<svg width="16" height="18" viewBox="0 0 16 18" fill="none" xmlns="http://www.w3.org/2000/svg">
<path d="M4.90833 10.075C4.83023 10.1525 4.76823 10.2446 4.72592 10.3462C4.68362 10.4477 4.66183 10.5567 4.66183 10.6667C4.66183 10.7767 4.68362 10.8856 4.72592 10.9871C4.76823 11.0887 4.83023 11.1809 4.90833 11.2583L7.40833 13.7583C7.4858 13.8364 7.57797 13.8984 7.67952 13.9407C7.78107 13.983 7.88999 14.0048 8 14.0048C8.11001 14.0048 8.21893 13.983 8.32048 13.9407C8.42203 13.8984 8.5142 13.8364 8.59167 13.7583L11.0917 11.2583C11.2486 11.1014 11.3367 10.8886 11.3367 10.6667C11.3367 10.4447 11.2486 10.2319 11.0917 10.075C10.9347 9.91808 10.7219 9.82992 10.5 9.82992C10.2781 9.82992 10.0653 9.91808 9.90833 10.075L8.83333 11.1583V1.5C8.83333 1.27898 8.74554 1.06702 8.58926 0.910742C8.43297 0.754461 8.22101 0.666664 8 0.666664C7.77899 0.666664 7.56702 0.754461 7.41074 0.910742C7.25446 1.06702 7.16667 1.27898 7.16667 1.5V11.1583L6.09167 10.075C6.0142 9.99689 5.92203 9.9349 5.82048 9.89259C5.71893 9.85028 5.61001 9.8285 5.5 9.8285C5.38999 9.8285 5.28107 9.85028 5.17952 9.89259C5.07797 9.9349 4.9858 9.99689 4.90833 10.075ZM13 6.5H11.3333C11.1123 6.5 10.9004 6.5878 10.7441 6.74408C10.5878 6.90036 10.5 7.11232 10.5 7.33333C10.5 7.55434 10.5878 7.76631 10.7441 7.92259C10.9004 8.07887 11.1123 8.16666 11.3333 8.16666H13C13.221 8.16666 13.433 8.25446 13.5893 8.41074C13.7455 8.56702 13.8333 8.77898 13.8333 9V14.8333C13.8333 15.0543 13.7455 15.2663 13.5893 15.4226C13.433 15.5789 13.221 15.6667 13 15.6667H3C2.77899 15.6667 2.56702 15.5789 2.41074 15.4226C2.25446 15.2663 2.16667 15.0543 2.16667 14.8333V9C2.16667 8.77898 2.25446 8.56702 2.41074 8.41074C2.56702 8.25446 2.77899 8.16666 3 8.16666H4.66667C4.88768 8.16666 5.09964 8.07887 5.25592 7.92259C5.4122 7.76631 5.5 7.55434 5.5 7.33333C5.5 7.11232 5.4122 6.90036 5.25592 6.74408C5.09964 6.5878 4.88768 6.5 4.66667 6.5H3C2.33696 6.5 1.70107 6.76339 1.23223 7.23223C0.763392 7.70107 0.5 8.33696 0.5 9V14.8333C0.5 15.4964 0.763392 16.1323 1.23223 16.6011C1.70107 17.0699 2.33696 17.3333 3 17.3333H13C13.663 17.3333 14.2989 17.0699 14.7678 16.6011C15.2366 16.1323 15.5 15.4964 15.5 14.8333V9C15.5 8.33696 15.2366 7.70107 14.7678 7.23223C14.2989 6.76339 13.663 6.5 13 6.5Z" fill="white"/>
</svg>
