<svg width="18" height="13" viewBox="0 0 18 13" fill="none" xmlns="http://www.w3.org/2000/svg">
<path d="M17.267 6.21667C15.5836 2.89458 12.417 0.833334 9.0003 0.833334C5.58363 0.833334 2.41697 2.89458 0.733633 6.21667C0.687747 6.30603 0.664062 6.40249 0.664062 6.5C0.664063 6.59751 0.687747 6.69397 0.733633 6.78333C2.41697 10.1054 5.58363 12.1667 9.0003 12.1667C12.417 12.1667 15.5836 10.1054 17.267 6.78333C17.3129 6.69397 17.3365 6.59751 17.3365 6.5C17.3365 6.40249 17.3129 6.30603 17.267 6.21667ZM9.0003 10.75C6.35863 10.75 3.85863 9.12792 2.41697 6.5C3.85863 3.87208 6.35863 2.25 9.0003 2.25C11.642 2.25 14.142 3.87208 15.5836 6.5C14.142 9.12792 11.642 10.75 9.0003 10.75ZM9.0003 3.66667C8.34103 3.66667 7.69656 3.83284 7.1484 4.14417C6.60024 4.4555 6.17299 4.89801 5.9207 5.41573C5.66841 5.93345 5.6024 6.50314 5.73102 7.05276C5.85963 7.60237 6.1771 8.10722 6.64328 8.50347C7.10945 8.89972 7.7034 9.16957 8.35 9.27889C8.9966 9.38822 9.66682 9.33211 10.2759 9.11766C10.885 8.90321 11.4056 8.54005 11.7719 8.07412C12.1381 7.60818 12.3336 7.06038 12.3336 6.5C12.3336 5.74855 11.9824 5.02788 11.3573 4.49653C10.7322 3.96518 9.88435 3.66667 9.0003 3.66667ZM9.0003 7.91667C8.67066 7.91667 8.34843 7.83358 8.07435 7.67792C7.80027 7.52225 7.58665 7.301 7.4605 7.04213C7.33435 6.78327 7.30135 6.49843 7.36566 6.22362C7.42997 5.94882 7.5887 5.69639 7.82179 5.49827C8.05488 5.30014 8.35185 5.16522 8.67515 5.11055C8.99845 5.05589 9.33356 5.08395 9.63811 5.19117C9.94265 5.29839 10.2029 5.47997 10.3861 5.71294C10.5692 5.94591 10.667 6.21981 10.667 6.5C10.667 6.87572 10.4914 7.23606 10.1788 7.50173C9.86625 7.76741 9.44233 7.91667 9.0003 7.91667Z" fill="white"/>
</svg>
