<svg width="18" height="18" viewBox="0 0 18 18" fill="none" xmlns="http://www.w3.org/2000/svg">
<path d="M14.8332 0.666664H3.1665C2.50346 0.666664 1.86758 0.930056 1.39874 1.3989C0.929896 1.86774 0.666504 2.50362 0.666504 3.16666V4.14166C0.666385 4.48578 0.737309 4.82622 0.874837 5.14166V5.19166C0.99257 5.45914 1.15933 5.70222 1.3665 5.90833L6.49984 11.0083V16.5C6.49955 16.6416 6.53537 16.781 6.6039 16.9049C6.67243 17.0288 6.77141 17.1333 6.8915 17.2083C7.02412 17.2905 7.17715 17.3338 7.33317 17.3333C7.46362 17.3326 7.59207 17.3012 7.70817 17.2417L11.0415 15.575C11.1789 15.5057 11.2945 15.3998 11.3754 15.2689C11.4563 15.138 11.4994 14.9872 11.4998 14.8333V11.0083L16.5998 5.90833C16.807 5.70222 16.9738 5.45914 17.0915 5.19166V5.14166C17.2405 4.82869 17.3228 4.48815 17.3332 4.14166V3.16666C17.3332 2.50362 17.0698 1.86774 16.6009 1.3989C16.1321 0.930056 15.4962 0.666664 14.8332 0.666664ZM10.0748 10.075C9.9976 10.1529 9.9365 10.2452 9.89503 10.3467C9.85356 10.4483 9.83254 10.557 9.83317 10.6667V14.3167L8.1665 15.15V10.6667C8.16714 10.557 8.14612 10.4483 8.10465 10.3467C8.06318 10.2452 8.00207 10.1529 7.92484 10.075L3.50817 5.66666H14.4915L10.0748 10.075ZM15.6665 4H2.33317V3.16666C2.33317 2.94565 2.42097 2.73369 2.57725 2.57741C2.73353 2.42113 2.94549 2.33333 3.1665 2.33333H14.8332C15.0542 2.33333 15.2661 2.42113 15.4224 2.57741C15.5787 2.73369 15.6665 2.94565 15.6665 3.16666V4Z" fill="white"/>
</svg>
