<svg width="135" height="42" viewBox="0 0 135 42" fill="none" xmlns="http://www.w3.org/2000/svg">
<path d="M131 0H4C1.79086 0 0 1.79086 0 4V38C0 40.2091 1.79086 42 4 42H131C133.209 42 135 40.2091 135 38V4C135 1.79086 133.209 0 131 0Z" fill="black"/>
<path fill-rule="evenodd" clip-rule="evenodd" d="M41.122 10.5C41.553 10.5 41.964 10.588 42.357 10.751C42.747 10.916 43.066 11.139 43.297 11.414L42.773 11.937C42.37 11.467 41.823 11.236 41.123 11.236C40.491 11.236 39.943 11.454 39.479 11.893C39.019 12.334 38.789 12.905 38.789 13.606C38.789 14.306 39.019 14.883 39.479 15.324C39.9191 15.7503 40.5093 15.9864 41.122 15.981C41.792 15.981 42.357 15.758 42.802 15.319C43.095 15.028 43.262 14.626 43.305 14.114H41.122V13.398H44.034C44.069 13.553 44.08 13.703 44.08 13.848C44.08 14.675 43.829 15.338 43.335 15.831C42.768 16.417 42.028 16.711 41.122 16.711C40.257 16.711 39.517 16.412 38.911 15.821C38.303 15.222 38 14.486 38 13.606C38 12.726 38.303 11.99 38.91 11.396C39.517 10.8 40.257 10.5 41.122 10.5ZM68.131 10.5C69.001 10.5 69.736 10.8 70.328 11.405C70.925 12.01 71.219 12.74 71.219 13.605C71.219 14.477 70.925 15.212 70.333 15.812C69.741 16.412 69.006 16.712 68.131 16.712C67.25 16.712 66.516 16.412 65.923 15.812C65.331 15.212 65.037 14.477 65.037 13.606C65.037 12.736 65.331 12 65.923 11.4C66.516 10.8 67.25 10.5 68.131 10.5ZM48.699 10.636V11.366H45.964V13.248H48.43V13.964H45.964V15.846H48.699V16.576H45.189V10.636H48.699ZM53.639 10.636V11.366H51.959V16.576H51.185V11.366H49.507V10.636H53.639ZM57.401 10.636V16.576H56.628V10.636H57.401ZM62.512 10.636V11.366H60.828V16.576H60.06V11.366H58.376V10.636H62.512ZM73.245 10.636L76.167 15.256H76.201L76.167 14.114V10.636H76.94V16.576H76.134L73.074 11.729H73.04L73.074 12.875V16.575H72.306V10.636H73.246H73.245ZM68.131 11.231C67.484 11.231 66.941 11.454 66.496 11.898C66.051 12.343 65.826 12.914 65.826 13.606C65.826 14.298 66.051 14.869 66.496 15.314C66.942 15.758 67.484 15.981 68.131 15.981C68.772 15.981 69.32 15.758 69.761 15.314C70.206 14.869 70.431 14.298 70.431 13.606C70.431 12.914 70.206 12.343 69.761 11.898C69.5494 11.6812 69.2956 11.5101 69.0152 11.3954C68.7348 11.2806 68.4339 11.2247 68.131 11.231Z" fill="white"/>
<path d="M65.16 23.0629C62.805 23.0629 60.882 24.8329 60.882 27.2769C60.882 29.7009 62.805 31.4899 65.16 31.4899C67.52 31.4899 69.443 29.6999 69.443 27.2769C69.443 24.8339 67.519 23.0629 65.16 23.0629ZM65.16 29.8309C63.868 29.8309 62.757 28.7769 62.757 27.2769C62.757 25.7569 63.868 24.7219 65.16 24.7219C66.452 24.7219 67.568 25.7569 67.568 27.2769C67.568 28.7769 66.452 29.8309 65.16 29.8309ZM55.826 23.0629C53.466 23.0629 51.549 24.8329 51.549 27.2769C51.549 29.7009 53.467 31.4899 55.826 31.4899C58.184 31.4899 60.104 29.6999 60.104 27.2769C60.104 24.8339 58.184 23.0629 55.826 23.0629ZM55.826 29.8309C54.533 29.8309 53.418 28.7769 53.418 27.2769C53.418 25.7569 54.533 24.7219 55.826 24.7219C57.118 24.7219 58.23 25.7569 58.23 27.2769C58.23 28.7769 57.118 29.8309 55.826 29.8309ZM44.72 24.3539V26.1449H49.046C48.92 27.1449 48.582 27.8809 48.063 28.3939C47.431 29.0139 46.448 29.7009 44.72 29.7009C44.0948 29.7044 43.4752 29.5836 42.8971 29.3458C42.3189 29.1079 41.7938 28.7576 41.3521 28.3151C40.9104 27.8727 40.561 27.347 40.3241 26.7684C40.0872 26.1899 39.9675 25.5701 39.972 24.9449C39.9676 24.3198 40.0874 23.7001 40.3244 23.1217C40.5613 22.5433 40.9108 22.0177 41.3525 21.5753C41.7941 21.133 42.3192 20.7828 42.8973 20.545C43.4754 20.3071 44.0949 20.1864 44.72 20.1899C46.16 20.1899 47.207 20.7459 47.98 21.4659L49.257 20.2039C48.176 19.1839 46.737 18.3999 44.72 18.3999C41.069 18.3999 38 21.3359 38 24.9449C38 28.5539 41.069 31.4899 44.72 31.4899C46.693 31.4899 48.176 30.8509 49.34 29.6519C50.535 28.4719 50.907 26.8119 50.907 25.4719C50.907 25.0559 50.872 24.6739 50.809 24.3539H44.719H44.72ZM90.136 25.7429C89.784 24.7999 88.697 23.0629 86.484 23.0629C84.292 23.0629 82.466 24.7699 82.466 27.2769C82.466 29.6369 84.273 31.4899 86.695 31.4899C87.3955 31.4964 88.0867 31.3292 88.7067 31.0032C89.3267 30.6773 89.8563 30.2027 90.248 29.6219L88.795 28.6649C88.31 29.3659 87.65 29.8309 86.695 29.8309C85.746 29.8309 85.066 29.4009 84.63 28.5539L90.332 26.2219L90.136 25.7419V25.7429ZM84.322 27.1459C84.272 25.5209 85.599 24.6889 86.548 24.6889C87.293 24.6889 87.924 25.0559 88.135 25.5829L84.322 27.1459ZM79.687 31.2339H81.561V18.8499H79.687V31.2339ZM76.617 23.9999H76.555C76.134 23.5069 75.33 23.0619 74.313 23.0619C72.178 23.0619 70.226 24.9139 70.226 27.2899C70.226 29.6509 72.178 31.4889 74.313 31.4889C75.33 31.4889 76.133 31.0389 76.555 30.5319H76.617V31.1359C76.617 32.7469 75.747 33.6129 74.342 33.6129C73.196 33.6129 72.486 32.7959 72.192 32.1079L70.562 32.7809C71.032 33.8979 72.277 35.2719 74.342 35.2719C76.539 35.2719 78.394 33.9939 78.394 30.8849V23.3179H76.617V23.9999ZM74.473 29.8299C73.181 29.8299 72.1 28.7599 72.1 27.2899C72.1 25.8049 73.181 24.7209 74.473 24.7209C75.746 24.7209 76.75 25.8049 76.75 27.2899C76.75 28.7599 75.746 29.8299 74.473 29.8299ZM98.912 18.8499H94.428V31.2339H96.298V26.5399H98.912C100.988 26.5399 103.024 25.0549 103.024 22.6939C103.024 20.3339 100.983 18.8489 98.912 18.8489V18.8499ZM98.96 24.8189H96.298V20.5719H98.96C99.5321 20.5633 100.084 20.782 100.495 21.18C100.907 21.578 101.143 22.1228 101.153 22.6949C101.153 23.6529 100.356 24.8189 98.96 24.8189ZM110.517 23.0389C109.167 23.0389 107.761 23.6289 107.184 24.9349L108.843 25.6219C109.2 24.9349 109.856 24.7119 110.551 24.7119C111.521 24.7119 112.504 25.2879 112.519 26.3049V26.4349C112.181 26.2419 111.457 25.9549 110.566 25.9549C108.779 25.9549 106.958 26.9279 106.958 28.7419C106.958 30.4019 108.422 31.4699 110.067 31.4699C111.325 31.4699 112.019 30.9099 112.455 30.2569H112.519V31.2139H114.325V26.4639C114.325 24.2679 112.665 23.0389 110.517 23.0389ZM110.291 29.8259C109.68 29.8259 108.828 29.5259 108.828 28.7759C108.828 27.8179 109.89 27.4499 110.81 27.4499C111.633 27.4499 112.02 27.6299 112.52 27.8659C112.372 29.0129 111.374 29.8259 110.291 29.8259ZM120.903 23.3099L118.754 28.6789H118.69L116.469 23.3099H114.452L117.79 30.8129L115.886 34.9869H117.839L122.983 23.3099H120.903ZM104.051 31.2339H105.926V18.8499H104.051V31.2339Z" fill="white"/>
<path fill-rule="evenodd" clip-rule="evenodd" d="M12.109 10.1921C11.849 10.4621 11.698 10.8821 11.698 11.4251V30.8071C11.698 31.3501 11.848 31.7701 12.108 32.0391L12.173 32.0991L23.162 21.2421V20.9851L12.173 10.1291L12.109 10.1921Z" fill="url(#paint0_linear_7_101)"/>
<path fill-rule="evenodd" clip-rule="evenodd" d="M26.82 24.8621L23.162 21.2421V20.9851L26.825 17.3651L26.907 17.4121L31.246 19.8521C32.484 20.5441 32.484 21.6831 31.246 22.3801L26.907 24.8151L26.821 24.8621H26.82Z" fill="url(#paint1_linear_7_101)"/>
<path fill-rule="evenodd" clip-rule="evenodd" d="M26.907 24.815L23.162 21.114L12.109 32.039C12.52 32.466 13.191 32.518 13.953 32.091L26.907 24.815Z" fill="url(#paint2_linear_7_101)"/>
<path fill-rule="evenodd" clip-rule="evenodd" d="M26.907 17.412L13.953 10.137C13.191 9.71401 12.52 9.76501 12.109 10.192L23.162 21.114L26.907 17.412Z" fill="url(#paint3_linear_7_101)"/>
<defs>
<linearGradient id="paint0_linear_7_101" x1="18.7252" y1="31.0094" x2="9.32147" y2="21.7155" gradientUnits="userSpaceOnUse">
<stop stop-color="#00A0FF"/>
<stop offset="0.0066" stop-color="#00A1FF"/>
<stop offset="0.2601" stop-color="#00BEFF"/>
<stop offset="0.5122" stop-color="#00D2FF"/>
<stop offset="0.7604" stop-color="#00DFFF"/>
<stop offset="1" stop-color="#00E3FF"/>
</linearGradient>
<linearGradient id="paint1_linear_7_101" x1="32.8582" y1="21.1124" x2="11.4014" y2="21.1124" gradientUnits="userSpaceOnUse">
<stop stop-color="#FFE000"/>
<stop offset="0.4087" stop-color="#FFBD00"/>
<stop offset="0.7754" stop-color="#FFA500"/>
<stop offset="1" stop-color="#FF9C00"/>
</linearGradient>
<linearGradient id="paint2_linear_7_101" x1="24.8705" y1="22.312" x2="8.8762" y2="6.50344" gradientUnits="userSpaceOnUse">
<stop stop-color="#FF3A44"/>
<stop offset="1" stop-color="#C31162"/>
</linearGradient>
<linearGradient id="paint3_linear_7_101" x1="9.32683" y1="28.8223" x2="16.4678" y2="21.7648" gradientUnits="userSpaceOnUse">
<stop stop-color="#32A071"/>
<stop offset="0.0685" stop-color="#2DA771"/>
<stop offset="0.4762" stop-color="#15CF74"/>
<stop offset="0.8009" stop-color="#06E775"/>
<stop offset="1" stop-color="#00F076"/>
</linearGradient>
</defs>
</svg>
