<svg width="70" height="69" viewBox="0 0 70 69" fill="none" xmlns="http://www.w3.org/2000/svg">
<rect x="0.878906" width="69" height="69" rx="15" fill="#F1A132" fill-opacity="0.3"/>
<path d="M53.2969 43.4582H17.4635C16.9884 43.4582 16.5326 43.6469 16.1966 43.9829C15.8606 44.3189 15.6719 44.7747 15.6719 45.2498C15.6719 45.725 15.8606 46.1807 16.1966 46.5167C16.5326 46.8527 16.9884 47.0415 17.4635 47.0415H53.2969C53.7721 47.0415 54.2278 46.8527 54.5638 46.5167C54.8998 46.1807 55.0885 45.725 55.0885 45.2498C55.0885 44.7747 54.8998 44.3189 54.5638 43.9829C54.2278 43.6469 53.7721 43.4582 53.2969 43.4582ZM53.2969 50.6248H17.4635C16.9884 50.6248 16.5326 50.8136 16.1966 51.1496C15.8606 51.4856 15.6719 51.9413 15.6719 52.4165C15.6719 52.8917 15.8606 53.3474 16.1966 53.6834C16.5326 54.0194 16.9884 54.2082 17.4635 54.2082H53.2969C53.7721 54.2082 54.2278 54.0194 54.5638 53.6834C54.8998 53.3474 55.0885 52.8917 55.0885 52.4165C55.0885 51.9413 54.8998 51.4856 54.5638 51.1496C54.2278 50.8136 53.7721 50.6248 53.2969 50.6248ZM24.6302 25.5415C24.2758 25.5415 23.9294 25.6466 23.6348 25.8435C23.3402 26.0403 23.1105 26.3201 22.9749 26.6475C22.8393 26.9749 22.8038 27.3352 22.873 27.6827C22.9421 28.0303 23.1127 28.3495 23.3633 28.6001C23.6139 28.8506 23.9331 29.0213 24.2807 29.0904C24.6282 29.1595 24.9885 29.1241 25.3158 28.9885C25.6432 28.8528 25.9231 28.6232 26.1199 28.3286C26.3168 28.0339 26.4219 27.6875 26.4219 27.3332C26.4219 26.858 26.2331 26.4023 25.8971 26.0663C25.5611 25.7303 25.1054 25.5415 24.6302 25.5415ZM49.7135 14.7915H21.0469C19.6213 14.7915 18.2542 15.3578 17.2462 16.3658C16.2382 17.3738 15.6719 18.741 15.6719 20.1665V34.4998C15.6719 35.9254 16.2382 37.2925 17.2462 38.3005C18.2542 39.3085 19.6213 39.8748 21.0469 39.8748H49.7135C51.1391 39.8748 52.5062 39.3085 53.5142 38.3005C54.5222 37.2925 55.0885 35.9254 55.0885 34.4998V20.1665C55.0885 18.741 54.5222 17.3738 53.5142 16.3658C52.5062 15.3578 51.1391 14.7915 49.7135 14.7915ZM51.5052 34.4998C51.5052 34.975 51.3164 35.4307 50.9804 35.7667C50.6444 36.1027 50.1887 36.2915 49.7135 36.2915H21.0469C20.5717 36.2915 20.116 36.1027 19.78 35.7667C19.444 35.4307 19.2552 34.975 19.2552 34.4998V20.1665C19.2552 19.6913 19.444 19.2356 19.78 18.8996C20.116 18.5636 20.5717 18.3748 21.0469 18.3748H49.7135C50.1887 18.3748 50.6444 18.5636 50.9804 18.8996C51.3164 19.2356 51.5052 19.6913 51.5052 20.1665V34.4998ZM35.3802 21.9582C34.3171 21.9582 33.2779 22.2734 32.394 22.864C31.5101 23.4546 30.8212 24.2941 30.4144 25.2762C30.0075 26.2584 29.9011 27.3391 30.1085 28.3818C30.3159 29.4244 30.8278 30.3822 31.5795 31.1339C32.3312 31.8856 33.2889 32.3975 34.3316 32.6049C35.3742 32.8123 36.455 32.7058 37.4371 32.299C38.4193 31.8922 39.2587 31.2033 39.8494 30.3194C40.44 29.4354 40.7552 28.3962 40.7552 27.3332C40.7552 25.9076 40.1889 24.5405 39.1809 23.5325C38.1729 22.5245 36.8057 21.9582 35.3802 21.9582ZM35.3802 29.1248C35.0258 29.1248 34.6794 29.0198 34.3848 28.8229C34.0902 28.626 33.8605 28.3462 33.7249 28.0188C33.5893 27.6914 33.5538 27.3312 33.623 26.9836C33.6921 26.6361 33.8627 26.3168 34.1133 26.0663C34.3639 25.8157 34.6831 25.6451 35.0307 25.5759C35.3782 25.5068 35.7385 25.5423 36.0658 25.6779C36.3932 25.8135 36.6731 26.0431 36.8699 26.3378C37.0668 26.6324 37.1719 26.9788 37.1719 27.3332C37.1719 27.8083 36.9831 28.2641 36.6471 28.6001C36.3111 28.9361 35.8554 29.1248 35.3802 29.1248ZM46.1302 25.5415C45.7758 25.5415 45.4294 25.6466 45.1348 25.8435C44.8402 26.0403 44.6105 26.3201 44.4749 26.6475C44.3393 26.9749 44.3038 27.3352 44.373 27.6827C44.4421 28.0303 44.6127 28.3495 44.8633 28.6001C45.1139 28.8506 45.4331 29.0213 45.7807 29.0904C46.1282 29.1595 46.4885 29.1241 46.8158 28.9885C47.1432 28.8528 47.4231 28.6232 47.6199 28.3286C47.8168 28.0339 47.9219 27.6875 47.9219 27.3332C47.9219 26.858 47.7331 26.4023 47.3971 26.0663C47.0611 25.7303 46.6054 25.5415 46.1302 25.5415Z" fill="white"/>
</svg>
