<svg width="70" height="69" viewBox="0 0 70 69" fill="none" xmlns="http://www.w3.org/2000/svg">
<rect x="0.878906" width="69" height="69" rx="15" fill="#F1A132" fill-opacity="0.3"/>
<path d="M29.1068 47.0417C28.5752 47.0417 28.0556 47.1993 27.6137 47.4946C27.1717 47.7899 26.8273 48.2096 26.6238 48.7007C26.4204 49.1918 26.3672 49.7321 26.4709 50.2535C26.5746 50.7748 26.8306 51.2537 27.2064 51.6295C27.5823 52.0054 28.0611 52.2613 28.5825 52.365C29.1038 52.4687 29.6442 52.4155 30.1352 52.2121C30.6263 52.0087 31.046 51.6642 31.3413 51.2223C31.6367 50.7803 31.7943 50.2607 31.7943 49.7292C31.7943 49.0164 31.5111 48.3328 31.0071 47.8288C30.5031 47.3248 29.8195 47.0417 29.1068 47.0417ZM47.9193 41.6667H26.4193C25.9441 41.6667 25.4884 41.4779 25.1524 41.1419C24.8164 40.8059 24.6276 40.3502 24.6276 39.875C24.6276 39.3998 24.8164 38.9441 25.1524 38.6081C25.4884 38.2721 25.9441 38.0833 26.4193 38.0833H41.6323C42.7996 38.0797 43.9342 37.6978 44.8661 36.9949C45.798 36.292 46.477 35.306 46.8013 34.1847L49.6411 24.2409C49.717 23.9744 49.7301 23.694 49.6793 23.4216C49.6285 23.1492 49.5152 22.8923 49.3483 22.6711C49.1815 22.4498 48.9656 22.2703 48.7176 22.1467C48.4696 22.023 48.1964 21.9585 47.9193 21.9583H25.9534C25.5822 20.9138 24.8978 20.0092 23.9936 19.368C23.0894 18.7267 22.0094 18.3799 20.9009 18.375H19.2526C18.7774 18.375 18.3217 18.5638 17.9857 18.8998C17.6497 19.2358 17.4609 19.6915 17.4609 20.1667C17.4609 20.6418 17.6497 21.0976 17.9857 21.4336C18.3217 21.7696 18.7774 21.9583 19.2526 21.9583H20.9027C21.2918 21.9596 21.67 22.0868 21.9807 22.321C22.2914 22.5551 22.5179 22.8836 22.6263 23.2573L22.904 24.2338V24.2427L25.8441 34.5305C24.4756 34.6768 23.2153 35.3425 22.3231 36.3904C21.4308 37.4383 20.9745 38.7886 21.0483 40.163C21.122 41.5373 21.7201 42.831 22.7194 43.7775C23.7187 44.7239 25.0429 45.251 26.4193 45.25H47.9193C48.3944 45.25 48.8502 45.0612 49.1862 44.7252C49.5222 44.3892 49.7109 43.9335 49.7109 43.4583C49.7109 42.9832 49.5222 42.5274 49.1862 42.1914C48.8502 41.8554 48.3944 41.6667 47.9193 41.6667ZM45.5435 25.5417L43.3577 33.1993C43.2495 33.5735 43.0229 33.9027 42.7118 34.1372C42.4007 34.3717 42.0219 34.499 41.6323 34.5H29.5619L29.105 32.9018L27.0034 25.5417H45.5435ZM43.4401 47.0417C42.9086 47.0417 42.389 47.1993 41.947 47.4946C41.5051 47.7899 41.1606 48.2096 40.9572 48.7007C40.7538 49.1918 40.7005 49.7321 40.8042 50.2535C40.9079 50.7748 41.1639 51.2537 41.5398 51.6295C41.9156 52.0054 42.3945 52.2613 42.9158 52.365C43.4371 52.4687 43.9775 52.4155 44.4686 52.2121C44.9596 52.0087 45.3794 51.6642 45.6747 51.2223C45.97 50.7803 46.1276 50.2607 46.1276 49.7292C46.1276 49.0164 45.8445 48.3328 45.3405 47.8288C44.8364 47.3248 44.1529 47.0417 43.4401 47.0417Z" fill="white"/>
</svg>
