<svg width="70" height="69" viewBox="0 0 70 69" fill="none" xmlns="http://www.w3.org/2000/svg">
<rect x="0.878906" width="69" height="69" rx="15" fill="#F1A132" fill-opacity="0.3"/>
<path d="M27.4206 41.6668C28.1333 41.6668 28.8169 41.3837 29.3209 40.8797C29.8249 40.3757 30.1081 39.6921 30.1081 38.9793C30.1168 38.89 30.1168 38.8 30.1081 38.7106L35.1068 33.7118H35.931L38.8156 36.5964V36.7397C38.8156 37.4525 39.0987 38.1361 39.6027 38.6401C40.1067 39.1441 40.7903 39.4272 41.5031 39.4272C42.2158 39.4272 42.8994 39.1441 43.4034 38.6401C43.9074 38.1361 44.1906 37.4525 44.1906 36.7397V36.5964L50.7122 30.021C51.2438 30.021 51.7634 29.8634 52.2053 29.5681C52.6473 29.2728 52.9918 28.853 53.1952 28.362C53.3986 27.8709 53.4518 27.3305 53.3481 26.8092C53.2444 26.2879 52.9884 25.809 52.6126 25.4331C52.2367 25.0573 51.7579 24.8013 51.2365 24.6976C50.7152 24.5939 50.1749 24.6472 49.6838 24.8506C49.1927 25.054 48.773 25.3984 48.4777 25.8404C48.1824 26.2824 48.0247 26.802 48.0247 27.3335C48.016 27.4229 48.016 27.5129 48.0247 27.6022L41.5568 34.0702H41.2702L38.1706 30.9168C38.1706 30.2041 37.8874 29.5205 37.3834 29.0165C36.8794 28.5125 36.1958 28.2293 35.4831 28.2293C34.7703 28.2293 34.0867 28.5125 33.5827 29.0165C33.0787 29.5205 32.7956 30.2041 32.7956 30.9168L27.4206 36.2918C26.7078 36.2918 26.0242 36.575 25.5202 37.079C25.0162 37.583 24.7331 38.2666 24.7331 38.9793C24.7331 39.6921 25.0162 40.3757 25.5202 40.8797C26.0242 41.3837 26.7078 41.6668 27.4206 41.6668ZM51.6081 48.8335H21.1497V18.3752C21.1497 17.9 20.961 17.4443 20.625 17.1083C20.289 16.7723 19.8333 16.5835 19.3581 16.5835C18.8829 16.5835 18.4272 16.7723 18.0912 17.1083C17.7552 17.4443 17.5664 17.9 17.5664 18.3752V50.6252C17.5664 51.1003 17.7552 51.5561 18.0912 51.8921C18.4272 52.2281 18.8829 52.4168 19.3581 52.4168H51.6081C52.0833 52.4168 52.539 52.2281 52.875 51.8921C53.211 51.5561 53.3997 51.1003 53.3997 50.6252C53.3997 50.15 53.211 49.6943 52.875 49.3583C52.539 49.0223 52.0833 48.8335 51.6081 48.8335Z" fill="white"/>
</svg>
