<svg width="18" height="18" viewBox="0 0 18 18" fill="none" xmlns="http://www.w3.org/2000/svg">
<path d="M8.99935 0.666668C7.35118 0.666668 5.74001 1.15541 4.3696 2.07109C2.99919 2.98677 1.93109 4.28825 1.30036 5.81097C0.669626 7.33369 0.504599 9.00925 0.826142 10.6258C1.14769 12.2423 1.94136 13.7271 3.1068 14.8926C4.27223 16.058 5.75709 16.8517 7.3736 17.1732C8.99011 17.4948 10.6657 17.3297 12.1884 16.699C13.7111 16.0683 15.0126 15.0002 15.9283 13.6298C16.8439 12.2593 17.3327 10.6482 17.3327 9C17.3303 6.79061 16.4515 4.6724 14.8892 3.11012C13.327 1.54785 11.2087 0.669094 8.99935 0.666668ZM8.99935 15.6667C7.68081 15.6667 6.39188 15.2757 5.29555 14.5431C4.19922 13.8106 3.34474 12.7694 2.84016 11.5512C2.33557 10.3331 2.20355 8.99261 2.46078 7.6994C2.71802 6.40619 3.35296 5.21831 4.28531 4.28596C5.21766 3.35361 6.40554 2.71867 7.69875 2.46143C8.99196 2.2042 10.3324 2.33622 11.5506 2.8408C12.7687 3.34539 13.8099 4.19987 14.5425 5.2962C15.275 6.39253 15.666 7.68146 15.666 9C15.6638 10.7674 14.9607 12.4618 13.711 13.7116C12.4612 14.9614 10.7668 15.6645 8.99935 15.6667ZM8.99935 8.58333C8.77834 8.58333 8.56638 8.67113 8.4101 8.82741C8.25382 8.98369 8.16602 9.19565 8.16602 9.41667V11.9167C8.16602 12.1377 8.25382 12.3496 8.4101 12.5059C8.56638 12.6622 8.77834 12.75 8.99935 12.75C9.22037 12.75 9.43233 12.6622 9.58861 12.5059C9.74489 12.3496 9.83269 12.1377 9.83269 11.9167V9.41667C9.83269 9.19565 9.74489 8.98369 9.58861 8.82741C9.43233 8.67113 9.22037 8.58333 8.99935 8.58333ZM8.99935 5.25C8.79333 5.25 8.59194 5.31109 8.42063 5.42555C8.24933 5.54001 8.11582 5.7027 8.03698 5.89304C7.95814 6.08338 7.93751 6.29282 7.9777 6.49489C8.01789 6.69695 8.1171 6.88256 8.26278 7.02824C8.40846 7.17392 8.59407 7.27313 8.79613 7.31332C8.9982 7.35351 9.20764 7.33288 9.39798 7.25404C9.58832 7.1752 9.75101 7.04169 9.86547 6.87039C9.97993 6.69909 10.041 6.49769 10.041 6.29167C10.041 6.0154 9.93127 5.75045 9.73592 5.5551C9.54057 5.35975 9.27562 5.25 8.99935 5.25Z" fill="white"/>
</svg>
