<svg width="431" height="144" viewBox="0 0 431 144" fill="none" xmlns="http://www.w3.org/2000/svg">
<path d="M66 99.1807C55.6 99.1807 20.3372 99.8766 1 36.8593V144H430V52.0358C413.528 72.6943 404.483 59.6866 394.19 52.0358L385.15 36.8593C375.929 28.6776 359.8 0.867283 331.792 47.9325C308.181 96.0466 283.247 76.4485 275.734 56.7346C266.744 -0.621644 246.05 -17.9279 223.734 24.7983C214.749 53.2487 197.385 97.817 177.8 60.5815C158.109 12.7323 135.55 16.8465 120.187 42.3959C93.95 103.879 76.4 99.1807 66 99.1807Z" fill="url(#paint0_linear_849_176)"/>
<path d="M1.70703 36.8444C20.9805 99.8353 56.1271 99.1397 66.4929 99.1397C76.8586 99.1397 94.3508 103.836 120.501 42.3786C135.814 16.8398 158.298 12.7274 177.924 60.5566C196.733 96.4191 213.486 56.3676 222.694 27.9594C223.378 25.8488 224.222 23.7661 225.3 21.8269C246.414 -16.1424 265.842 -0.0672817 274.892 52.7743C275.337 55.3747 275.954 57.9813 277.119 60.3485C286.091 78.5804 309.331 93.0338 331.409 47.9129C355.533 7.25741 370.815 22.4952 380.453 32.6626C383.139 35.4963 385.606 38.5529 387.6 41.9097L389.726 45.4895C392.285 49.7969 395.621 53.6188 399.5 56.7893C407.641 63.4426 416.063 68.6548 429.294 52.0144" stroke="#F1A132" stroke-width="2" stroke-linecap="round"/>
<defs>
<linearGradient id="paint0_linear_849_176" x1="215.5" y1="1" x2="215.5" y2="144" gradientUnits="userSpaceOnUse">
<stop stop-color="#F1A132" stop-opacity="0.6"/>
<stop offset="1" stop-color="white" stop-opacity="0"/>
</linearGradient>
</defs>
</svg>
