<svg width="13" height="13" viewBox="0 0 13 13" fill="none" xmlns="http://www.w3.org/2000/svg">
<path d="M11.9203 0.249999H1.33281C1.2138 0.248346 1.09563 0.270153 0.985041 0.314176C0.874456 0.358199 0.773627 0.423574 0.688311 0.506569C0.602995 0.589563 0.534863 0.688551 0.487807 0.79788C0.440751 0.907208 0.415693 1.02473 0.414062 1.14375V11.8562C0.415693 11.9753 0.440751 12.0928 0.487807 12.2021C0.534863 12.3114 0.602995 12.4104 0.688311 12.4934C0.773627 12.5764 0.874456 12.6418 0.985041 12.6858C1.09563 12.7298 1.2138 12.7517 1.33281 12.75H11.9203C12.0393 12.7517 12.1575 12.7298 12.2681 12.6858C12.3787 12.6418 12.4795 12.5764 12.5648 12.4934C12.6501 12.4104 12.7183 12.3114 12.7653 12.2021C12.8124 12.0928 12.8374 11.9753 12.8391 11.8562V1.14375C12.8374 1.02473 12.8124 0.907208 12.7653 0.79788C12.7183 0.688551 12.6501 0.589563 12.5648 0.506569C12.4795 0.423574 12.3787 0.358199 12.2681 0.314176C12.1575 0.270153 12.0393 0.248346 11.9203 0.249999ZM4.18281 10.7125H2.30781V5.0875H4.18281V10.7125ZM3.24531 4.3C2.98673 4.3 2.73873 4.19728 2.55588 4.01443C2.37304 3.83158 2.27031 3.58358 2.27031 3.325C2.27031 3.06641 2.37304 2.81842 2.55588 2.63557C2.73873 2.45272 2.98673 2.35 3.24531 2.35C3.38262 2.33443 3.52167 2.34803 3.65336 2.38993C3.78505 2.43182 3.9064 2.50106 4.00947 2.5931C4.11255 2.68514 4.19502 2.79792 4.25148 2.92405C4.30795 3.05018 4.33714 3.18681 4.33714 3.325C4.33714 3.46319 4.30795 3.59982 4.25148 3.72595C4.19502 3.85207 4.11255 3.96485 4.00947 4.0569C3.9064 4.14894 3.78505 4.21818 3.65336 4.26007C3.52167 4.30196 3.38262 4.31557 3.24531 4.3ZM10.9453 10.7125H9.07031V7.69375C9.07031 6.9375 8.80156 6.44375 8.12031 6.44375C7.90948 6.44529 7.70418 6.51142 7.53208 6.63323C7.35999 6.75504 7.22937 6.92667 7.15781 7.125C7.1089 7.2719 7.08771 7.42661 7.09531 7.58125V10.7062H5.22031V5.08125H7.09531V5.875C7.26564 5.57944 7.51338 5.33595 7.81184 5.17075C8.1103 5.00555 8.44817 4.92491 8.78906 4.9375C10.0391 4.9375 10.9453 5.74375 10.9453 7.475V10.7125Z" fill="white" fill-opacity="0.3"/>
</svg>
