<svg width="116" height="124" viewBox="0 0 116 124" fill="none" xmlns="http://www.w3.org/2000/svg">
<g filter="url(#filter0_d_4_927)">
<path d="M58 42C52.5 42 48 46.5 48 52V56H52V52C52 48.7 54.7 46 58 46C61.3 46 64 48.7 64 52V56H68V52C68 46.5 63.5 42 58 42Z" fill="#505767"/>
<path d="M70 82H46C43.8 82 42 80.2 42 78V60C42 57.8 43.8 56 46 56H70C72.2 56 74 57.8 74 60V78C74 80.2 72.2 82 70 82Z" fill="#505767"/>
<path d="M58 72C59.6569 72 61 70.6569 61 69C61 67.3431 59.6569 66 58 66C56.3431 66 55 67.3431 55 69C55 70.6569 56.3431 72 58 72Z" fill="#F1A132"/>
</g>
<defs>
<filter id="filter0_d_4_927" x="-8" y="-4" width="132" height="132" filterUnits="userSpaceOnUse" color-interpolation-filters="sRGB">
<feFlood flood-opacity="0" result="BackgroundImageFix"/>
<feColorMatrix in="SourceAlpha" type="matrix" values="0 0 0 0 0 0 0 0 0 0 0 0 0 0 0 0 0 0 127 0" result="hardAlpha"/>
<feOffset/>
<feGaussianBlur stdDeviation="21"/>
<feColorMatrix type="matrix" values="0 0 0 0 0.945098 0 0 0 0 0.631373 0 0 0 0 0.196078 0 0 0 0.39 0"/>
<feBlend mode="normal" in2="BackgroundImageFix" result="effect1_dropShadow_4_927"/>
<feBlend mode="normal" in="SourceGraphic" in2="effect1_dropShadow_4_927" result="shape"/>
</filter>
</defs>
</svg>
