<svg width="24" height="25" viewBox="0 0 24 25" fill="none" xmlns="http://www.w3.org/2000/svg">
<g clip-path="url(#clip0_844_13)">
<path d="M23.4004 15.4723C21.8388 21.7368 15.4919 25.5449 9.2363 23.9832C2.97162 22.4217 -0.836495 16.075 0.725156 9.81955C2.28672 3.55506 8.62444 -0.253059 14.8891 1.30859C21.1447 2.86102 24.962 9.20769 23.4004 15.4723Z" fill="url(#paint0_linear_844_13)"/>
<path d="M14.4369 7.3455V6.845H17.9046V7.3455L16.9215 7.47062C16.7308 7.49446 16.6176 7.54808 16.5819 7.6315C16.5461 7.703 16.5283 7.94133 16.5283 8.3465V19H15.5451L8.985 8.40012V17.4985C8.985 17.9037 9.00288 18.148 9.03863 18.2314C9.07438 18.3029 9.18758 18.3505 9.37825 18.3744L10.3614 18.4995V19H6.89363V18.4995L7.87675 18.3744C8.06742 18.3505 8.18063 18.3029 8.21638 18.2314C8.25213 18.148 8.27 17.9037 8.27 17.4985V8.3465C8.27 7.94133 8.25213 7.703 8.21638 7.6315C8.18063 7.54808 8.06742 7.49446 7.87675 7.47062L6.89363 7.3455V6.845H10.4865L15.8133 15.4071V8.3465C15.8133 7.94133 15.7954 7.703 15.7596 7.6315C15.7239 7.54808 15.6107 7.49446 15.42 7.47062L14.4369 7.3455Z" fill="white"/>
</g>
<defs>
<linearGradient id="paint0_linear_844_13" x1="12.0562" y1="0.952825" x2="12.0562" y2="24.3311" gradientUnits="userSpaceOnUse">
<stop stop-color="#F9AA4B"/>
<stop offset="1" stop-color="#F7931A"/>
</linearGradient>
<clipPath id="clip0_844_13">
<rect width="23.375" height="23.375" fill="white" transform="translate(0.375 0.958328)"/>
</clipPath>
</defs>
</svg>
