<svg width="57" height="33" viewBox="0 0 57 33" fill="none" xmlns="http://www.w3.org/2000/svg">
<path d="M52.5656 3.71988C50.3898 1.54462 47.4939 0.239604 44.423 0.0504413C41.3522 -0.138721 38.318 0.80101 35.8917 2.69278C33.6761 0.971407 30.9502 0.0367216 28.1444 0.0361779C25.3386 0.0356343 22.6126 0.969265 20.3962 2.68978C17.8686 0.706382 14.6792 -0.237463 11.4792 0.0509368C8.2792 0.339335 5.30997 1.83823 3.17765 4.24161C1.04532 6.645 -0.0892718 9.77161 0.0054919 12.9832C0.100256 16.1947 1.41723 19.2491 3.68755 21.5225L11.441 29.277C11.447 29.2829 11.453 29.2885 11.4598 29.2945C11.4665 29.3005 11.4684 29.3033 11.4727 29.3076C11.4808 29.3157 11.4894 29.323 11.4975 29.3311C11.6207 29.4531 11.7458 29.5719 11.8728 29.6876C11.9381 29.7475 12.0042 29.8055 12.0706 29.8639C12.1245 29.9108 12.1787 29.9573 12.2331 30.0033C14.4433 31.876 17.2307 32.9313 20.1269 32.9913C23.0234 33.0516 25.8521 32.1132 28.1382 30.3338C30.5646 32.2255 33.5988 33.1653 36.6695 32.9761C39.7405 32.787 42.6364 31.4819 44.8122 29.3067L52.5658 21.5532C54.9272 19.1866 56.2533 15.9798 56.2533 12.6365C56.2533 9.29327 54.927 6.08656 52.5656 3.71988ZM28.142 3.32053C29.9854 3.31934 31.7878 3.8651 33.3208 4.88869C34.8541 5.91227 36.0489 7.36768 36.7546 9.07072C37.4602 10.7738 37.6447 12.6478 37.2847 14.4558C36.9248 16.2637 36.0365 17.9242 34.7324 19.2271L28.142 25.8174L21.5513 19.2271C20.2472 17.9242 19.359 16.2637 18.9991 14.4557C18.6391 12.6478 18.8236 10.7737 19.5292 9.07064C20.2348 7.36759 21.4299 5.91218 22.963 4.88861C24.4962 3.86504 26.2985 3.31931 28.142 3.32053ZM11.0677 20.3903C11.0644 19.1658 11.3039 17.9528 11.7725 16.8216C12.2411 15.6903 12.9295 14.6632 13.7977 13.7998L15.5518 12.0457C15.4669 13.799 15.7498 15.5507 16.3825 17.1882C17.0151 18.8255 17.9835 20.3124 19.2252 21.5532L25.6809 28.009C24.2884 28.9843 22.655 29.5587 20.9585 29.6694C19.2622 29.7802 17.5678 29.4232 16.0603 28.6373C14.5529 27.8511 13.2901 26.6666 12.4096 25.2122C11.5292 23.758 11.0653 22.0904 11.0677 20.3903ZM6.0133 19.1962C4.36362 17.5469 3.39247 15.3389 3.29167 13.0083C3.19088 10.6778 3.96776 8.39418 5.46886 6.60863C6.96997 4.82306 9.08615 3.66538 11.3993 3.36427C13.7126 3.06316 16.0546 3.64054 17.9628 4.98231L11.4716 11.4735C10.297 12.6417 9.36572 14.0314 8.73176 15.5619C8.09783 17.0925 7.77374 18.7336 7.7783 20.3903C7.7783 20.5858 7.78286 20.7806 7.792 20.9749L6.0133 19.1962ZM35.896 29.7104C33.9917 29.7149 32.1325 29.1316 30.5721 28.0401L37.0595 21.5532C38.3013 20.3124 39.2695 18.8255 39.9021 17.1881C40.5347 15.5507 40.8177 13.799 40.7329 12.0457L42.487 13.7998C43.7905 15.1033 44.678 16.7641 45.0376 18.5721C45.3973 20.38 45.2127 22.254 44.507 23.9571C43.8016 25.6601 42.6069 27.1157 41.0743 28.1398C39.5414 29.1639 37.7394 29.7104 35.896 29.7104ZM50.2399 19.2271L48.4921 20.9749C48.501 20.7808 48.5055 20.586 48.5058 20.3903C48.5103 18.7336 48.1862 17.0925 47.5523 15.5619C46.9184 14.0314 45.987 12.6417 44.8124 11.4735L38.3257 4.98663C40.2373 3.65641 42.5776 3.09007 44.8859 3.3991C47.1942 3.70811 49.3032 4.87013 50.7976 6.65631C52.292 8.4425 53.0635 10.7234 52.9603 13.05C52.8571 15.3766 51.8867 17.5803 50.2399 19.2271Z" fill="#F1A132"/>
</svg>
