<svg width="24" height="25" viewBox="0 0 24 25" fill="none" xmlns="http://www.w3.org/2000/svg">
<g clip-path="url(#clip0_844_5)">
<path d="M23.0722 15.4723C21.5107 21.7368 15.1637 25.5449 8.90818 23.9833C2.6435 22.4217 -1.16462 16.075 0.397031 9.81957C1.95859 3.55507 8.29632 -0.253044 14.561 1.30861C20.8165 2.86104 24.6339 9.20771 23.0722 15.4723Z" fill="white"/>
<path d="M11.9182 18.5531C12.6332 18.5531 13.2231 18.3863 13.6878 18.0526C14.1645 17.707 14.4028 17.1708 14.4028 16.4439C14.4028 15.9076 14.2419 15.4607 13.9202 15.1032C13.6104 14.7457 13.0503 14.4478 12.2399 14.2095L10.5776 13.709C9.7434 13.4587 9.0999 13.0297 8.64706 12.422C8.20615 11.8023 7.98569 11.0337 7.98569 10.1161C7.98569 9.50837 8.12273 8.94233 8.39681 8.418C8.68281 7.89366 9.11181 7.47062 9.68381 7.14887C10.2677 6.82712 11.0006 6.66624 11.8824 6.66624C12.8477 6.66624 13.6282 6.84499 14.2241 7.2025C14.8199 7.54808 15.237 8.00091 15.4753 8.56099C15.7136 9.12108 15.7732 9.72287 15.6541 10.3664L13.5984 10.7417C13.7891 9.6335 13.7057 8.78145 13.3482 8.18562C13.0026 7.58979 12.4366 7.29187 11.6501 7.29187C11.0423 7.29187 10.5537 7.47062 10.1843 7.82812C9.82681 8.18562 9.64806 8.69804 9.64806 9.36537C9.64806 9.91354 9.80298 10.3962 10.1128 10.8132C10.4346 11.2303 10.9589 11.5521 11.6858 11.7785L13.3482 12.279C14.2539 12.5412 14.9331 12.9404 15.3859 13.4766C15.8388 14.001 16.0652 14.7338 16.0652 15.6752C16.0652 16.3426 15.9103 16.9444 15.6004 17.4806C15.3025 18.005 14.8437 18.422 14.2241 18.7319C13.6163 19.0298 12.8536 19.1787 11.9361 19.1787C11.2687 19.1787 10.6371 19.0834 10.0413 18.8927C9.44548 18.6902 8.94498 18.3625 8.53981 17.9096C8.14656 17.4568 7.89631 16.8431 7.78906 16.0685L8.98669 15.6395C9.04627 16.4022 9.2131 16.998 9.48719 17.427C9.77319 17.8441 10.1247 18.136 10.5418 18.3029C10.9708 18.4697 11.4296 18.5531 11.9182 18.5531Z" fill="#F1A132"/>
</g>
<defs>
<clipPath id="clip0_844_5">
<rect width="23.375" height="23.375" fill="white" transform="translate(0.046875 0.958328)"/>
</clipPath>
</defs>
</svg>
