<svg width="6" height="10" viewBox="0 0 6 10" fill="none" xmlns="http://www.w3.org/2000/svg">
<path d="M5.35743 4.40834L1.8241 0.875008C1.74663 0.796901 1.65446 0.734906 1.55291 0.692598C1.45136 0.650291 1.34244 0.62851 1.23243 0.62851C1.12242 0.62851 1.0135 0.650291 0.91195 0.692598C0.810401 0.734906 0.718234 0.796901 0.640764 0.875008C0.485555 1.03114 0.398438 1.24235 0.398438 1.46251C0.398438 1.68266 0.485555 1.89387 0.640764 2.05001L3.59076 5.00001L0.640764 7.95001C0.485555 8.10614 0.398438 8.31735 0.398438 8.53751C0.398438 8.75766 0.485555 8.96887 0.640764 9.12501C0.718631 9.20224 0.810978 9.26335 0.912509 9.30482C1.01404 9.34629 1.12276 9.36731 1.23243 9.36667C1.3421 9.36731 1.45082 9.34629 1.55235 9.30482C1.65388 9.26335 1.74623 9.20224 1.8241 9.12501L5.35743 5.59167C5.43554 5.5142 5.49753 5.42204 5.53984 5.32049C5.58215 5.21894 5.60393 5.11002 5.60393 5.00001C5.60393 4.89 5.58215 4.78108 5.53984 4.67953C5.49753 4.57798 5.43554 4.48581 5.35743 4.40834Z" fill="white"/>
</svg>
