<svg width="48" height="48" viewBox="0 0 48 48" fill="none" xmlns="http://www.w3.org/2000/svg">
<path d="M13 30H35V42H13V30Z" fill="#F1A132"/>
<path d="M10 30C12.2091 30 14 28.2091 14 26C14 23.7909 12.2091 22 10 22C7.79086 22 6 23.7909 6 26C6 28.2091 7.79086 30 10 30Z" fill="#FFA726"/>
<path d="M38 30C40.2091 30 42 28.2091 42 26C42 23.7909 40.2091 22 38 22C35.7909 22 34 23.7909 34 26C34 28.2091 35.7909 30 38 30Z" fill="#FFA726"/>
<path d="M39 19C39 6.30002 9 10.7 9 19V29C9 37.3 15.7 44 24 44C32.3 44 39 37.3 39 29V19Z" fill="#505767"/>
<path d="M30 28C31.1046 28 32 27.1046 32 26C32 24.8954 31.1046 24 30 24C28.8954 24 28 24.8954 28 26C28 27.1046 28.8954 28 30 28Z" fill="white"/>
<path d="M18 28C19.1046 28 20 27.1046 20 26C20 24.8954 19.1046 24 18 24C16.8954 24 16 24.8954 16 26C16 27.1046 16.8954 28 18 28Z" fill="white"/>
<path d="M24 2C15.5 2 3 7.8 3 35.6L13 42V24L29.8 14.2L35 21V42L45 33.8C45 28.2 44.1 4.8 29.6 4.8L28.2 2H24Z" fill="#F1A132"/>
<path d="M45 24C44.4 24 44 24.4 44 25V18C44 9.2 36.8 2 28 2H19C18.4 2 18 2.4 18 3C18 3.6 18.4 4 19 4H28C35.7 4 42 10.3 42 18V28C42 28.6 42.4 29 43 29C43.6 29 44 28.6 44 28V30C44 33.9 40.9 37 37 37H24C23.4 37 23 37.4 23 38C23 38.6 23.4 39 24 39H37C42 39 46 35 46 30V25C46 24.4 45.6 24 45 24Z" fill="#757575"/>
<path d="M45 22H44C42.9 22 42 22.9 42 24V28C42 29.1 42.9 30 44 30H45C46.1 30 47 29.1 47 28V24C47 22.9 46.1 22 45 22Z" fill="white"/>
<path d="M24 40C25.1046 40 26 39.1046 26 38C26 36.8954 25.1046 36 24 36C22.8954 36 22 36.8954 22 38C22 39.1046 22.8954 40 24 40Z" fill="white"/>
</svg>
