<svg width="44" height="44" viewBox="0 0 44 44" fill="none" xmlns="http://www.w3.org/2000/svg">
<path d="M10.6889 18.688C12.2711 18.688 13.8178 18.2188 15.1334 17.3398C16.449 16.4607 17.4744 15.2113 18.0799 13.7495C18.6854 12.2877 18.8438 10.6791 18.5351 9.12728C18.2265 7.57543 17.4645 6.14997 16.3457 5.03115C15.2269 3.91233 13.8014 3.1504 12.2496 2.84172C10.6977 2.53304 9.08921 2.69146 7.6274 3.29696C6.16559 3.90247 4.91616 4.92785 4.03711 6.24344C3.15806 7.55903 2.68887 9.10575 2.68887 10.688C2.69099 12.8091 3.53452 14.8427 5.03435 16.3425C6.53419 17.8423 8.56779 18.6859 10.6889 18.688V18.688ZM10.6889 8.02133C11.2163 8.02133 11.7319 8.17773 12.1704 8.47075C12.6089 8.76376 12.9507 9.18024 13.1525 9.66751C13.3544 10.1548 13.4072 10.691 13.3043 11.2082C13.2014 11.7255 12.9474 12.2007 12.5745 12.5736C12.2015 12.9466 11.7264 13.2005 11.2091 13.3034C10.6918 13.4063 10.1556 13.3535 9.66838 13.1517C9.18111 12.9498 8.76463 12.6081 8.47162 12.1695C8.1786 11.731 8.0222 11.2154 8.0222 10.688C8.0222 9.98076 8.30315 9.30248 8.80325 8.80238C9.30335 8.30229 9.98162 8.02133 10.6889 8.02133V8.02133ZM33.3129 25.312C31.7306 25.312 30.1839 25.7812 28.8683 26.6602C27.5527 27.5393 26.5273 28.7887 25.9218 30.2505C25.3163 31.7123 25.1579 33.3209 25.4666 34.8727C25.7753 36.4246 26.5372 37.85 27.656 38.9689C28.7748 40.0877 30.2003 40.8496 31.7521 41.1583C33.304 41.467 34.9125 41.3085 36.3743 40.703C37.8361 40.0975 39.0856 39.0722 39.9646 37.7566C40.8437 36.441 41.3129 34.8943 41.3129 33.312C41.3108 31.1909 40.4672 29.1573 38.9674 27.6575C37.4676 26.1577 35.434 25.3141 33.3129 25.312V25.312ZM33.3129 35.9787C32.7855 35.9787 32.2699 35.8223 31.8313 35.5293C31.3928 35.2362 31.051 34.8198 30.8492 34.3325C30.6474 33.8452 30.5945 33.309 30.6974 32.7918C30.8003 32.2745 31.0543 31.7993 31.4272 31.4264C31.8002 31.0534 32.2753 30.7995 32.7926 30.6966C33.3099 30.5937 33.8461 30.6465 34.3334 30.8483C34.8206 31.0502 35.2371 31.3919 35.5301 31.8305C35.8231 32.269 35.9795 32.7846 35.9795 33.312C35.9795 34.0192 35.6986 34.6975 35.1985 35.1976C34.6984 35.6977 34.0201 35.9787 33.3129 35.9787ZM42.5529 1.448C42.0528 0.948078 41.3746 0.667236 40.6675 0.667236C39.9604 0.667236 39.2823 0.948078 38.7822 1.448L1.44887 38.7813C1.19417 39.0273 0.991021 39.3216 0.851264 39.6469C0.711507 39.9723 0.637943 40.3222 0.634866 40.6763C0.631789 41.0303 0.69926 41.3815 0.833342 41.7092C0.967425 42.0369 1.16543 42.3347 1.41581 42.5851C1.66619 42.8354 1.96393 43.0334 2.29166 43.1675C2.61938 43.3016 2.97053 43.3691 3.3246 43.366C3.67868 43.3629 4.0286 43.2894 4.35395 43.1496C4.67929 43.0098 4.97354 42.8067 5.21953 42.552L42.5529 5.21867C43.0528 4.71859 43.3336 4.04044 43.3336 3.33333C43.3336 2.62623 43.0528 1.94807 42.5529 1.448V1.448Z" fill="white"/>
</svg>
