<svg width="69" height="69" viewBox="0 0 69 69" fill="none" xmlns="http://www.w3.org/2000/svg">
<rect width="69" height="69" rx="15" fill="#F1A132" fill-opacity="0.3"/>
<path d="M23.6889 30.688C25.2711 30.688 26.8178 30.2188 28.1334 29.3398C29.449 28.4607 30.4744 27.2113 31.0799 25.7495C31.6854 24.2877 31.8438 22.6791 31.5351 21.1273C31.2265 19.5754 30.4645 18.15 29.3457 17.0311C28.2269 15.9123 26.8014 15.1504 25.2496 14.8417C23.6977 14.533 22.0892 14.6915 20.6274 15.297C19.1656 15.9025 17.9162 16.9278 17.0371 18.2434C16.1581 19.559 15.6889 21.1057 15.6889 22.688C15.691 24.8091 16.5345 26.8427 18.0344 28.3425C19.5342 29.8423 21.5678 30.6859 23.6889 30.688ZM23.6889 20.0213C24.2163 20.0213 24.7319 20.1777 25.1704 20.4707C25.6089 20.7638 25.9507 21.1802 26.1525 21.6675C26.3544 22.1548 26.4072 22.691 26.3043 23.2082C26.2014 23.7255 25.9474 24.2007 25.5745 24.5736C25.2015 24.9466 24.7264 25.2005 24.2091 25.3034C23.6918 25.4063 23.1556 25.3535 22.6684 25.1517C22.1811 24.9498 21.7646 24.6081 21.4716 24.1695C21.1786 23.731 21.0222 23.2154 21.0222 22.688C21.0222 21.9808 21.3032 21.3025 21.8032 20.8024C22.3033 20.3023 22.9816 20.0213 23.6889 20.0213ZM46.3129 37.312C44.7306 37.312 43.1839 37.7812 41.8683 38.6602C40.5527 39.5393 39.5273 40.7887 38.9218 42.2505C38.3163 43.7123 38.1579 45.3209 38.4666 46.8727C38.7753 48.4246 39.5372 49.85 40.656 50.9689C41.7748 52.0877 43.2003 52.8496 44.7521 53.1583C46.304 53.467 47.9125 53.3085 49.3743 52.703C50.8361 52.0975 52.0856 51.0722 52.9646 49.7566C53.8437 48.441 54.3129 46.8943 54.3129 45.312C54.3108 43.1909 53.4672 41.1573 51.9674 39.6575C50.4676 38.1577 48.434 37.3141 46.3129 37.312ZM46.3129 47.9787C45.7855 47.9787 45.2699 47.8223 44.8313 47.5293C44.3928 47.2362 44.051 46.8198 43.8492 46.3325C43.6474 45.8452 43.5945 45.309 43.6974 44.7918C43.8003 44.2745 44.0543 43.7993 44.4272 43.4264C44.8002 43.0534 45.2753 42.7995 45.7926 42.6966C46.3099 42.5937 46.8461 42.6465 47.3334 42.8483C47.8206 43.0502 48.2371 43.392 48.5301 43.8305C48.8231 44.269 48.9795 44.7846 48.9795 45.312C48.9795 46.0192 48.6986 46.6975 48.1985 47.1976C47.6984 47.6977 47.0201 47.9787 46.3129 47.9787ZM55.5529 13.448C55.0528 12.9481 54.3746 12.6672 53.6675 12.6672C52.9604 12.6672 52.2823 12.9481 51.7822 13.448L14.4489 50.7813C14.1942 51.0273 13.991 51.3216 13.8513 51.6469C13.7115 51.9723 13.6379 52.3222 13.6349 52.6763C13.6318 53.0303 13.6993 53.3815 13.8333 53.7092C13.9674 54.0369 14.1654 54.3347 14.4158 54.5851C14.6662 54.8354 14.9639 55.0334 15.2917 55.1675C15.6194 55.3016 15.9705 55.3691 16.3246 55.366C16.6787 55.3629 17.0286 55.2894 17.3539 55.1496C17.6793 55.0098 17.9735 54.8067 18.2195 54.552L55.5529 17.2187C56.0528 16.7186 56.3336 16.0404 56.3336 15.3333C56.3336 14.6262 56.0528 13.9481 55.5529 13.448Z" fill="white"/>
</svg>
