<svg width="23" height="24" viewBox="0 0 23 24" fill="none" xmlns="http://www.w3.org/2000/svg">
<path d="M20.5992 7.99971L7.71919 0.613043C7.02224 0.210589 6.23118 -0.000240195 5.42638 0.00197033C4.62158 0.00418086 3.83169 0.219352 3.13696 0.625628C2.44223 1.0319 1.8674 1.61481 1.47085 2.31515C1.07431 3.01548 0.870176 3.80829 0.879193 4.61304V19.4397C0.879193 20.6491 1.35962 21.809 2.21479 22.6641C3.06995 23.5193 4.2298 23.9997 5.43919 23.9997C6.23978 23.9984 7.02598 23.7869 7.71919 23.3864L20.5992 15.9997C21.2913 15.5992 21.8659 15.0237 22.2653 14.331C22.6648 13.6382 22.875 12.8527 22.875 12.053C22.875 11.2534 22.6648 10.4678 22.2653 9.77513C21.8659 9.08242 21.2913 8.50692 20.5992 8.10638V7.99971ZM19.2659 13.5864L6.38586 21.0797C6.09717 21.2433 5.77101 21.3293 5.43919 21.3293C5.10737 21.3293 4.78121 21.2433 4.49253 21.0797C4.20465 20.9135 3.96561 20.6744 3.79944 20.3866C3.63326 20.0987 3.5458 19.7721 3.54586 19.4397V4.55971C3.5458 4.2273 3.63326 3.90074 3.79944 3.61286C3.96561 3.32497 4.20465 3.08591 4.49253 2.91971C4.7824 2.75858 5.10759 2.67156 5.43919 2.66638C5.77057 2.67318 6.09537 2.7601 6.38586 2.91971L19.2659 10.3597C19.5538 10.5258 19.793 10.7649 19.9593 11.0528C20.1255 11.3407 20.2131 11.6672 20.2131 11.9997C20.2131 12.3322 20.1255 12.6588 19.9593 12.9467C19.793 13.2345 19.5538 13.4736 19.2659 13.6397V13.5864Z" fill="white"/>
</svg>
