<svg width="22" height="21" viewBox="0 0 22 21" fill="none" xmlns="http://www.w3.org/2000/svg">
<path d="M10.9706 5.72385C10.8386 5.72331 10.7078 5.74891 10.5857 5.79918C10.4636 5.84945 10.3527 5.92339 10.2594 6.01673C10.166 6.11008 10.0921 6.22099 10.0418 6.34305C9.99155 6.46512 9.96595 6.59593 9.96649 6.72794L9.97356 9.97356L6.72794 9.96649C6.46164 9.96649 6.20624 10.0723 6.01794 10.2606C5.82964 10.4489 5.72385 10.7043 5.72385 10.9706C5.72385 11.2369 5.82964 11.4923 6.01794 11.6806C6.20624 11.8689 6.46164 11.9747 6.72794 11.9747L9.97356 11.9676L9.96649 15.2132C9.96595 15.3452 9.99155 15.476 10.0418 15.5981C10.0921 15.7202 10.166 15.8311 10.2594 15.9244C10.3527 16.0178 10.4636 16.0917 10.5857 16.142C10.7078 16.1923 10.8386 16.2179 10.9706 16.2173C11.1026 16.2179 11.2334 16.1923 11.3555 16.142C11.4775 16.0917 11.5884 16.0178 11.6818 15.9244C11.7751 15.8311 11.8491 15.7202 11.8993 15.5981C11.9496 15.476 11.9752 15.3452 11.9747 15.2132L11.9676 11.9676L15.2132 11.9747C15.3452 11.9752 15.476 11.9496 15.5981 11.8993C15.7202 11.8491 15.8311 11.7751 15.9244 11.6818C16.0178 11.5884 16.0917 11.4775 16.142 11.3555C16.1923 11.2334 16.2179 11.1026 16.2173 10.9706C16.2179 10.8386 16.1923 10.7078 16.142 10.5857C16.0917 10.4636 16.0178 10.3527 15.9244 10.2594C15.8311 10.166 15.7202 10.0921 15.5981 10.0418C15.476 9.99155 15.3452 9.96595 15.2132 9.96649L11.9676 9.97356L11.9747 6.72794C11.9752 6.59593 11.9496 6.46512 11.8993 6.34305C11.8491 6.22099 11.7751 6.11008 11.6818 6.01673C11.5884 5.92339 11.4775 5.84945 11.3555 5.79918C11.2334 5.74891 11.1026 5.72331 10.9706 5.72385ZM10.9706 0.972091C9.64294 0.949015 8.32399 1.19058 7.09071 1.68269C5.85742 2.1748 4.73449 2.9076 3.78744 3.83834C2.84039 4.76907 2.08819 5.8791 1.57472 7.10364C1.06125 8.32819 0.796799 9.64274 0.796799 10.9706C0.796799 12.2984 1.06125 13.613 1.57472 14.8375C2.08819 16.0621 2.84039 17.1721 3.78744 18.1028C4.73449 19.0336 5.85742 19.7664 7.09071 20.2585C8.32399 20.7506 9.64294 20.9921 10.9706 20.9691C12.2982 20.9921 13.6172 20.7506 14.8505 20.2585C16.0837 19.7664 17.2067 19.0336 18.1537 18.1028C19.1008 17.1721 19.853 16.0621 20.3664 14.8375C20.8799 13.613 21.1444 12.2984 21.1444 10.9706C21.1444 9.64274 20.8799 8.32819 20.3664 7.10364C19.853 5.87909 19.1008 4.76907 18.1537 3.83834C17.2067 2.9076 16.0837 2.1748 14.8505 1.68269C13.6172 1.19058 12.2982 0.949015 10.9706 0.972091ZM18.975 10.9706C18.9761 12.8213 18.3354 14.6152 17.1621 16.0466C15.9888 17.4779 14.3555 18.4582 12.5406 18.8204C10.7256 19.1825 8.84118 18.9042 7.20839 18.0328C5.5756 17.1614 4.29545 15.7509 3.58605 14.0415C2.87665 12.332 2.78188 10.4296 3.31788 8.65811C3.85389 6.88666 4.98752 5.35586 6.52562 4.32651C8.06373 3.29716 9.91115 2.83295 11.7531 3.01296C13.5951 3.19297 15.3177 4.00607 16.6274 5.31373C17.3733 6.05458 17.9649 6.93601 18.3678 7.90701C18.7708 8.87801 18.9772 9.91929 18.975 10.9706Z" fill="black"/>
</svg>
