<svg width="22" height="21" viewBox="0 0 22 21" fill="none" xmlns="http://www.w3.org/2000/svg">
<path d="M10.9702 5.72385C10.8382 5.72331 10.7074 5.74891 10.5853 5.79918C10.4633 5.84945 10.3524 5.92339 10.259 6.01673C10.1657 6.11008 10.0917 6.22099 10.0415 6.34305C9.99118 6.46512 9.96558 6.59593 9.96612 6.72794L9.97319 9.97356L6.72757 9.96649C6.46127 9.96649 6.20588 10.0723 6.01757 10.2606C5.82927 10.4489 5.72348 10.7043 5.72348 10.9706C5.72348 11.2369 5.82927 11.4923 6.01757 11.6806C6.20588 11.8689 6.46127 11.9747 6.72757 11.9747L9.97319 11.9676L9.96612 15.2132C9.96558 15.3452 9.99118 15.476 10.0415 15.5981C10.0917 15.7202 10.1657 15.8311 10.259 15.9244C10.3524 16.0178 10.4633 16.0917 10.5853 16.142C10.7074 16.1923 10.8382 16.2179 10.9702 16.2173C11.1022 16.2179 11.233 16.1923 11.3551 16.142C11.4772 16.0917 11.5881 16.0178 11.6814 15.9244C11.7748 15.8311 11.8487 15.7202 11.899 15.5981C11.9492 15.476 11.9748 15.3452 11.9743 15.2132L11.9672 11.9676L15.2129 11.9747C15.3449 11.9752 15.4757 11.9496 15.5977 11.8993C15.7198 11.8491 15.8307 11.7751 15.9241 11.6818C16.0174 11.5884 16.0913 11.4775 16.1416 11.3555C16.1919 11.2334 16.2175 11.1026 16.2169 10.9706C16.2175 10.8386 16.1919 10.7078 16.1416 10.5857C16.0913 10.4636 16.0174 10.3527 15.9241 10.2594C15.8307 10.166 15.7198 10.0921 15.5977 10.0418C15.4757 9.99155 15.3449 9.96595 15.2129 9.96649L11.9672 9.97356L11.9743 6.72794C11.9748 6.59593 11.9492 6.46512 11.899 6.34305C11.8487 6.22099 11.7748 6.11008 11.6814 6.01673C11.5881 5.92339 11.4772 5.84945 11.3551 5.79918C11.233 5.74891 11.1022 5.72331 10.9702 5.72385ZM10.9702 0.972091C9.64257 0.949015 8.32363 1.19058 7.09034 1.68269C5.85705 2.1748 4.73413 2.9076 3.78707 3.83834C2.84002 4.76907 2.08782 5.8791 1.57435 7.10364C1.06088 8.32819 0.796433 9.64274 0.796433 10.9706C0.796433 12.2984 1.06088 13.613 1.57435 14.8375C2.08782 16.0621 2.84002 17.1721 3.78707 18.1028C4.73413 19.0336 5.85705 19.7664 7.09034 20.2585C8.32363 20.7506 9.64257 20.9921 10.9702 20.9691C12.2979 20.9921 13.6168 20.7506 14.8501 20.2585C16.0834 19.7664 17.2063 19.0336 18.1534 18.1028C19.1004 17.1721 19.8526 16.0621 20.3661 14.8375C20.8795 13.613 21.144 12.2984 21.144 10.9706C21.144 9.64274 20.8795 8.32819 20.3661 7.10364C19.8526 5.87909 19.1004 4.76907 18.1534 3.83834C17.2063 2.9076 16.0834 2.1748 14.8501 1.68269C13.6168 1.19058 12.2979 0.949015 10.9702 0.972091ZM18.9747 10.9706C18.9757 12.8213 18.335 14.6152 17.1617 16.0466C15.9884 17.4779 14.3552 18.4582 12.5402 18.8204C10.7252 19.1825 8.84081 18.9042 7.20802 18.0328C5.57523 17.1614 4.29509 15.7509 3.58568 14.0415C2.87628 12.332 2.78151 10.4296 3.31752 8.65811C3.85353 6.88666 4.98715 5.35586 6.52526 4.32651C8.06336 3.29716 9.91078 2.83295 11.7528 3.01296C13.5948 3.19297 15.3174 4.00607 16.6271 5.31373C17.373 6.05458 17.9645 6.93601 18.3675 7.90701C18.7704 8.87801 18.9768 9.91929 18.9747 10.9706Z" fill="white"/>
</svg>
