<svg width="114" height="115" viewBox="0 0 114 115" fill="none" xmlns="http://www.w3.org/2000/svg">
<path opacity="0.33" d="M114 57.0318C114 41.9145 107.995 27.4163 97.3052 16.7268C86.6157 6.0372 72.1175 0.0318348 57.0002 0.0317688C41.8829 0.0317028 27.3848 6.03695 16.6952 16.7264C6.00556 27.4159 0.000131926 41.914 2.17356e-09 57.0313C-0.000131922 72.1486 6.00505 86.6468 16.6945 97.3364C27.3839 108.026 41.882 114.032 56.9993 114.032C72.1166 114.032 86.6148 108.027 97.3045 97.3375C107.994 86.6481 114 72.1501 114 57.0328L92.625 57.0324C92.6248 66.4807 88.8714 75.542 82.1903 82.2228C75.5092 88.9037 66.4479 92.6569 56.9995 92.6568C47.5512 92.6566 38.4899 88.9032 31.8091 82.2222C25.1282 75.5411 21.3749 66.4798 21.375 57.0315C21.3751 47.5831 25.1285 38.5218 31.8095 31.8409C38.4905 25.16 47.5518 21.4067 57.0001 21.4068C66.4485 21.4068 75.5098 25.1602 82.1907 31.8411C88.8717 38.5221 92.625 47.5835 92.625 57.0318H114Z" fill="white"/>
<path d="M89.0001 9.53178C82.5001 5.03179 64.5001 -0.468224 56.0001 0.0317757C47.5001 0.531776 41 2.0318 34.0001 5.53178C27.0002 9.03175 21 13.5318 13.5001 21.0318C6.00022 28.5317 1.00011 45.5318 1.00011 45.5318C1.00011 45.5318 0.00010848 61.0318 1.00011 69.0318C2.00011 77.0318 8.50022 89.0318 12.5001 93.0318C16.5 97.0318 32.5001 83.5318 30.5001 80.5318C28.5001 77.5318 23.5001 75.0318 22.0001 66.0318C20.5001 57.0318 22.0001 53.0318 22.0001 50.0318C22.0001 47.0317 27.5001 35.5317 34.0001 30.0318C40.5001 24.5318 45.5001 21.0318 56.0001 21.0318C66.5001 21.0318 67.5001 23.0318 75.0001 26.5318C82.5001 30.0318 89.0001 41.0318 91.0001 45.5318C93.0001 50.0318 110.5 43.5318 110 36.5318C109.5 29.5317 95.5001 14.0318 89.0001 9.53178Z" fill="#F1A132"/>
</svg>
