<svg width="18" height="18" viewBox="0 0 18 18" fill="none" xmlns="http://www.w3.org/2000/svg">
<path d="M17.0918 15.9083L14.0002 12.8417C15.2002 11.3453 15.7814 9.44608 15.6242 7.53441C15.4669 5.62275 14.5832 3.84398 13.1548 2.56387C11.7263 1.28375 9.86167 0.599588 7.94427 0.652055C6.02686 0.704522 4.20243 1.48963 2.84612 2.84595C1.4898 4.20227 0.70469 6.0267 0.652223 7.9441C0.599756 9.8615 1.28392 11.7261 2.56403 13.1546C3.84415 14.5831 5.62292 15.4668 7.53458 15.624C9.44625 15.7812 11.3455 15.2001 12.8418 14L15.9085 17.0667C15.986 17.1448 16.0781 17.2068 16.1797 17.2491C16.2812 17.2914 16.3902 17.3132 16.5002 17.3132C16.6102 17.3132 16.7191 17.2914 16.8206 17.2491C16.9222 17.2068 17.0144 17.1448 17.0918 17.0667C17.242 16.9113 17.326 16.7036 17.326 16.4875C17.326 16.2714 17.242 16.0637 17.0918 15.9083ZM8.16683 14C7.01311 14 5.88529 13.6579 4.926 13.0169C3.96672 12.3759 3.21904 11.4649 2.77753 10.399C2.33602 9.33308 2.2205 8.16019 2.44558 7.02864C2.67066 5.89708 3.22624 4.85768 4.04204 4.04187C4.85785 3.22607 5.89725 2.6705 7.0288 2.44542C8.16036 2.22034 9.33325 2.33585 10.3992 2.77737C11.4651 3.21888 12.3761 3.96655 13.0171 4.92584C13.658 5.88512 14.0002 7.01294 14.0002 8.16666C14.0002 9.71376 13.3856 11.1975 12.2916 12.2915C11.1977 13.3854 9.71393 14 8.16683 14Z" fill="white"/>
</svg>
