<svg width="14" height="18" viewBox="0 0 14 18" fill="none" xmlns="http://www.w3.org/2000/svg">
<path d="M13.359 2.04167C13.2622 1.96335 13.149 1.90773 13.0279 1.87889C12.9068 1.85004 12.7807 1.84872 12.659 1.875C11.7685 2.06162 10.8493 2.064 9.95785 1.88199C9.06643 1.69998 8.22169 1.33743 7.47566 0.816667C7.33616 0.719894 7.17043 0.668037 7.00066 0.668037C6.83088 0.668037 6.66515 0.719894 6.52566 0.816667C5.77962 1.33743 4.93488 1.69998 4.04346 1.88199C3.15204 2.064 2.23279 2.06162 1.34232 1.875C1.2206 1.84872 1.09454 1.85004 0.973406 1.87889C0.852269 1.90773 0.739136 1.96335 0.642322 2.04167C0.545639 2.1201 0.467757 2.2192 0.414399 2.33168C0.361042 2.44416 0.333566 2.56717 0.333989 2.69167V8.9C0.333248 10.0948 0.617967 11.2725 1.16443 12.335C1.7109 13.3975 2.50331 14.314 3.47566 15.0083L6.51732 17.175C6.65846 17.2755 6.8274 17.3295 7.00066 17.3295C7.17391 17.3295 7.34285 17.2755 7.48399 17.175L10.5257 15.0083C11.498 14.314 12.2904 13.3975 12.8369 12.335C13.3833 11.2725 13.6681 10.0948 13.6673 8.9V2.69167C13.6677 2.56717 13.6403 2.44416 13.5869 2.33168C13.5336 2.2192 13.4557 2.1201 13.359 2.04167V2.04167ZM12.0007 8.9C12.0013 9.82896 11.7801 10.7446 11.3554 11.5708C10.9307 12.397 10.3148 13.1099 9.55899 13.65L7.00066 15.475L4.44232 13.65C3.68652 13.1099 3.07064 12.397 2.64595 11.5708C2.22125 10.7446 2.00002 9.82896 2.00066 8.9V3.65C3.74768 3.79953 5.49736 3.39419 7.00066 2.49167C8.50395 3.39419 10.2536 3.79953 12.0007 3.65V8.9ZM8.28399 6.99167L6.04232 9.24167L5.30066 8.49167C5.14374 8.33475 4.93091 8.24659 4.70899 8.24659C4.48707 8.24659 4.27424 8.33475 4.11732 8.49167C3.9604 8.64859 3.87225 8.86142 3.87225 9.08333C3.87225 9.30525 3.9604 9.51808 4.11732 9.675L5.45066 11.0083C5.52812 11.0864 5.62029 11.1484 5.72184 11.1907C5.82339 11.233 5.93231 11.2548 6.04232 11.2548C6.15233 11.2548 6.26125 11.233 6.3628 11.1907C6.46435 11.1484 6.55652 11.0864 6.63399 11.0083L9.50066 8.16667C9.65757 8.00975 9.74573 7.79692 9.74573 7.575C9.74573 7.35308 9.65757 7.14025 9.50066 6.98333C9.34374 6.82641 9.13091 6.73826 8.90899 6.73826C8.68707 6.73826 8.47424 6.82641 8.31732 6.98333L8.28399 6.99167Z" fill="white"/>
</svg>
