<svg width="18" height="18" viewBox="0 0 18 18" fill="none" xmlns="http://www.w3.org/2000/svg">
<path d="M11.4993 13.1667C11.3345 13.1667 11.1734 13.2155 11.0364 13.3071C10.8993 13.3987 10.7925 13.5288 10.7295 13.6811C10.6664 13.8334 10.6499 14.0009 10.682 14.1626C10.7142 14.3242 10.7936 14.4727 10.9101 14.5893C11.0266 14.7058 11.1751 14.7852 11.3368 14.8173C11.4984 14.8495 11.666 14.833 11.8183 14.7699C11.9705 14.7068 12.1007 14.6 12.1922 14.463C12.2838 14.3259 12.3327 14.1648 12.3327 14C12.3327 13.779 12.2449 13.567 12.0886 13.4107C11.9323 13.2545 11.7204 13.1667 11.4993 13.1667ZM6.49935 13.1667H3.99935C3.77834 13.1667 3.56637 13.2545 3.41009 13.4107C3.25381 13.567 3.16602 13.779 3.16602 14C3.16602 14.221 3.25381 14.433 3.41009 14.5893C3.56637 14.7455 3.77834 14.8333 3.99935 14.8333H6.49935C6.72036 14.8333 6.93232 14.7455 7.0886 14.5893C7.24488 14.433 7.33268 14.221 7.33268 14C7.33268 13.779 7.24488 13.567 7.0886 13.4107C6.93232 13.2545 6.72036 13.1667 6.49935 13.1667ZM13.9993 13.1667C13.8345 13.1667 13.6734 13.2155 13.5364 13.3071C13.3993 13.3987 13.2925 13.5288 13.2295 13.6811C13.1664 13.8334 13.1499 14.0009 13.182 14.1626C13.2142 14.3242 13.2935 14.4727 13.4101 14.5893C13.5266 14.7058 13.6751 14.7852 13.8368 14.8173C13.9984 14.8495 14.166 14.833 14.3183 14.7699C14.4705 14.7068 14.6007 14.6 14.6922 14.463C14.7838 14.3259 14.8327 14.1648 14.8327 14C14.8327 13.779 14.7449 13.567 14.5886 13.4107C14.4323 13.2545 14.2204 13.1667 13.9993 13.1667ZM11.4993 8.16667C11.3345 8.16667 11.1734 8.21554 11.0364 8.30711C10.8993 8.39868 10.7925 8.52883 10.7295 8.6811C10.6664 8.83337 10.6499 9.00093 10.682 9.16258C10.7142 9.32423 10.7936 9.47271 10.9101 9.58926C11.0266 9.7058 11.1751 9.78517 11.3368 9.81732C11.4984 9.84948 11.666 9.83297 11.8183 9.7699C11.9705 9.70683 12.1007 9.60002 12.1922 9.46298C12.2838 9.32594 12.3327 9.16482 12.3327 9C12.3327 8.77899 12.2449 8.56703 12.0886 8.41075C11.9323 8.25447 11.7204 8.16667 11.4993 8.16667ZM6.49935 8.16667H3.99935C3.77834 8.16667 3.56637 8.25447 3.41009 8.41075C3.25381 8.56703 3.16602 8.77899 3.16602 9C3.16602 9.22101 3.25381 9.43298 3.41009 9.58926C3.56637 9.74554 3.77834 9.83333 3.99935 9.83333H6.49935C6.72036 9.83333 6.93232 9.74554 7.0886 9.58926C7.24488 9.43298 7.33268 9.22101 7.33268 9C7.33268 8.77899 7.24488 8.56703 7.0886 8.41075C6.93232 8.25447 6.72036 8.16667 6.49935 8.16667ZM13.9993 3.16667C13.8345 3.16667 13.6734 3.21554 13.5364 3.30711C13.3993 3.39868 13.2925 3.52883 13.2295 3.6811C13.1664 3.83337 13.1499 4.00092 13.182 4.16258C13.2142 4.32423 13.2935 4.47271 13.4101 4.58926C13.5266 4.7058 13.6751 4.78517 13.8368 4.81732C13.9984 4.84948 14.166 4.83297 14.3183 4.7699C14.4705 4.70683 14.6007 4.60002 14.6922 4.46298C14.7838 4.32593 14.8327 4.16482 14.8327 4C14.8327 3.77899 14.7449 3.56703 14.5886 3.41074C14.4323 3.25446 14.2204 3.16667 13.9993 3.16667ZM13.9993 8.16667C13.8345 8.16667 13.6734 8.21554 13.5364 8.30711C13.3993 8.39868 13.2925 8.52883 13.2295 8.6811C13.1664 8.83337 13.1499 9.00093 13.182 9.16258C13.2142 9.32423 13.2935 9.47271 13.4101 9.58926C13.5266 9.7058 13.6751 9.78517 13.8368 9.81732C13.9984 9.84948 14.166 9.83297 14.3183 9.7699C14.4705 9.70683 14.6007 9.60002 14.6922 9.46298C14.7838 9.32594 14.8327 9.16482 14.8327 9C14.8327 8.77899 14.7449 8.56703 14.5886 8.41075C14.4323 8.25447 14.2204 8.16667 13.9993 8.16667ZM17.3327 3.16667C17.3327 2.50363 17.0693 1.86774 16.6005 1.3989C16.1316 0.930059 15.4957 0.666667 14.8327 0.666667H3.16602C2.50297 0.666667 1.86709 0.930059 1.39825 1.3989C0.929408 1.86774 0.666016 2.50363 0.666016 3.16667V4.83333C0.669691 5.45005 0.901191 6.04364 1.31602 6.5C0.901191 6.95636 0.669691 7.54996 0.666016 8.16667V9.83333C0.669691 10.45 0.901191 11.0436 1.31602 11.5C0.901191 11.9564 0.669691 12.55 0.666016 13.1667V14.8333C0.666016 15.4964 0.929408 16.1323 1.39825 16.6011C1.86709 17.0699 2.50297 17.3333 3.16602 17.3333H14.8327C15.4957 17.3333 16.1316 17.0699 16.6005 16.6011C17.0693 16.1323 17.3327 15.4964 17.3327 14.8333V13.1667C17.329 12.55 17.0975 11.9564 16.6827 11.5C17.0975 11.0436 17.329 10.45 17.3327 9.83333V8.16667C17.329 7.54996 17.0975 6.95636 16.6827 6.5C17.0975 6.04364 17.329 5.45005 17.3327 4.83333V3.16667ZM15.666 14.8333C15.666 15.0543 15.5782 15.2663 15.4219 15.4226C15.2657 15.5789 15.0537 15.6667 14.8327 15.6667H3.16602C2.945 15.6667 2.73304 15.5789 2.57676 15.4226C2.42048 15.2663 2.33268 15.0543 2.33268 14.8333V13.1667C2.33268 12.9457 2.42048 12.7337 2.57676 12.5774C2.73304 12.4211 2.945 12.3333 3.16602 12.3333H14.8327C15.0537 12.3333 15.2657 12.4211 15.4219 12.5774C15.5782 12.7337 15.666 12.9457 15.666 13.1667V14.8333ZM15.666 9.83333C15.666 10.0543 15.5782 10.2663 15.4219 10.4226C15.2657 10.5789 15.0537 10.6667 14.8327 10.6667H3.16602C2.945 10.6667 2.73304 10.5789 2.57676 10.4226C2.42048 10.2663 2.33268 10.0543 2.33268 9.83333V8.16667C2.33268 7.94565 2.42048 7.73369 2.57676 7.57741C2.73304 7.42113 2.945 7.33333 3.16602 7.33333H14.8327C15.0537 7.33333 15.2657 7.42113 15.4219 7.57741C15.5782 7.73369 15.666 7.94565 15.666 8.16667V9.83333ZM15.666 4.83333C15.666 5.05435 15.5782 5.26631 15.4219 5.42259C15.2657 5.57887 15.0537 5.66667 14.8327 5.66667H3.16602C2.945 5.66667 2.73304 5.57887 2.57676 5.42259C2.42048 5.26631 2.33268 5.05435 2.33268 4.83333V3.16667C2.33268 2.94565 2.42048 2.73369 2.57676 2.57741C2.73304 2.42113 2.945 2.33333 3.16602 2.33333H14.8327C15.0537 2.33333 15.2657 2.42113 15.4219 2.57741C15.5782 2.73369 15.666 2.94565 15.666 3.16667V4.83333ZM11.4993 3.16667C11.3345 3.16667 11.1734 3.21554 11.0364 3.30711C10.8993 3.39868 10.7925 3.52883 10.7295 3.6811C10.6664 3.83337 10.6499 4.00092 10.682 4.16258C10.7142 4.32423 10.7936 4.47271 10.9101 4.58926C11.0266 4.7058 11.1751 4.78517 11.3368 4.81732C11.4984 4.84948 11.666 4.83297 11.8183 4.7699C11.9705 4.70683 12.1007 4.60002 12.1922 4.46298C12.2838 4.32593 12.3327 4.16482 12.3327 4C12.3327 3.77899 12.2449 3.56703 12.0886 3.41074C11.9323 3.25446 11.7204 3.16667 11.4993 3.16667ZM6.49935 3.16667H3.99935C3.77834 3.16667 3.56637 3.25446 3.41009 3.41074C3.25381 3.56703 3.16602 3.77899 3.16602 4C3.16602 4.22101 3.25381 4.43298 3.41009 4.58926C3.56637 4.74554 3.77834 4.83333 3.99935 4.83333H6.49935C6.72036 4.83333 6.93232 4.74554 7.0886 4.58926C7.24488 4.43298 7.33268 4.22101 7.33268 4C7.33268 3.77899 7.24488 3.56703 7.0886 3.41074C6.93232 3.25446 6.72036 3.16667 6.49935 3.16667Z" fill="white"/>
</svg>
