<svg width="17" height="18" viewBox="0 0 17 18" fill="none" xmlns="http://www.w3.org/2000/svg">
<path d="M15.5831 9.55C15.4495 9.39793 15.3758 9.20243 15.3758 9C15.3758 8.79758 15.4495 8.60208 15.5831 8.45L16.6498 7.25C16.7673 7.11889 16.8403 6.95392 16.8582 6.77876C16.8762 6.60359 16.8382 6.42724 16.7498 6.275L15.0831 3.39167C14.9955 3.2396 14.8622 3.11907 14.702 3.04724C14.5419 2.97541 14.3632 2.95597 14.1914 2.99167L12.6248 3.30834C12.4254 3.34953 12.2179 3.31633 12.0413 3.215C11.8648 3.11368 11.7314 2.95124 11.6664 2.75834L11.1581 1.23334C11.1022 1.06782 10.9957 0.924056 10.8536 0.82237C10.7115 0.720684 10.5411 0.666217 10.3664 0.666668H7.03308C6.85136 0.657183 6.67153 0.70744 6.52105 0.809763C6.37058 0.912086 6.25773 1.06085 6.19975 1.23334L5.73308 2.75834C5.66808 2.95124 5.53473 3.11368 5.35818 3.215C5.18163 3.31633 4.9741 3.34953 4.77475 3.30834L3.16642 2.99167C3.00354 2.96865 2.8375 2.99435 2.68921 3.06553C2.54091 3.13672 2.417 3.25019 2.33308 3.39167L0.666417 6.275C0.575718 6.42554 0.534936 6.60091 0.549903 6.77602C0.56487 6.95114 0.634819 7.11704 0.749751 7.25L1.80808 8.45C1.94168 8.60208 2.01536 8.79758 2.01536 9C2.01536 9.20243 1.94168 9.39793 1.80808 9.55L0.749751 10.75C0.634819 10.883 0.56487 11.0489 0.549903 11.224C0.534936 11.3991 0.575718 11.5745 0.666417 11.725L2.33308 14.6083C2.42067 14.7604 2.55402 14.8809 2.71413 14.9528C2.87424 15.0246 3.05294 15.044 3.22475 15.0083L4.79142 14.6917C4.99077 14.6505 5.1983 14.6837 5.37484 14.785C5.55139 14.8863 5.68475 15.0488 5.74975 15.2417L6.25808 16.7667C6.31607 16.9392 6.42891 17.0879 6.57939 17.1902C6.72986 17.2926 6.9097 17.3428 7.09142 17.3333H10.4248C10.5995 17.3338 10.7699 17.2793 10.9119 17.1776C11.054 17.0759 11.1605 16.9322 11.2164 16.7667L11.7248 15.2417C11.7898 15.0488 11.9231 14.8863 12.0997 14.785C12.2762 14.6837 12.4837 14.6505 12.6831 14.6917L14.2498 15.0083C14.4216 15.044 14.6003 15.0246 14.7604 14.9528C14.9205 14.8809 15.0538 14.7604 15.1414 14.6083L16.8081 11.725C16.8966 11.5728 16.9345 11.3964 16.9166 11.2212C16.8986 11.0461 16.8256 10.8811 16.7081 10.75L15.5831 9.55ZM14.3414 10.6667L15.0081 11.4167L13.9414 13.2667L12.9581 13.0667C12.3579 12.944 11.7336 13.0459 11.2036 13.3532C10.6736 13.6604 10.2749 14.1515 10.0831 14.7333L9.76642 15.6667H7.63308L7.33308 14.7167C7.1413 14.1349 6.74257 13.6437 6.21259 13.3365C5.68261 13.0293 5.05827 12.9273 4.45808 13.05L3.47475 13.25L2.39142 11.4083L3.05808 10.6583C3.46805 10.2 3.69469 9.60661 3.69469 8.99167C3.69469 8.37672 3.46805 7.78335 3.05808 7.325L2.39142 6.575L3.45808 4.74167L4.44142 4.94167C5.0416 5.06435 5.66594 4.9624 6.19592 4.65517C6.7259 4.34793 7.12463 3.8568 7.31642 3.275L7.63308 2.33334H9.76642L10.0831 3.28333C10.2749 3.86513 10.6736 4.35627 11.2036 4.6635C11.7336 4.97074 12.3579 5.07269 12.9581 4.95L13.9414 4.75L15.0081 6.6L14.3414 7.35C13.9361 7.8073 13.7122 8.39724 13.7122 9.00834C13.7122 9.61943 13.9361 10.2094 14.3414 10.6667ZM8.69975 5.66667C8.04048 5.66667 7.39601 5.86217 6.84785 6.22844C6.29969 6.59471 5.87244 7.1153 5.62015 7.72439C5.36786 8.33348 5.30185 9.0037 5.43047 9.6503C5.55908 10.2969 5.87655 10.8909 6.34273 11.357C6.8089 11.8232 7.40285 12.1407 8.04945 12.2693C8.69605 12.3979 9.36627 12.3319 9.97536 12.0796C10.5844 11.8273 11.105 11.4001 11.4713 10.8519C11.8376 10.3037 12.0331 9.65927 12.0331 9C12.0331 8.11595 11.6819 7.2681 11.0568 6.64298C10.4317 6.01786 9.58381 5.66667 8.69975 5.66667ZM8.69975 10.6667C8.37012 10.6667 8.04788 10.5689 7.7738 10.3858C7.49972 10.2026 7.2861 9.94235 7.15995 9.63781C7.03381 9.33326 7.0008 8.99815 7.06511 8.67485C7.12942 8.35155 7.28815 8.05458 7.52124 7.82149C7.75433 7.5884 8.0513 7.42967 8.3746 7.36536C8.6979 7.30105 9.03301 7.33406 9.33756 7.4602C9.6421 7.58635 9.9024 7.79997 10.0855 8.07405C10.2687 8.34813 10.3664 8.67037 10.3664 9C10.3664 9.44203 10.1908 9.86595 9.87826 10.1785C9.5657 10.4911 9.14178 10.6667 8.69975 10.6667Z" fill="white"/>
</svg>
