<svg width="382" height="382" viewBox="0 0 382 382" fill="none" xmlns="http://www.w3.org/2000/svg">
<circle cx="191.5" cy="192.5" r="168" stroke="white" stroke-opacity="0.15"/>
<circle cx="191" cy="191" r="190.5" stroke="white" stroke-opacity="0.05" stroke-dasharray="5 5"/>
<circle cx="191" cy="191" r="118.5" stroke="white" stroke-opacity="0.05"/>
<circle cx="191" cy="191" r="143.5" stroke="white" stroke-opacity="0.1"/>
<path d="M111.324 195.23C124.044 161.53 152.154 137 191.004 137C200.904 137 210.104 138.6 218.544 141.53C217.893 142.181 217.304 142.891 216.784 143.65L212.364 150.05C207.039 148.462 201.55 147.489 196.004 147.15V172C196.004 173.326 195.477 174.598 194.539 175.536C193.601 176.473 192.33 177 191.004 177C189.677 177 188.406 176.473 187.468 175.536C186.53 174.598 186.004 173.326 186.004 172V147.16C163.614 148.56 145.484 159.46 132.964 176.15C133.333 176.308 133.682 176.509 134.004 176.75L149.004 188C150.064 188.796 150.766 189.98 150.953 191.293C151.141 192.606 150.799 193.939 150.004 195C149.208 196.061 148.023 196.762 146.711 196.95C145.398 197.137 144.064 196.796 143.004 196L128.004 184.75C127.835 184.627 127.675 184.493 127.524 184.35C124.844 188.957 122.556 193.78 120.684 198.77C120.214 200.011 119.271 201.015 118.061 201.561C116.852 202.107 115.475 202.149 114.234 201.68C112.992 201.211 111.988 200.267 111.443 199.058C110.897 197.848 110.854 196.471 111.324 195.23ZM243.274 157.14C243.424 156.74 243.544 156.32 243.654 155.91C255.654 166.05 264.814 179.66 270.684 195.23C270.916 195.845 271.025 196.499 271.005 197.156C270.984 197.812 270.835 198.459 270.564 199.058C270.294 199.657 269.909 200.196 269.43 200.646C268.951 201.096 268.388 201.448 267.774 201.68C267.159 201.912 266.505 202.022 265.848 202.001C265.191 201.981 264.545 201.831 263.946 201.561C263.347 201.291 262.807 200.905 262.357 200.426C261.907 199.947 261.556 199.385 261.324 198.77C259.452 193.777 257.164 188.95 254.484 184.34C254.332 184.487 254.172 184.624 254.004 184.75L239.004 196C238.478 196.394 237.881 196.681 237.244 196.844C236.608 197.007 235.946 197.043 235.296 196.95C234.646 196.857 234.021 196.637 233.456 196.302C232.891 195.968 232.397 195.525 232.004 195C231.61 194.475 231.323 193.877 231.16 193.241C230.997 192.605 230.961 191.943 231.054 191.293C231.147 190.643 231.367 190.018 231.701 189.453C232.036 188.888 232.478 188.394 233.004 188L248.004 176.75C248.328 176.508 248.681 176.307 249.054 176.15C246.368 172.559 243.376 169.206 240.114 166.13L243.274 157.14ZM231.234 147.7C232.31 148.249 233.151 149.169 233.602 150.291C234.052 151.412 234.081 152.659 233.684 153.8L207.304 229.12C206.067 232.651 204.241 235.948 201.904 238.87C191.004 252.51 169.534 240.6 175.004 224.2C175.985 221.254 177.375 218.46 179.134 215.9L224.844 149.34C225.53 148.339 226.556 147.622 227.732 147.322C228.907 147.022 230.152 147.16 231.234 147.71V147.7ZM211.844 185.93L187.374 221.56C186.144 223.34 185.174 225.3 184.484 227.36C182.494 233.33 190.264 237.41 194.094 232.63C195.734 230.58 197.004 228.28 197.874 225.81L211.844 185.93Z" fill="#F1A132"/>
</svg>
