<svg width="34" height="35" viewBox="0 0 34 35" fill="none" xmlns="http://www.w3.org/2000/svg">
<path d="M31.875 20.9167H28.4583C28.0052 20.9167 27.5707 21.0967 27.2503 21.417C26.93 21.7374 26.75 22.1719 26.75 22.625C26.75 23.0781 26.93 23.5126 27.2503 23.833C27.5707 24.1534 28.0052 24.3333 28.4583 24.3333H30.1667V31.1667H2.83332V24.3333H14.7917C15.2447 24.3333 15.6793 24.1534 15.9996 23.833C16.32 23.5126 16.5 23.0781 16.5 22.625C16.5 22.1719 16.32 21.7374 15.9996 21.417C15.6793 21.0967 15.2447 20.9167 14.7917 20.9167H13.0833V12.375C13.0833 11.9219 12.9033 11.4874 12.583 11.167C12.2626 10.8467 11.8281 10.6667 11.375 10.6667H1.12499C0.671912 10.6667 0.23739 10.8467 -0.0829843 11.167C-0.403359 11.4874 -0.583344 11.9219 -0.583344 12.375V32.875C-0.583344 33.3281 -0.403359 33.7626 -0.0829843 34.083C0.23739 34.4034 0.671912 34.5833 1.12499 34.5833H31.875C32.3281 34.5833 32.7626 34.4034 33.083 34.083C33.4033 33.7626 33.5833 33.3281 33.5833 32.875V22.625C33.5833 22.1719 33.4033 21.7374 33.083 21.417C32.7626 21.0967 32.3281 20.9167 31.875 20.9167ZM2.83332 14.0833H9.66666V20.9167H2.83332V14.0833ZM17.7129 8.44585L19.9167 6.2421V26.0417C19.9167 26.4948 20.0966 26.9293 20.417 27.2497C20.7374 27.57 21.1719 27.75 21.625 27.75C22.0781 27.75 22.5126 27.57 22.833 27.2497C23.1533 26.9293 23.3333 26.4948 23.3333 26.0417V6.2421L25.5371 8.44585C25.6953 8.60726 25.884 8.73568 26.0922 8.82365C26.3004 8.91163 26.524 8.95741 26.75 8.95835C26.9748 8.95965 27.1977 8.91655 27.4058 8.83154C27.614 8.74652 27.8033 8.62126 27.9629 8.46293C28.2811 8.14285 28.4597 7.70987 28.4597 7.25855C28.4597 6.80724 28.2811 6.37426 27.9629 6.05418L22.8379 0.929181C22.6791 0.769061 22.4902 0.641971 22.282 0.555241C22.0738 0.468511 21.8505 0.423859 21.625 0.423859C21.3995 0.423859 21.1762 0.468511 20.968 0.555241C20.7598 0.641971 20.5709 0.769061 20.4121 0.929181L15.2871 6.05418C14.9689 6.37426 14.7903 6.80724 14.7903 7.25855C14.7903 7.70987 14.9689 8.14285 15.2871 8.46293C15.447 8.62194 15.6368 8.7477 15.8456 8.83297C16.0544 8.91823 16.278 8.96132 16.5035 8.95973C16.7291 8.95814 16.952 8.91191 17.1596 8.82371C17.3672 8.73552 17.5552 8.60709 17.7129 8.44585Z" fill="#F1A132"/>
</svg>
