<svg width="20" height="16" viewBox="0 0 20 16" fill="none" xmlns="http://www.w3.org/2000/svg">
<path d="M10.2507 8.18334C10.6953 7.79845 11.0519 7.32241 11.2964 6.78752C11.5408 6.25264 11.6673 5.67143 11.6673 5.08334C11.6673 3.97827 11.2283 2.91846 10.4469 2.13706C9.66553 1.35566 8.60572 0.916672 7.50065 0.916672C6.39558 0.916672 5.33577 1.35566 4.55437 2.13706C3.77297 2.91846 3.33398 3.97827 3.33398 5.08334C3.33398 5.67143 3.46049 6.25264 3.70492 6.78752C3.94936 7.32241 4.306 7.79845 4.75065 8.18334C3.5841 8.71158 2.59437 9.56461 1.8998 10.6405C1.20523 11.7163 0.835211 12.9694 0.833984 14.25C0.833984 14.471 0.921782 14.683 1.07806 14.8393C1.23434 14.9955 1.4463 15.0833 1.66732 15.0833C1.88833 15.0833 2.10029 14.9955 2.25657 14.8393C2.41285 14.683 2.50065 14.471 2.50065 14.25C2.50065 12.9239 3.02744 11.6522 3.96512 10.7145C4.9028 9.77679 6.17457 9.25001 7.50065 9.25001C8.82673 9.25001 10.0985 9.77679 11.0362 10.7145C11.9739 11.6522 12.5007 12.9239 12.5007 14.25C12.5007 14.471 12.5884 14.683 12.7447 14.8393C12.901 14.9955 13.113 15.0833 13.334 15.0833C13.555 15.0833 13.767 14.9955 13.9232 14.8393C14.0795 14.683 14.1673 14.471 14.1673 14.25C14.1661 12.9694 13.7961 11.7163 13.1015 10.6405C12.4069 9.56461 11.4172 8.71158 10.2507 8.18334ZM7.50065 7.58334C7.0062 7.58334 6.52285 7.43672 6.11173 7.16201C5.7006 6.88731 5.38017 6.49686 5.19095 6.04005C5.00173 5.58323 4.95222 5.08057 5.04869 4.59561C5.14515 4.11066 5.38325 3.6652 5.73288 3.31557C6.08252 2.96594 6.52797 2.72784 7.01293 2.63138C7.49788 2.53491 8.00054 2.58442 8.45736 2.77364C8.91418 2.96286 9.30462 3.28329 9.57932 3.69441C9.85403 4.10554 10.0007 4.58889 10.0007 5.08334C10.0007 5.74638 9.73726 6.38227 9.26842 6.85111C8.79958 7.31995 8.16369 7.58334 7.50065 7.58334ZM15.6173 7.85001C16.1506 7.24945 16.499 6.50755 16.6205 5.71362C16.742 4.91969 16.6314 4.10757 16.3021 3.37501C15.9728 2.64244 15.4388 2.02067 14.7644 1.58452C14.0899 1.14838 13.3038 0.916457 12.5007 0.916672C12.2796 0.916672 12.0677 1.00447 11.9114 1.16075C11.7551 1.31703 11.6673 1.52899 11.6673 1.75001C11.6673 1.97102 11.7551 2.18298 11.9114 2.33926C12.0677 2.49554 12.2796 2.58334 12.5007 2.58334C13.1637 2.58334 13.7996 2.84673 14.2684 3.31557C14.7373 3.78441 15.0007 4.4203 15.0007 5.08334C14.9995 5.52104 14.8834 5.95076 14.664 6.32952C14.4447 6.70829 14.1297 7.02282 13.7507 7.24167C13.6271 7.31294 13.5239 7.41473 13.451 7.53729C13.378 7.65985 13.3377 7.79909 13.334 7.94167C13.3305 8.08314 13.3631 8.22317 13.4287 8.34855C13.4943 8.47394 13.5908 8.58055 13.709 8.65834L14.034 8.87501L14.1423 8.93334C15.1468 9.40977 15.9942 10.1633 16.5848 11.1053C17.1754 12.0472 17.4844 13.1383 17.4757 14.25C17.4757 14.471 17.5634 14.683 17.7197 14.8393C17.876 14.9955 18.088 15.0833 18.309 15.0833C18.53 15.0833 18.742 14.9955 18.8982 14.8393C19.0545 14.683 19.1423 14.471 19.1423 14.25C19.1491 12.9712 18.8288 11.7119 18.2119 10.5917C17.5949 9.47156 16.7018 8.52777 15.6173 7.85001Z" fill="white"/>
</svg>
