<svg width="15" height="12" viewBox="0 0 15 12" fill="none" xmlns="http://www.w3.org/2000/svg">
<path d="M13.8061 1.20998C13.7132 1.11625 13.6026 1.04186 13.4807 0.991091C13.3589 0.940323 13.2282 0.914185 13.0961 0.914185C12.9641 0.914185 12.8334 0.940323 12.7116 0.991091C12.5897 1.04186 12.4791 1.11625 12.3861 1.20998L4.93614 8.66998L1.80614 5.52998C1.70962 5.43674 1.59568 5.36343 1.47082 5.31423C1.34597 5.26502 1.21264 5.24089 1.07846 5.24321C0.944283 5.24553 0.811873 5.27426 0.688795 5.32776C0.565717 5.38125 0.45438 5.45846 0.361141 5.55498C0.267903 5.6515 0.194589 5.76545 0.145385 5.8903C0.0961807 6.01516 0.0720502 6.14848 0.0743717 6.28266C0.0766931 6.41684 0.105421 6.54925 0.158914 6.67233C0.212408 6.79541 0.28962 6.90674 0.386141 6.99998L4.22614 10.84C4.3191 10.9337 4.42971 11.0081 4.55156 11.0589C4.67342 11.1096 4.80413 11.1358 4.93614 11.1358C5.06815 11.1358 5.19886 11.1096 5.32072 11.0589C5.44258 11.0081 5.55318 10.9337 5.64614 10.84L13.8061 2.67998C13.9076 2.58634 13.9887 2.47269 14.0441 2.34619C14.0995 2.21969 14.1281 2.08308 14.1281 1.94498C14.1281 1.80688 14.0995 1.67028 14.0441 1.54378C13.9887 1.41728 13.9076 1.30363 13.8061 1.20998Z" fill="#F1A132"/>
</svg>
