<svg width="28" height="35" viewBox="0 0 28 35" fill="none" xmlns="http://www.w3.org/2000/svg">
<path d="M26.9787 13.3146C26.8368 13.0329 26.6196 12.796 26.3512 12.6301C26.0828 12.4643 25.7738 12.376 25.4583 12.375H16.9167V2.12502C16.935 1.75036 16.8295 1.38007 16.6165 1.07132C16.4034 0.762574 16.0947 0.532527 15.7379 0.416689C15.3949 0.303842 15.025 0.302574 14.6812 0.413067C14.3375 0.52356 14.0376 0.740131 13.8246 1.03169L0.157909 19.8234C-0.0133246 20.0708 -0.116144 20.3592 -0.140143 20.6591C-0.164142 20.9591 -0.108468 21.2601 0.0212425 21.5317C0.140692 21.8422 0.348197 22.111 0.618287 22.3053C0.888377 22.4995 1.2093 22.6106 1.54166 22.625H10.0833V32.875C10.0836 33.2353 10.1977 33.5862 10.4094 33.8777C10.6211 34.1692 10.9196 34.3863 11.2621 34.4979C11.4337 34.5511 11.612 34.5799 11.7917 34.5834C12.0612 34.5841 12.3271 34.521 12.5676 34.3992C12.8081 34.2775 13.0164 34.1006 13.1754 33.8829L26.8421 15.0913C27.0261 14.8364 27.1363 14.5356 27.1604 14.2222C27.1845 13.9087 27.1217 13.5946 26.9787 13.3146V13.3146ZM13.5 27.6134V20.9167C13.5 20.4636 13.32 20.0291 12.9996 19.7087C12.6793 19.3883 12.2447 19.2084 11.7917 19.2084H4.95833L13.5 7.38669V14.0834C13.5 14.5364 13.68 14.971 14.0004 15.2913C14.3207 15.6117 14.7552 15.7917 15.2083 15.7917H22.0417L13.5 27.6134Z" fill="#F1A132"/>
</svg>
