<svg width="13" height="11" viewBox="0 0 13 11" fill="none" xmlns="http://www.w3.org/2000/svg">
<path d="M13 1.625C12.5302 1.82881 12.0334 1.96354 11.525 2.025C12.0614 1.70457 12.4633 1.20049 12.6562 0.606248C12.1522 0.906288 11.6005 1.11768 11.025 1.23125C10.6403 0.814106 10.1281 0.536434 9.56863 0.441781C9.00916 0.347128 8.43409 0.440847 7.93362 0.708242C7.43315 0.975636 7.03558 1.40158 6.80328 1.91927C6.57097 2.43696 6.51706 3.01712 6.65 3.56875C5.63089 3.5172 4.63403 3.25184 3.72416 2.78991C2.81429 2.32798 2.01178 1.67981 1.36875 0.887498C1.14321 1.28135 1.0247 1.72739 1.025 2.18125C1.0242 2.60274 1.12764 3.01788 1.3261 3.38973C1.52456 3.76157 1.81189 4.07857 2.1625 4.3125C1.75499 4.30141 1.35618 4.19206 1 3.99375V4.025C1.00305 4.61555 1.21 5.18693 1.58582 5.64248C1.96165 6.09802 2.48328 6.40977 3.0625 6.525C2.83953 6.59285 2.60805 6.62863 2.375 6.63125C2.21368 6.62936 2.05276 6.61473 1.89375 6.5875C2.05869 7.09551 2.37789 7.53946 2.80692 7.8576C3.23595 8.17573 3.75348 8.35222 4.2875 8.3625C3.38575 9.07204 2.27243 9.45928 1.125 9.4625C0.916085 9.46318 0.707335 9.45066 0.5 9.425C1.67152 10.1814 3.03676 10.5829 4.43125 10.5812C5.39356 10.5912 6.34821 10.4094 7.23945 10.0463C8.13068 9.68321 8.94064 9.14618 9.622 8.46656C10.3034 7.78694 10.8425 6.97837 11.2078 6.08806C11.5732 5.19776 11.7575 4.24358 11.75 3.28125V2.95C12.2404 2.58425 12.6634 2.13589 13 1.625Z" fill="white" fill-opacity="0.3"/>
</svg>
