<svg width="20" height="20" viewBox="0 0 20 20" fill="none" xmlns="http://www.w3.org/2000/svg">
<path d="M10.2507 10.1833C10.6953 9.79845 11.0519 9.32241 11.2964 8.78752C11.5408 8.25264 11.6673 7.67143 11.6673 7.08334C11.6673 5.97827 11.2283 4.91846 10.4469 4.13706C9.66553 3.35566 8.60572 2.91667 7.50065 2.91667C6.39558 2.91667 5.33577 3.35566 4.55437 4.13706C3.77297 4.91846 3.33398 5.97827 3.33398 7.08334C3.33398 7.67143 3.46049 8.25264 3.70492 8.78752C3.94936 9.32241 4.306 9.79845 4.75065 10.1833C3.5841 10.7116 2.59437 11.5646 1.8998 12.6405C1.20523 13.7163 0.835211 14.9694 0.833984 16.25C0.833984 16.471 0.921782 16.683 1.07806 16.8393C1.23434 16.9955 1.4463 17.0833 1.66732 17.0833C1.88833 17.0833 2.10029 16.9955 2.25657 16.8393C2.41285 16.683 2.50065 16.471 2.50065 16.25C2.50065 14.9239 3.02744 13.6522 3.96512 12.7145C4.9028 11.7768 6.17457 11.25 7.50065 11.25C8.82673 11.25 10.0985 11.7768 11.0362 12.7145C11.9739 13.6522 12.5007 14.9239 12.5007 16.25C12.5007 16.471 12.5884 16.683 12.7447 16.8393C12.901 16.9955 13.113 17.0833 13.334 17.0833C13.555 17.0833 13.767 16.9955 13.9232 16.8393C14.0795 16.683 14.1673 16.471 14.1673 16.25C14.1661 14.9694 13.7961 13.7163 13.1015 12.6405C12.4069 11.5646 11.4172 10.7116 10.2507 10.1833ZM7.50065 9.58334C7.0062 9.58334 6.52285 9.43672 6.11173 9.16201C5.7006 8.88731 5.38017 8.49686 5.19095 8.04005C5.00173 7.58323 4.95222 7.08057 5.04869 6.59561C5.14515 6.11066 5.38325 5.6652 5.73288 5.31557C6.08252 4.96594 6.52797 4.72784 7.01293 4.63138C7.49788 4.53491 8.00054 4.58442 8.45736 4.77364C8.91418 4.96286 9.30462 5.28329 9.57932 5.69441C9.85403 6.10554 10.0007 6.58889 10.0007 7.08334C10.0007 7.74638 9.73726 8.38227 9.26842 8.85111C8.79958 9.31995 8.16369 9.58334 7.50065 9.58334ZM15.6173 9.85001C16.1506 9.24945 16.499 8.50755 16.6205 7.71362C16.742 6.91969 16.6314 6.10757 16.3021 5.37501C15.9728 4.64244 15.4388 4.02067 14.7644 3.58452C14.0899 3.14838 13.3038 2.91646 12.5007 2.91667C12.2796 2.91667 12.0677 3.00447 11.9114 3.16075C11.7551 3.31703 11.6673 3.52899 11.6673 3.75001C11.6673 3.97102 11.7551 4.18298 11.9114 4.33926C12.0677 4.49554 12.2796 4.58334 12.5007 4.58334C13.1637 4.58334 13.7996 4.84673 14.2684 5.31557C14.7373 5.78441 15.0007 6.4203 15.0007 7.08334C14.9995 7.52104 14.8834 7.95076 14.664 8.32952C14.4447 8.70829 14.1297 9.02282 13.7507 9.24167C13.6271 9.31294 13.5239 9.41473 13.451 9.53729C13.378 9.65985 13.3377 9.79909 13.334 9.94167C13.3305 10.0831 13.3631 10.2232 13.4287 10.3486C13.4943 10.4739 13.5908 10.5806 13.709 10.6583L14.034 10.875L14.1423 10.9333C15.1468 11.4098 15.9942 12.1633 16.5848 13.1053C17.1754 14.0472 17.4844 15.1383 17.4757 16.25C17.4757 16.471 17.5634 16.683 17.7197 16.8393C17.876 16.9955 18.088 17.0833 18.309 17.0833C18.53 17.0833 18.742 16.9955 18.8982 16.8393C19.0545 16.683 19.1423 16.471 19.1423 16.25C19.1491 14.9712 18.8288 13.7119 18.2119 12.5917C17.5949 11.4716 16.7018 10.5278 15.6173 9.85001Z" fill="white"/>
</svg>
