<svg width="29" height="29" viewBox="0 0 29 29" fill="none" xmlns="http://www.w3.org/2000/svg">
<path d="M11.7812 8.0475V9.57906H28.9841C28.9601 9.08516 28.9085 8.46075 28.7236 8.0475" fill="#EC1C24"/>
<path d="M27.9125 6.51593H11.7812V8.04749H28.7236C28.5396 7.4761 28.2659 6.95501 27.9125 6.51593Z" fill="#E6E7E8"/>
<path d="M24.4687 4.98438H11.7812V6.51594H27.9125C27.1562 5.56891 25.9115 4.98438 24.4687 4.98438Z" fill="#EC1C24"/>
<path d="M28.9841 9.57906H11.7812V11.1106H29V10.0897C29 9.99865 28.9941 9.90984 28.9914 9.82057C28.9896 9.7961 28.9869 9.73312 28.9841 9.57906Z" fill="#E6E7E8"/>
<path d="M11.7812 12.6422H29V11.1106H11.7812V12.6422Z" fill="#EC1C24"/>
<path d="M11.7812 14.1738H29V12.6422H11.7812V14.1738Z" fill="#E6E7E8"/>
<path d="M11.7812 14.1738H29V15.7053H11.7812V14.1738Z" fill="#EC1C24"/>
<path d="M0 15.7053V17.2369H29V15.7053H11.7812H0Z" fill="#E6E7E8"/>
<path d="M0 17.2369H29V18.7684H0V17.2369Z" fill="#EC1C24"/>
<path d="M0.00226562 19.7105C0.00226562 19.7105 -0.0018125 20.0816 0.0090625 20.3H28.9909C29.0036 20.0762 28.9977 19.7105 28.9977 19.7105L29 18.7684H0L0.00226562 19.7105Z" fill="#E6E7E8"/>
<path d="M4.53125 24.9219H24.4687C25.9156 24.9219 27.1182 24.3963 27.9397 23.3631H1.05578C1.90403 24.4189 3.12928 24.9219 4.52899 24.9219" fill="#EC1C24"/>
<path d="M1.05805 23.3631H27.942C28.3003 22.9078 28.568 22.3878 28.7304 21.8316H0.274139C0.439574 22.3862 0.70611 22.9054 1.06031 23.3631" fill="#E6E7E8"/>
<path d="M0.271876 21.8316H28.7281C28.8765 21.3334 28.9647 20.8192 28.9909 20.3H0.00906372C0.0539231 20.8238 0.0956106 21.2194 0.271876 21.8316Z" fill="#EC1C24"/>
<path d="M11.7812 4.98438H4.53125C1.52839 4.98438 0 7.21602 0 9.96875V15.7053H11.7812V4.98438Z" fill="#176496"/>
<path d="M1.2668 7.69225L1.5133 7.50285L1.75935 7.69225L1.66374 7.38775L1.90888 7.20152H1.60619L1.5124 6.89566L1.41905 7.20152H1.11682L1.36286 7.38775L1.2668 7.69225Z" fill="white"/>
<path d="M2.89638 7.69225L3.14287 7.50285L3.38892 7.69225L3.29377 7.38775L3.53845 7.20152H3.23622L3.14242 6.89566L3.04908 7.20152H2.74594L2.99198 7.38775L2.89638 7.69225Z" fill="white"/>
<path d="M4.69302 7.69225L4.93906 7.50285L5.18556 7.69225L5.08995 7.38775L5.33464 7.20152H5.03422L4.93906 6.89566L4.84527 7.20152H4.54485L4.78817 7.38775L4.69302 7.69225Z" fill="white"/>
<path d="M6.47652 7.69225L6.72257 7.50285L6.96907 7.69225L6.87391 7.38775L7.1186 7.20152H6.815L6.72257 6.89566L6.62922 7.20152H6.32653L6.57213 7.38775L6.47652 7.69225Z" fill="white"/>
<path d="M8.26636 7.69225L8.51286 7.50285L8.75891 7.69225L8.66375 7.38775L8.90889 7.20152H8.60575L8.51241 6.89566L8.41906 7.20152H8.11683L8.36152 7.38775L8.26636 7.69225Z" fill="white"/>
<path d="M2.13467 8.48749L2.38072 8.29854L2.62677 8.48749L2.53206 8.18344L2.77675 7.99721H2.47406L2.38027 7.6918L2.28828 7.99721H1.98469L2.22983 8.18344L2.13467 8.48749Z" fill="white"/>
<path d="M3.76366 8.48749L4.00971 8.29854L4.25575 8.48749L4.1606 8.18344L4.40528 7.99721H4.10078L4.00971 7.6918L3.91591 7.99721H3.61367L3.85881 8.18344L3.76366 8.48749Z" fill="white"/>
<path d="M5.5603 8.48749L5.80589 8.29854L6.05194 8.48749L5.95678 8.18344L6.20192 7.99721H5.89969L5.80589 7.6918L5.7121 7.99721H5.40941L5.65455 8.18344L5.5603 8.48749Z" fill="white"/>
<path d="M7.34289 8.48749L7.58939 8.29854L7.83589 8.48749L7.73938 8.18344L7.98497 7.99721H7.68274L7.58894 7.6918L7.49605 7.99721H7.19336L7.4385 8.18344L7.34289 8.48749Z" fill="white"/>
<path d="M9.135 8.48749L9.37923 8.29854L9.62528 8.48749L9.52922 8.18344L9.77481 7.99721H9.47303L9.37878 7.6918L9.28589 7.99721H8.9832L9.22834 8.18344L9.135 8.48749Z" fill="white"/>
<path d="M10.1441 7.69225L10.3902 7.50285L10.6367 7.69225L10.541 7.38775L10.7857 7.20152H10.4853L10.3897 6.89566L10.2964 7.20152H9.99141L10.2393 7.38775L10.1441 7.69225Z" fill="white"/>
<path d="M1.24383 14.0559L1.49033 13.8688L1.73638 14.0559L1.64122 13.7542L1.88591 13.5675L1.58367 13.5684L1.48942 13.263L1.39699 13.5684L1.09385 13.5675L1.33899 13.7542L1.24383 14.0559Z" fill="white"/>
<path d="M2.87281 14.0559L3.11886 13.8688L3.36536 14.0559L3.26975 13.7542L3.51444 13.5675L3.21266 13.5684L3.11841 13.263L3.02552 13.5684L2.72328 13.5675L2.96797 13.7542L2.87281 14.0559Z" fill="white"/>
<path d="M4.66945 14.0559L4.9155 13.8688L5.162 14.0559L5.06639 13.7542L5.31108 13.5675L5.00703 13.5684L4.91505 13.263L4.8217 13.5684L4.51947 13.5675L4.76461 13.7542L4.66945 14.0559Z" fill="white"/>
<path d="M6.45296 14.0559L6.699 13.8688L6.94505 14.0559L6.85125 13.7542L7.09458 13.5675L6.79189 13.5684L6.69855 13.263L6.60521 13.5684L6.30297 13.5675L6.54766 13.7542L6.45296 14.0559Z" fill="white"/>
<path d="M8.24235 14.0559L8.48885 13.8688L8.73535 14.0559L8.6411 13.7542L8.88443 13.5675L8.58219 13.5684L8.48839 13.263L8.3955 13.5684L8.09282 13.5675L8.3375 13.7542L8.24235 14.0559Z" fill="white"/>
<path d="M10.1201 14.0559L10.3661 13.8688L10.6126 14.0559L10.517 13.7542L10.7622 13.5675L10.4581 13.5684L10.3657 13.263L10.2723 13.5684L9.96875 13.5675L10.2153 13.7542L10.1201 14.0559Z" fill="white"/>
<path d="M1.26785 9.28363L1.51435 9.09422L1.76039 9.28363L1.66478 8.97913L1.90993 8.79289L1.60724 8.7938L1.51344 8.48749L1.4201 8.7938L1.11786 8.79289L1.36391 8.97913L1.26785 9.28363Z" fill="white"/>
<path d="M2.89638 9.28363L3.14287 9.09422L3.38892 9.28363L3.29377 8.97913L3.53845 8.79289L3.23622 8.7938L3.14242 8.48749L3.04908 8.7938L2.74594 8.79289L2.99198 8.97913L2.89638 9.28363Z" fill="white"/>
<path d="M4.69302 9.28363L4.93906 9.09422L5.18556 9.28363L5.08995 8.97913L5.33464 8.79289L5.03422 8.7938L4.93906 8.48749L4.84527 8.7938L4.54485 8.79289L4.78817 8.97913L4.69302 9.28363Z" fill="white"/>
<path d="M6.47652 9.28363L6.72257 9.09422L6.96907 9.28363L6.87391 8.97913L7.1186 8.79289L6.815 8.7938L6.72257 8.48749L6.62922 8.7938L6.32653 8.79289L6.57213 8.97913L6.47652 9.28363Z" fill="white"/>
<path d="M8.26636 9.28363L8.51286 9.09422L8.75891 9.28363L8.66375 8.97913L8.90889 8.79289L8.60575 8.7938L8.51241 8.48749L8.41906 8.7938L8.11683 8.79289L8.36152 8.97913L8.26636 9.28363Z" fill="white"/>
<path d="M2.13467 10.0793L2.38072 9.89036L2.62677 10.0793L2.53206 9.77527L2.77675 9.58813H2.47406L2.38027 9.28363L2.28828 9.58813H1.98469L2.22983 9.77527L2.13467 10.0793Z" fill="white"/>
<path d="M3.76366 10.0793L4.00971 9.89036L4.25575 10.0793L4.1606 9.77527L4.40528 9.58813H4.10078L4.00971 9.28363L3.91591 9.58813H3.61367L3.85881 9.77527L3.76366 10.0793Z" fill="white"/>
<path d="M5.5603 10.0793L5.80589 9.89036L6.05194 10.0793L5.95678 9.77527L6.20192 9.58813H5.89969L5.80589 9.28363L5.7121 9.58813H5.40941L5.65455 9.77527L5.5603 10.0793Z" fill="white"/>
<path d="M7.34289 10.0793L7.58939 9.89036L7.83589 10.0793L7.73938 9.77527L7.98497 9.58813H7.68274L7.58894 9.28363L7.49605 9.58813H7.19336L7.4385 9.77527L7.34289 10.0793Z" fill="white"/>
<path d="M9.135 10.0793L9.37923 9.89036L9.62528 10.0793L9.52922 9.77527L9.77481 9.58813H9.47303L9.37878 9.28363L9.28589 9.58813H8.9832L9.22834 9.77527L9.135 10.0793Z" fill="white"/>
<path d="M10.1441 9.28363L10.3902 9.09422L10.6367 9.28363L10.541 8.97913L10.7857 8.79289L10.4853 8.7938L10.3897 8.48749L10.2964 8.7938L9.99141 8.79289L10.2393 8.97913L10.1441 9.28363Z" fill="white"/>
<path d="M1.24383 10.875L1.49033 10.686L1.73638 10.875L1.64077 10.5714L1.88591 10.3847L1.58322 10.3856L1.48942 10.0793L1.39699 10.3856L1.09385 10.3847L1.33899 10.5714L1.24383 10.875Z" fill="white"/>
<path d="M2.87281 10.875L3.11886 10.686L3.36536 10.875L3.26975 10.5714L3.51444 10.3847L3.21266 10.3856L3.11841 10.0793L3.02552 10.3856L2.72328 10.3847L2.96752 10.5714L2.87281 10.875Z" fill="white"/>
<path d="M4.66945 10.875L4.9155 10.686L5.16155 10.875L5.06639 10.5714L5.31108 10.3847L5.00703 10.3856L4.91505 10.0793L4.8217 10.3856L4.51947 10.3847L4.76461 10.5714L4.66945 10.875Z" fill="white"/>
<path d="M6.45296 10.875L6.69855 10.686L6.94505 10.875L6.85125 10.5714L7.09458 10.3847L6.79189 10.3856L6.69855 10.0793L6.60521 10.3856L6.30297 10.3847L6.54766 10.5714L6.45296 10.875Z" fill="white"/>
<path d="M8.24235 10.875L8.48885 10.686L8.73489 10.875L8.6411 10.5714L8.88443 10.3847L8.58174 10.3856L8.48839 10.0793L8.3955 10.3856L8.09282 10.3847L8.3375 10.5714L8.24235 10.875Z" fill="white"/>
<path d="M2.11066 11.6707L2.35671 11.4822L2.60275 11.6707L2.50805 11.3689L2.75228 11.1813H2.4496L2.35625 10.875L2.26336 11.1813H1.96067L2.20581 11.3689L2.11066 11.6707Z" fill="white"/>
<path d="M3.73964 11.6707L3.98569 11.4822L4.23173 11.6707L4.13658 11.3689L4.38127 11.1813H4.07812L3.98523 10.875L3.89189 11.1813H3.5892L3.8348 11.3689L3.73964 11.6707Z" fill="white"/>
<path d="M5.53674 11.6707L5.78188 11.4822L6.02838 11.6707L5.93141 11.3689L6.17791 11.1813H5.87567L5.78188 10.875L5.68853 11.1813H5.38585L5.63099 11.3689L5.53674 11.6707Z" fill="white"/>
<path d="M7.31797 11.6707L7.56538 11.4822L7.81188 11.6707L7.71672 11.3689L7.96095 11.1813H7.65872L7.56492 10.875L7.47203 11.1813H7.16935L7.41449 11.3689L7.31797 11.6707Z" fill="white"/>
<path d="M9.10782 11.6707L9.35522 11.4822L9.60172 11.6707L9.50611 11.3689L9.75171 11.1813H9.44947L9.35522 10.875L9.26188 11.1813H8.95919L9.20433 11.3689L9.10782 11.6707Z" fill="white"/>
<path d="M10.1201 10.875L10.3661 10.686L10.6122 10.875L10.517 10.5714L10.7622 10.3847L10.4581 10.3856L10.3657 10.0793L10.2723 10.3856L9.96875 10.3847L10.2153 10.5714L10.1201 10.875Z" fill="white"/>
<path d="M1.24383 12.4668L1.49033 12.2797L1.73638 12.4668L1.64077 12.1628L1.88591 11.9761L1.58322 11.977L1.48942 11.6707L1.39699 11.977L1.09385 11.9761L1.33899 12.1628L1.24383 12.4668Z" fill="white"/>
<path d="M2.87281 12.4668L3.11886 12.2797L3.36536 12.4668L3.26975 12.1628L3.51444 11.9761L3.21266 11.977L3.11841 11.6707L3.02552 11.977L2.72328 11.9761L2.96752 12.1628L2.87281 12.4668Z" fill="white"/>
<path d="M4.66945 12.4668L4.9155 12.2797L5.16155 12.4668L5.06639 12.1628L5.31108 11.9761L5.00703 11.977L4.91505 11.6707L4.8217 11.977L4.51947 11.9761L4.76461 12.1628L4.66945 12.4668Z" fill="white"/>
<path d="M6.45296 12.4668L6.69855 12.2797L6.94505 12.4668L6.85125 12.1628L7.09458 11.9761L6.79189 11.977L6.69855 11.6707L6.60521 11.977L6.30297 11.9761L6.54766 12.1628L6.45296 12.4668Z" fill="white"/>
<path d="M8.24235 12.4668L8.48885 12.2797L8.73489 12.4668L8.6411 12.1628L8.88443 11.9761L8.58174 11.977L8.48839 11.6707L8.3955 11.977L8.09282 11.9761L8.3375 12.1628L8.24235 12.4668Z" fill="white"/>
<path d="M2.11066 13.263L2.35671 13.0736L2.60275 13.263L2.50805 12.9585L2.75228 12.7736H2.4496L2.35625 12.4668L2.26336 12.7736H1.96067L2.20581 12.9585L2.11066 13.263Z" fill="white"/>
<path d="M3.73964 13.263L3.98569 13.0736L4.23173 13.263L4.13658 12.9585L4.38127 12.7736H4.07812L3.98523 12.4668L3.89189 12.7736H3.5892L3.8348 12.9585L3.73964 13.263Z" fill="white"/>
<path d="M5.53674 13.263L5.78188 13.0736L6.02838 13.263L5.93141 12.9585L6.17791 12.7736H5.87567L5.78188 12.4668L5.68853 12.7736H5.38585L5.63099 12.9585L5.53674 13.263Z" fill="white"/>
<path d="M7.31797 13.263L7.56538 13.0736L7.81188 13.263L7.71672 12.9585L7.96095 12.7736H7.65872L7.56492 12.4668L7.47203 12.7736H7.16935L7.41449 12.9585L7.31797 13.263Z" fill="white"/>
<path d="M9.10782 13.263L9.35522 13.0736L9.60172 13.263L9.50611 12.9585L9.75171 12.7736H9.44947L9.35522 12.4668L9.26188 12.7736H8.95919L9.20433 12.9585L9.10782 13.263Z" fill="white"/>
<path d="M10.1201 12.4668L10.3661 12.2797L10.6122 12.4668L10.517 12.1628L10.7622 11.9761L10.4581 11.977L10.3657 11.6707L10.2723 11.977L9.96875 11.9761L10.2153 12.1628L10.1201 12.4668Z" fill="white"/>
</svg>
