<svg width="18" height="18" viewBox="0 0 18 18" fill="none" xmlns="http://www.w3.org/2000/svg">
<path d="M12.0924 9.59166C12.9094 8.94888 13.5057 8.06743 13.7984 7.06994C14.0911 6.07246 14.0657 5.00855 13.7256 4.02622C13.3854 3.04388 12.7476 2.19199 11.9008 1.58904C11.054 0.986091 10.0403 0.662079 9.00073 0.662079C7.96119 0.662079 6.94749 0.986091 6.10067 1.58904C5.25385 2.19199 4.61602 3.04388 4.27591 4.02622C3.9358 5.00855 3.91032 6.07246 4.20303 7.06994C4.49574 8.06743 5.09207 8.94888 5.90906 9.59166C4.50913 10.1525 3.28764 11.0828 2.37481 12.2833C1.46198 13.4837 0.892032 14.9094 0.72573 16.4083C0.713692 16.5178 0.723327 16.6285 0.754084 16.7342C0.784842 16.8399 0.836119 16.9385 0.904989 17.0244C1.04408 17.1979 1.24638 17.309 1.4674 17.3333C1.68841 17.3576 1.91003 17.2932 2.0835 17.1541C2.25697 17.015 2.36809 16.8127 2.3924 16.5917C2.57538 14.9627 3.35214 13.4582 4.57425 12.3657C5.79636 11.2731 7.37815 10.6692 9.0174 10.6692C10.6566 10.6692 12.2384 11.2731 13.4605 12.3657C14.6827 13.4582 15.4594 14.9627 15.6424 16.5917C15.6651 16.7964 15.7628 16.9855 15.9167 17.1225C16.0705 17.2595 16.2697 17.3346 16.4757 17.3333H16.5674C16.7858 17.3082 16.9855 17.1977 17.1229 17.026C17.2602 16.8543 17.3242 16.6353 17.3007 16.4167C17.1336 14.9135 16.5606 13.4841 15.6431 12.2818C14.7256 11.0795 13.4982 10.1496 12.0924 9.59166ZM9.00073 8.99999C8.34146 8.99999 7.69699 8.8045 7.14883 8.43822C6.60067 8.07195 6.17342 7.55136 5.92113 6.94227C5.66884 6.33318 5.60283 5.66296 5.73145 5.01636C5.86006 4.36975 6.17753 3.77581 6.64371 3.30964C7.10988 2.84346 7.70383 2.52599 8.35043 2.39737C8.99703 2.26876 9.66726 2.33477 10.2763 2.58706C10.8854 2.83935 11.406 3.26659 11.7723 3.81476C12.1386 4.36292 12.3341 5.00739 12.3341 5.66666C12.3341 6.55071 11.9829 7.39856 11.3578 8.02368C10.7326 8.6488 9.88479 8.99999 9.00073 8.99999Z" fill="white"/>
</svg>
