<svg width="38" height="30" viewBox="0 0 38 30" fill="none" xmlns="http://www.w3.org/2000/svg">
<path d="M19.4993 15.3667C20.3886 14.5969 21.1019 13.6448 21.5908 12.575C22.0797 11.5053 22.3327 10.3428 22.3327 9.16666C22.3327 6.95652 21.4547 4.83691 19.8919 3.27411C18.3291 1.7113 16.2095 0.833329 13.9993 0.833329C11.7892 0.833329 9.6696 1.7113 8.10679 3.27411C6.54399 4.83691 5.66602 6.95652 5.66602 9.16666C5.666 10.3428 5.91902 11.5053 6.40789 12.575C6.89676 13.6448 7.61005 14.5969 8.49935 15.3667C6.16625 16.4231 4.18679 18.1292 2.79765 20.2809C1.40851 22.4326 0.668469 24.9388 0.666016 27.5C0.666016 27.942 0.84161 28.3659 1.15417 28.6785C1.46673 28.9911 1.89065 29.1667 2.33268 29.1667C2.77471 29.1667 3.19863 28.9911 3.51119 28.6785C3.82375 28.3659 3.99935 27.942 3.99935 27.5C3.99935 24.8478 5.05292 22.3043 6.92828 20.4289C8.80365 18.5536 11.3472 17.5 13.9993 17.5C16.6515 17.5 19.1951 18.5536 21.0704 20.4289C22.9458 22.3043 23.9993 24.8478 23.9993 27.5C23.9993 27.942 24.1749 28.3659 24.4875 28.6785C24.8001 28.9911 25.224 29.1667 25.666 29.1667C26.108 29.1667 26.532 28.9911 26.8445 28.6785C27.1571 28.3659 27.3327 27.942 27.3327 27.5C27.3302 24.9388 26.5902 22.4326 25.201 20.2809C23.8119 18.1292 21.8324 16.4231 19.4993 15.3667ZM13.9993 14.1667C13.0104 14.1667 12.0437 13.8734 11.2215 13.324C10.3993 12.7746 9.75839 11.9937 9.37995 11.0801C9.00151 10.1664 8.9025 9.16112 9.09542 8.19121C9.28835 7.22131 9.76455 6.33039 10.4638 5.63113C11.1631 4.93187 12.054 4.45566 13.0239 4.26274C13.9938 4.06981 14.9991 4.16883 15.9128 4.54727C16.8264 4.9257 17.6073 5.56657 18.1567 6.38881C18.7061 7.21106 18.9993 8.17776 18.9993 9.16666C18.9993 10.4927 18.4726 11.7645 17.5349 12.7022C16.5972 13.6399 15.3254 14.1667 13.9993 14.1667ZM30.2327 14.7C31.2993 13.4989 31.996 12.0151 32.239 10.4272C32.482 8.83937 32.2609 7.21512 31.6023 5.75C30.9437 4.28487 29.8757 3.04132 28.5268 2.16903C27.1779 1.29674 25.6057 0.832899 23.9993 0.833329C23.5573 0.833329 23.1334 1.00892 22.8208 1.32148C22.5083 1.63404 22.3327 2.05797 22.3327 2.5C22.3327 2.94202 22.5083 3.36595 22.8208 3.67851C23.1334 3.99107 23.5573 4.16666 23.9993 4.16666C25.3254 4.16666 26.5972 4.69345 27.5349 5.63113C28.4726 6.56881 28.9993 7.84058 28.9993 9.16666C28.997 10.0421 28.7648 10.9015 28.3261 11.659C27.8874 12.4166 27.2575 13.0456 26.4993 13.4833C26.2522 13.6259 26.0459 13.8294 25.9 14.0746C25.754 14.3197 25.6735 14.5982 25.666 14.8833C25.659 15.1663 25.7242 15.4463 25.8555 15.6971C25.9867 15.9479 26.1796 16.1611 26.416 16.3167L27.066 16.75L27.2827 16.8667C29.2917 17.8195 30.9865 19.3266 32.1676 21.2105C33.3488 23.0944 33.9669 25.2766 33.9493 27.5C33.9493 27.942 34.1249 28.3659 34.4375 28.6785C34.7501 28.9911 35.174 29.1667 35.616 29.1667C36.058 29.1667 36.482 28.9911 36.7945 28.6785C37.1071 28.3659 37.2827 27.942 37.2827 27.5C37.2963 24.9424 36.6557 22.4238 35.4218 20.1834C34.1879 17.9431 32.4016 16.0555 30.2327 14.7Z" fill="#F1A132"/>
</svg>
