<svg width="21" height="33" viewBox="0 0 21 33" fill="none" xmlns="http://www.w3.org/2000/svg">
<path d="M13.75 14.875H7.25C6.38805 14.875 5.5614 14.5326 4.9519 13.9231C4.34241 13.3136 4 12.487 4 11.625C4 10.763 4.34241 9.9364 4.9519 9.3269C5.5614 8.71741 6.38805 8.375 7.25 8.375H15.375C15.806 8.375 16.2193 8.54621 16.524 8.85095C16.8288 9.1557 17 9.56902 17 10C17 10.431 17.1712 10.8443 17.476 11.149C17.7807 11.4538 18.194 11.625 18.625 11.625C19.056 11.625 19.4693 11.4538 19.774 11.149C20.0788 10.8443 20.25 10.431 20.25 10C20.25 8.70707 19.7364 7.46709 18.8221 6.55285C17.9079 5.63861 16.6679 5.125 15.375 5.125H12.125V1.875C12.125 1.44402 11.9538 1.0307 11.649 0.725951C11.3443 0.421205 10.931 0.25 10.5 0.25C10.069 0.25 9.6557 0.421205 9.35095 0.725951C9.04621 1.0307 8.875 1.44402 8.875 1.875V5.125H7.25C5.52609 5.125 3.87279 5.80982 2.65381 7.02881C1.43482 8.24779 0.75 9.90109 0.75 11.625C0.75 13.3489 1.43482 15.0022 2.65381 16.2212C3.87279 17.4402 5.52609 18.125 7.25 18.125H13.75C14.612 18.125 15.4386 18.4674 16.0481 19.0769C16.6576 19.6864 17 20.513 17 21.375C17 22.237 16.6576 23.0636 16.0481 23.6731C15.4386 24.2826 14.612 24.625 13.75 24.625H5.625C5.19402 24.625 4.7807 24.4538 4.47595 24.149C4.17121 23.8443 4 23.431 4 23C4 22.569 3.82879 22.1557 3.52405 21.851C3.2193 21.5462 2.80598 21.375 2.375 21.375C1.94402 21.375 1.5307 21.5462 1.22595 21.851C0.921205 22.1557 0.75 22.569 0.75 23C0.75 24.2929 1.26361 25.5329 2.17785 26.4471C3.09209 27.3614 4.33207 27.875 5.625 27.875H8.875V31.125C8.875 31.556 9.04621 31.9693 9.35095 32.274C9.6557 32.5788 10.069 32.75 10.5 32.75C10.931 32.75 11.3443 32.5788 11.649 32.274C11.9538 31.9693 12.125 31.556 12.125 31.125V27.875H13.75C15.4739 27.875 17.1272 27.1902 18.3462 25.9712C19.5652 24.7522 20.25 23.0989 20.25 21.375C20.25 19.6511 19.5652 17.9978 18.3462 16.7788C17.1272 15.5598 15.4739 14.875 13.75 14.875Z" fill="#F1A132"/>
</svg>
