<svg width="33" height="33" viewBox="0 0 33 33" fill="none" xmlns="http://www.w3.org/2000/svg">
<g clip-path="url(#clip0_26_257)">
<path d="M32.5065 20.4903C30.302 29.3343 21.3416 34.7104 12.5102 32.5057C3.66594 30.3012 -1.71022 21.3412 0.49446 12.5099C2.69901 3.66594 11.6464 -1.71022 20.4907 0.494461C29.322 2.68612 34.7112 11.6461 32.5065 20.4903Z" fill="url(#paint0_linear_26_257)"/>
<path d="M24.3562 14.444C24.6785 12.2525 23.0156 11.0666 20.7211 10.2803L21.4687 7.30255L19.664 6.85137L18.9422 9.75176C18.4652 9.63575 17.9754 9.51973 17.4855 9.41661L18.2074 6.50333L16.4027 6.05215L15.6679 9.017C15.2683 8.92676 14.8816 8.83653 14.5078 8.74629V8.7334L12.007 8.11465L11.5301 10.0482C11.5301 10.0482 12.8707 10.3576 12.8449 10.3705C13.5797 10.551 13.7086 11.0408 13.6828 11.4275L12.832 14.8178C12.8836 14.8307 12.948 14.8436 13.0254 14.8822C12.9609 14.8693 12.8965 14.8565 12.832 14.8307L11.6461 19.5744C11.5558 19.7936 11.3238 20.1287 10.8211 19.9998C10.834 20.0256 9.50623 19.6775 9.50623 19.6775L8.60388 21.7529L10.9629 22.3459C11.4011 22.4619 11.8265 22.565 12.2519 22.6811L11.5043 25.6846L13.309 26.1357L14.0566 23.158C14.5465 23.2869 15.0363 23.4158 15.5004 23.5318L14.7656 26.4967L16.5703 26.9479L17.3179 23.9443C20.4117 24.5244 22.732 24.2924 23.6988 21.4951C24.4851 19.2522 23.6601 17.9502 22.0359 17.0994C23.2347 16.8287 24.1242 16.0424 24.3562 14.444ZM20.2183 20.2447C19.664 22.4877 15.8742 21.276 14.6496 20.9666L15.6422 16.9834C16.8668 17.2928 20.8113 17.8986 20.2183 20.2447ZM20.7855 14.4053C20.2699 16.4549 17.1246 15.4107 16.1062 15.1529L17.0086 11.5436C18.0269 11.8014 21.314 12.2783 20.7855 14.4053Z" fill="white"/>
</g>
<defs>
<linearGradient id="paint0_linear_26_257" x1="16.4912" y1="-0.00779792" x2="16.4912" y2="32.9968" gradientUnits="userSpaceOnUse">
<stop stop-color="#F9AA4B"/>
<stop offset="1" stop-color="#F7931A"/>
</linearGradient>
<clipPath id="clip0_26_257">
<rect width="33" height="33" fill="white"/>
</clipPath>
</defs>
</svg>
