<svg width="385" height="90" viewBox="0 0 385 90" fill="none" xmlns="http://www.w3.org/2000/svg">
<path d="M58.3333 61.792C49 61.792 17.3539 62.23 0 22.5688V90H385V32.1204C370.217 45.1223 362.1 36.9357 352.863 32.1204L344.75 22.5688C336.475 17.4195 322 -0.083528 296.865 29.5379C275.675 59.8195 253.298 47.4851 246.556 35.0777C238.488 -1.02062 219.917 -11.9127 199.89 14.9779C191.826 32.8838 176.243 60.9338 158.667 37.4988C140.995 7.38397 120.75 9.9733 106.963 26.0534C83.4167 64.7493 67.6667 61.792 58.3333 61.792Z" fill="url(#paint0_linear_799_2)"/>
<defs>
<linearGradient id="paint0_linear_799_2" x1="192.5" y1="0" x2="192.5" y2="90" gradientUnits="userSpaceOnUse">
<stop stop-color="#FAAF6A" stop-opacity="0.14"/>
<stop offset="1" stop-color="white" stop-opacity="0"/>
</linearGradient>
</defs>
</svg>
