<svg width="382" height="382" viewBox="0 0 382 382" fill="none" xmlns="http://www.w3.org/2000/svg">
<circle cx="191.5" cy="192.5" r="168" stroke="white" stroke-opacity="0.15"/>
<circle cx="191" cy="191" r="190.5" stroke="#F1A132" stroke-opacity="0.15" stroke-dasharray="5 5"/>
<circle cx="191" cy="191" r="118.5" stroke="white" stroke-opacity="0.05"/>
<circle cx="191" cy="191" r="143.5" stroke="#F1A132" stroke-opacity="0.1"/>
<path d="M191 240C163.937 240 142 218.063 142 191C142 163.937 163.937 142 191 142C218.063 142 240 163.937 240 191C240 218.063 218.063 240 191 240ZM192.733 157.312C193.288 161.82 193.53 166.396 193.912 170.904C194.133 172.267 194.249 173.648 194.258 175.029L205.979 186.713C200.846 194.062 195.575 201.379 190.446 208.762C190.966 214.658 191.417 220.553 192.008 226.445L227.441 176.242H211.699C205.391 169.933 199.113 163.588 192.767 157.312H192.733ZM154.284 207.721H154.25V207.862C159.517 207.758 164.791 207.862 170.059 207.792L188.884 226.654H188.954C188.366 220.725 187.913 214.759 187.392 208.867C183.475 205.017 179.629 201.1 175.779 197.254C180.946 189.904 186.146 182.621 191.312 175.234L189.821 157.487C177.963 174.233 166.178 191.012 154.284 207.721Z" fill="#F1A132"/>
</svg>
