<svg width="268" height="172" viewBox="0 0 268 172" fill="none" xmlns="http://www.w3.org/2000/svg">
<path d="M76.8686 162.383C76.5852 160.031 74.8054 158.679 72.4489 158.679C69.7592 158.679 67.706 160.578 67.706 163.909C67.706 167.23 69.7244 169.139 72.4489 169.139C75.0589 169.139 76.6349 167.404 76.8686 165.53L74.6911 165.52C74.4872 166.609 73.6321 167.235 72.4837 167.235C70.9375 167.235 69.8885 166.087 69.8885 163.909C69.8885 161.791 70.9226 160.583 72.4986 160.583C73.6768 160.583 74.527 161.264 74.6911 162.383H76.8686ZM83.2695 165.749C83.2745 166.773 82.5735 167.31 81.8129 167.31C81.0124 167.31 80.4954 166.748 80.4904 165.848V161.364H78.3725V166.226C78.3775 168.011 79.4215 169.099 80.9577 169.099C82.1062 169.099 82.9315 168.508 83.2745 167.613H83.354V169H85.3874V161.364H83.2695V165.749ZM87.0815 169H89.1994V164.68C89.1994 163.74 89.8855 163.094 90.8201 163.094C91.1135 163.094 91.5162 163.143 91.715 163.208V161.329C91.5261 161.284 91.2626 161.254 91.0488 161.254C90.1937 161.254 89.4927 161.751 89.2143 162.696H89.1348V161.364H87.0815V169ZM92.81 169H94.9279V164.68C94.9279 163.74 95.614 163.094 96.5487 163.094C96.842 163.094 97.2447 163.143 97.4435 163.208V161.329C97.2546 161.284 96.9911 161.254 96.7773 161.254C95.9222 161.254 95.2212 161.751 94.9428 162.696H94.8633V161.364H92.81V169ZM101.663 169.149C103.552 169.149 104.825 168.229 105.123 166.812L103.165 166.683C102.951 167.265 102.404 167.568 101.698 167.568C100.639 167.568 99.9679 166.867 99.9679 165.729V165.724H105.168V165.142C105.168 162.547 103.597 161.264 101.579 161.264C99.3315 161.264 97.8748 162.86 97.8748 165.217C97.8748 167.638 99.3116 169.149 101.663 169.149ZM99.9679 164.411C100.013 163.541 100.674 162.845 101.613 162.845C102.533 162.845 103.17 163.501 103.175 164.411H99.9679ZM108.668 164.585C108.673 163.601 109.26 163.024 110.115 163.024C110.965 163.024 111.477 163.581 111.472 164.516V169H113.59V164.138C113.59 162.358 112.546 161.264 110.955 161.264C109.822 161.264 109.001 161.821 108.658 162.711H108.569V161.364H106.55V169H108.668V164.585ZM119.321 161.364H117.884V159.534H115.766V161.364H114.722V162.955H115.766V166.932C115.756 168.428 116.776 169.169 118.312 169.104C118.859 169.085 119.246 168.975 119.46 168.906L119.127 167.33C119.023 167.349 118.799 167.399 118.6 167.399C118.178 167.399 117.884 167.24 117.884 166.653V162.955H119.321V161.364ZM125.736 169L126.491 166.678H130.165L130.921 169H133.228L129.718 158.818H126.944L123.429 169H125.736ZM127.038 164.998L128.291 161.145H128.371L129.623 164.998H127.038ZM136.531 164.585C136.536 163.601 137.123 163.024 137.978 163.024C138.828 163.024 139.34 163.581 139.335 164.516V169H141.453V164.138C141.453 162.358 140.409 161.264 138.818 161.264C137.685 161.264 136.865 161.821 136.521 162.711H136.432V161.364H134.414V169H136.531V164.585ZM145.24 164.585C145.245 163.601 145.832 163.024 146.687 163.024C147.537 163.024 148.049 163.581 148.044 164.516V169H150.162V164.138C150.162 162.358 149.118 161.264 147.527 161.264C146.394 161.264 145.574 161.821 145.23 162.711H145.141V161.364H143.123V169H145.24V164.585ZM156.729 165.749C156.733 166.773 156.032 167.31 155.272 167.31C154.471 167.31 153.954 166.748 153.949 165.848V161.364H151.831V166.226C151.836 168.011 152.881 169.099 154.417 169.099C155.565 169.099 156.39 168.508 156.733 167.613H156.813V169H158.846V161.364H156.729V165.749ZM162.718 169.144C163.847 169.144 164.577 168.652 164.95 167.941H165.01V169H167.018V163.849C167.018 162.03 165.477 161.264 163.777 161.264C161.947 161.264 160.744 162.139 160.451 163.531L162.41 163.69C162.554 163.183 163.006 162.81 163.767 162.81C164.488 162.81 164.901 163.173 164.901 163.8V163.83C164.901 164.322 164.379 164.386 163.051 164.516C161.54 164.655 160.183 165.162 160.183 166.867C160.183 168.379 161.261 169.144 162.718 169.144ZM163.325 167.683C162.673 167.683 162.206 167.379 162.206 166.798C162.206 166.201 162.698 165.908 163.444 165.803C163.906 165.739 164.662 165.629 164.915 165.46V166.271C164.915 167.071 164.254 167.683 163.325 167.683ZM170.779 158.818H168.662V169H170.779V158.818ZM175.159 158.818L178.873 165.401V169H181.011V165.401L184.725 158.818H182.314L179.992 163.203H179.892L177.571 158.818H175.159ZM185.738 169H187.856V161.364H185.738V169ZM186.802 160.379C187.433 160.379 187.95 159.897 187.95 159.305C187.95 158.719 187.433 158.237 186.802 158.237C186.175 158.237 185.658 158.719 185.658 159.305C185.658 159.897 186.175 160.379 186.802 160.379ZM193.032 169.149C194.922 169.149 196.194 168.229 196.493 166.812L194.534 166.683C194.32 167.265 193.773 167.568 193.067 167.568C192.008 167.568 191.337 166.867 191.337 165.729V165.724H196.537V165.142C196.537 162.547 194.966 161.264 192.948 161.264C190.701 161.264 189.244 162.86 189.244 165.217C189.244 167.638 190.681 169.149 193.032 169.149ZM191.337 164.411C191.382 163.541 192.043 162.845 192.983 162.845C193.902 162.845 194.539 163.501 194.544 164.411H191.337ZM200.037 158.818H197.919V169H200.037V158.818ZM204.548 169.124C205.781 169.124 206.422 168.413 206.715 167.777H206.805V169H208.893V158.818H206.78V162.646H206.715C206.432 162.025 205.82 161.264 204.543 161.264C202.867 161.264 201.45 162.567 201.45 165.192C201.45 167.747 202.808 169.124 204.548 169.124ZM205.219 167.439C204.18 167.439 203.613 166.514 203.613 165.182C203.613 163.859 204.17 162.95 205.219 162.95C206.248 162.95 206.825 163.82 206.825 165.182C206.825 166.544 206.238 167.439 205.219 167.439Z" fill="white"/>
<g filter="url(#filter0_d_815_28)">
<path d="M180.934 103.656L177 99.1251L215.573 68.8122L180.934 103.656Z" fill="white"/>
</g>
<path d="M134 76C101.967 76 76 101.967 76 134H192C192 101.967 166.033 76 134 76Z" fill="#F1A132"/>
<path d="M116.589 113.139C118.876 113.139 120.511 111.881 120.506 110.141C120.511 108.874 119.706 107.969 118.21 107.78V107.7C119.348 107.496 120.134 106.691 120.129 105.548C120.134 103.942 118.727 102.679 116.619 102.679C114.531 102.679 112.96 103.902 112.93 105.662H114.993C115.018 104.886 115.729 104.384 116.609 104.384C117.479 104.384 118.06 104.911 118.055 105.677C118.06 106.477 117.379 107.019 116.4 107.019H115.45V108.6H116.4C117.553 108.6 118.274 109.177 118.269 109.997C118.274 110.808 117.578 111.364 116.594 111.364C115.644 111.364 114.933 110.867 114.893 110.121H112.726C112.761 111.901 114.352 113.139 116.589 113.139ZM123.025 113.129C123.661 113.129 124.213 112.597 124.218 111.936C124.213 111.285 123.661 110.753 123.025 110.753C122.368 110.753 121.826 111.285 121.831 111.936C121.826 112.597 122.368 113.129 123.025 113.129ZM125.782 111.21H130.67V113H132.728V111.21H133.991V109.485H132.728V102.818H130.033L125.782 109.515V111.21ZM130.709 109.485H127.95V109.406L130.63 105.165H130.709V109.485ZM139.223 113.139C141.52 113.139 143.171 111.911 143.176 110.261C143.171 108.988 142.191 107.949 140.968 107.745V107.675C142.032 107.457 142.793 106.537 142.798 105.418C142.793 103.842 141.281 102.679 139.223 102.679C137.16 102.679 135.649 103.842 135.654 105.418C135.649 106.532 136.399 107.457 137.483 107.675V107.745C136.24 107.949 135.271 108.988 135.276 110.261C135.271 111.911 136.926 113.139 139.223 113.139ZM139.223 111.558C138.199 111.558 137.513 110.952 137.513 110.092C137.513 109.212 138.234 108.575 139.223 108.575C140.208 108.575 140.933 109.212 140.933 110.092C140.933 110.957 140.242 111.558 139.223 111.558ZM139.223 107.009C138.363 107.009 137.752 106.447 137.752 105.642C137.752 104.847 138.353 104.3 139.223 104.3C140.088 104.3 140.695 104.852 140.695 105.642C140.695 106.447 140.078 107.009 139.223 107.009ZM150.254 111.091C150.259 112.314 151.039 113.353 152.496 113.353C153.938 113.353 154.743 112.314 154.738 111.091V110.554C154.743 109.321 153.958 108.292 152.496 108.292C151.059 108.292 150.259 109.331 150.254 110.554V111.091ZM145.029 105.264C145.034 106.487 145.814 107.516 147.266 107.516C148.713 107.516 149.518 106.497 149.513 105.264V104.727C149.518 103.494 148.733 102.465 147.266 102.465C145.844 102.465 145.034 103.494 145.029 104.727V105.264ZM145.516 113H146.814L153.814 102.818H152.516L145.516 113ZM151.701 110.554C151.706 110.067 151.9 109.565 152.496 109.565C153.123 109.565 153.287 110.067 153.282 110.554V111.091C153.287 111.578 153.103 112.07 152.496 112.07C151.89 112.07 151.706 111.563 151.701 111.091V110.554ZM146.485 104.727C146.49 104.255 146.674 103.738 147.266 103.738C147.892 103.738 148.061 104.24 148.056 104.727V105.264C148.061 105.751 147.873 106.244 147.266 106.244C146.679 106.244 146.49 105.751 146.485 105.264V104.727Z" fill="white"/>
<path d="M134 1C60.5461 1 1 60.5461 1 134H267C267 60.5461 207.454 1 134 1Z" fill="url(#paint0_linear_815_28)"/>
<path d="M267 134C267 60.5461 207.454 1 134 1C60.5461 1 1 60.5461 1 134" stroke="#F1A132" stroke-width="0.5" stroke-dasharray="5 5"/>
<defs>
<filter id="filter0_d_815_28" x="172" y="63.8123" width="48.5742" height="44.8434" filterUnits="userSpaceOnUse" color-interpolation-filters="sRGB">
<feFlood flood-opacity="0" result="BackgroundImageFix"/>
<feColorMatrix in="SourceAlpha" type="matrix" values="0 0 0 0 0 0 0 0 0 0 0 0 0 0 0 0 0 0 127 0" result="hardAlpha"/>
<feOffset/>
<feGaussianBlur stdDeviation="2.5"/>
<feColorMatrix type="matrix" values="0 0 0 0 0.945098 0 0 0 0 0.631373 0 0 0 0 0.196078 0 0 0 0.39 0"/>
<feBlend mode="normal" in2="BackgroundImageFix" result="effect1_dropShadow_815_28"/>
<feBlend mode="normal" in="SourceGraphic" in2="effect1_dropShadow_815_28" result="shape"/>
</filter>
<linearGradient id="paint0_linear_815_28" x1="134" y1="1" x2="134" y2="134" gradientUnits="userSpaceOnUse">
<stop stop-color="#FAAF6A" stop-opacity="0.14"/>
<stop offset="1" stop-color="white" stop-opacity="0"/>
</linearGradient>
</defs>
</svg>
